<svg width="100" height="100" viewBox="0 0 667 667" fill="none" xmlns="http://www.w3.org/2000/svg">
<g clip-path="url(#clip0_1_2)">
<path d="M449.016 235.441C449.016 262.128 435.255 280.08 414.35 295.606C414.35 295.606 398.681 307.736 390.137 313.559L457.52 394.689C459.428 392.081 481.125 366.082 481.125 366.082H648V293.645H481.125V242.011L658.98 241.895L659 164.02L407.489 164.039C433.773 177.564 449.016 203.62 449.016 235.441ZM510.594 419.134C499.106 432.316 498.68 433.913 494.519 438.644L547.066 501.983L658.715 501.963L658.735 419.176L510.594 419.134ZM167.426 358.14L200.996 258.088L233.754 358.14H167.426ZM314.797 164.019L142.969 163.999L7.99951 501.963L122.186 502.002L144.248 439.289L251.108 439.387C247.272 427.803 245.262 414.803 245.262 400.389C245.262 356.255 276.64 327.629 306.049 307.735C292.308 291.724 272.337 267.464 272.337 234.47C272.337 202.811 287.62 177.342 314.797 164.019ZM369.312 265.038C380.232 257.274 388.756 248.056 388.756 235.926C388.756 219.914 378.324 207.784 360.748 207.784C342.217 207.784 332.738 219.914 332.738 235.926C332.738 248.541 343.15 260.671 355.024 274.742C359.793 271.831 369.312 265.038 369.312 265.038ZM308.444 401.804C308.444 430.451 335.012 456.349 363.487 456.349C383.438 456.349 398.173 450.061 413.842 435.991L342.643 348.917C322.184 363.473 308.444 377.058 308.444 401.804Z" fill="black"/>
</g>
<defs>
<clipPath id="clip0_1_2">
<rect width="651" height="338" fill="white" transform="translate(8 164)"/>
</clipPath>
</defs>
</svg>
