<svg width="100" height="100" viewBox="0 0 667 667" fill="none" xmlns="http://www.w3.org/2000/svg">
<path d="M519.429 245C518.523 268.997 490.904 283.033 466.454 280.769C466.454 289.825 466.454 307.936 466.454 308.388C455.135 296.616 439.288 290.73 421.63 291.183C397.633 290.277 378.616 301.144 367.749 316.538V293.447H341.941V256.319H303.455V291.183C283.986 289.825 271.308 299.786 264.517 316.991V294.353H227.389V311.105C215.164 292.541 197.053 289.825 177.131 289.825C154.945 289.372 116.912 294.805 116.007 330.574H153.134C159.02 309.747 184.376 314.727 189.809 321.066C194.79 326.499 196.148 340.535 174.415 341.894C128.232 344.158 110.574 356.383 111.026 382.644C110.121 411.621 132.759 421.129 153.134 420.224C173.056 420.676 179.395 417.054 193.884 404.377L195.242 416.149H266.328V355.477C265.875 339.177 280.364 322.877 303.455 325.141V380.38C303.003 415.243 318.397 417.96 366.844 415.696V397.132C398.538 434.712 470.982 427.015 481.848 380.38H445.174C438.382 399.849 394.01 400.302 394.916 364.533L483.207 364.985C485.018 341.894 479.132 323.783 468.718 311.558C470.982 311.558 495.885 311.558 508.562 311.558C508.562 346.874 508.562 382.191 508.562 417.507H555.651V245H519.429ZM150.418 381.738C149.965 359.552 180.301 367.702 192.073 357.741V370.419C193.884 397.585 152.682 405.282 150.418 381.738ZM362.316 386.718C348.733 388.53 341.941 385.36 342.394 370.419L341.941 317.897H366.391C352.808 333.744 350.997 369.06 362.316 386.718ZM394.463 343.252C399.896 308.841 441.552 308.388 445.627 343.252H394.463Z" fill="black"/>
</svg>
