<svg width="100" height="100" viewBox="0 0 667 667" fill="none" xmlns="http://www.w3.org/2000/svg">
<g clip-path="url(#clip0_1_2)">
<path fill-rule="evenodd" clip-rule="evenodd" d="M479.265 332.563C479.265 371.203 463.907 408.261 436.571 435.584C409.235 462.906 372.159 478.256 333.5 478.256C294.841 478.256 257.765 462.906 230.429 435.584C203.093 408.261 187.735 371.203 187.735 332.563C187.735 313.43 191.506 294.485 198.831 276.809C206.156 259.133 216.893 243.071 230.429 229.543C243.964 216.014 260.033 205.282 277.718 197.96C295.403 190.639 314.358 186.87 333.5 186.87C352.642 186.87 371.597 190.639 389.282 197.96C406.967 205.282 423.036 216.014 436.571 229.543C450.107 243.071 460.844 259.133 468.169 276.809C475.494 294.485 479.265 313.43 479.265 332.563Z" fill="black"/>
<path fill-rule="evenodd" clip-rule="evenodd" d="M333.5 145C150.773 145.189 49.0472 266.253 16.1917 314.691C11.9584 321.006 9.87337 326.69 9.99974 332.5C9.99974 338.184 11.8952 343.994 16.1917 350.183C49.0472 398.873 150.773 519.874 333.5 520.126C516.227 519.937 617.952 398.873 650.808 350.435C655.041 344.246 657.126 338.436 657 332.753C657 326.943 655.104 321.196 650.808 314.88C617.952 266.253 516.227 145.189 333.5 145ZM333.5 165.967C205.363 165.967 128.279 271.81 129.417 332.5C128.279 393.126 205.363 498.907 333.5 498.907C461.636 498.907 538.72 393.19 537.583 332.563C538.657 271.747 461.573 165.84 333.5 165.84V165.967Z" fill="black"/>
</g>
<defs>
<clipPath id="clip0_1_2">
<rect width="647" height="375" fill="white" transform="translate(10 145)"/>
</clipPath>
</defs>
</svg>
