<svg width="100" height="100" viewBox="0 0 667 667" fill="none" xmlns="http://www.w3.org/2000/svg">
<path d="M100 199.2C83.4667 203.6 68.1333 216.267 61.4667 230.933C58.4 237.467 53.4667 259.067 38.8 331.467C19.8667 424.267 18.4 433.733 21.6 444.267C23.7333 451.333 33.0667 461.6 40.9333 465.467L47.3333 468.667L303.333 469.067C474.667 469.333 561.467 468.933 565.733 468C582.8 464.4 598.533 452.267 605.867 436.933C610 428.4 612.8 416.4 629.333 335.333C649.6 235.2 650.267 230.8 644.8 219.333C641.467 211.867 633.333 204 625.733 200.4C620.933 198.133 606.533 198 363.333 197.733C163.067 197.6 104.667 197.867 100 199.2ZM620.533 206.933C623.867 208 628.4 211.067 632.133 214.8C637.067 219.733 638.667 222.4 640 228.267C641.6 235.333 641.333 237.6 633.333 276.8C628.8 299.467 624.267 322 623.067 326.933L621.067 336H334.133C176.267 336 46.8 335.733 46.5333 335.333C45.3333 334.133 65.4667 239.333 68 233.867C73.7333 222.267 86.5333 211.2 99.0667 207.333C107.067 204.8 612.133 204.533 620.533 206.933ZM568 348.4C577.867 352.533 583.867 363.867 581.467 373.2L580.533 376.667H565.2C554 376.667 550 376.267 549.867 374.933C549.733 374.133 549.6 372.533 549.467 371.467C549.333 368.933 540.667 366.267 536.267 367.333C531.6 368.4 528 371.733 528 374.8C528 377.6 528.133 377.6 548.4 382C557.2 383.867 566 386.267 568.133 387.467C574.267 390.533 577.333 396.8 577.333 405.6C577.333 423.467 566.533 438.8 550.4 443.733C538.667 447.333 526.4 448.4 514.8 446.667C496.667 444.133 489.333 437.333 489.333 422.8V414.667H506H522.667V418C522.667 424.667 538.8 425.2 542.533 418.533C546.4 411.6 545.333 411.067 519.733 405.333C504.933 402.133 500.933 399.333 498.667 390.667C496.133 381.333 499.733 367.733 507.333 357.867C512.133 351.6 523.333 346.533 534.933 345.6C546.933 344.4 561.867 345.733 568 348.4ZM136.667 349.467C145.467 353.867 149.467 360.667 149.067 370L148.667 376.667L133.067 377.067L117.333 377.467V374.133C117.333 370 113.333 367.6 106.533 367.733C99.2 367.867 95.7333 370.133 96.2667 374.4C96.6667 377.733 97.4667 378 115.067 382C134.8 386.533 139.2 388.8 143.067 396.133C148.667 406.667 141.333 429.6 129.733 437.733C117.733 446.267 98.4 449.733 80.2667 446.667C65.8667 444.267 57.8667 437.733 56.4 426.933C56 424 56 420 56.5333 418.133L57.3333 414.667H73.2C88.6667 414.667 89.2 414.8 89.6 417.6C90.1333 421.6 96.2667 424.533 102.133 423.467C107.867 422.267 110.667 419.467 110.667 414.667C110.667 411.2 110.133 410.8 103.733 409.333C78.2667 404 73.7333 402.533 69.8667 398.533C66.2667 394.8 66 393.867 66 383.6C66 374.8 66.6667 371.467 69.2 366.667C77.7333 350.267 88.5333 345.2 114 345.733C128.267 346 130.8 346.4 136.667 349.467ZM310.8 348.133C318.133 350.667 324.133 355.867 326.933 362.4C329.333 367.6 329.6 370.4 328.933 382.533C327.467 413.2 313.467 435.467 291.6 442C282.8 444.667 261.2 444.667 252.4 442C236.667 437.333 230.667 422.667 234.667 399.2C239.2 373.733 252 355.333 269.6 349.2C277.867 346.4 303.467 345.733 310.8 348.133ZM226.533 350.4C234.4 354.267 236.667 358.667 236.4 369.733C236 388.4 228 405.333 216.667 411.2C212.133 413.6 208.4 414.133 193.067 414.4C175.467 414.8 174.667 414.933 174 417.733C173.6 419.333 172.267 425.733 170.933 432L168.667 443.333L154.8 443.733C141.067 444.133 141.067 444.133 141.733 441.067C142.133 439.333 146.4 418.533 151.333 394.667C156.133 370.8 160.4 350.533 160.667 349.6C161.067 348.4 168.533 348 191.6 348C217.867 348 222.667 348.267 226.533 350.4ZM408.8 350C420.4 354.8 420.133 380.4 408.133 392L403.333 396.8L405.867 401.867C408.267 406.8 408.267 406.933 404.667 425.467L400.933 444H386.933H372.933L374.133 436.933C374.667 433.2 375.2 426.667 375.333 422.667V415.333H364.8H354.267L351.733 426.667C350.533 432.933 349.067 439.333 348.667 440.933C348 443.867 347.333 444 334.667 444C327.333 444 321.333 443.6 321.333 442.933C321.333 442.4 325.6 420.8 330.933 394.933L340.667 348H372.4C397.2 348 405.067 348.4 408.8 350ZM500 350.267C500 351.6 498.933 357.333 497.733 362.933L495.6 373.333H483.333H471.067L463.867 408.667L456.667 444H442.933C429.467 444 429.333 444 430 440.933C430.4 439.333 433.333 424.8 436.667 408.667C439.867 392.533 442.933 378 443.333 376.267C444 373.333 443.867 373.333 432 373.333C423.333 373.333 420 372.933 420 371.6C420 370.8 421.067 365.067 422.267 358.933L424.533 348H462.267C497.067 348 500 348.133 500 350.267Z" fill="black"/>
<path d="M100 224.533C100 224.933 95.2 247.733 89.3333 275.333C83.4667 302.933 78.6667 325.733 78.6667 326.133C78.6667 326.4 100.267 326.667 126.667 326.667C176 326.667 184.133 326 193.733 321.2C199.067 318.4 199.867 319.067 196.533 323.733L194.533 326.667H215.733H237.067L240.533 320.667L244.133 314.667H265.2C286 314.667 286.4 314.667 287.2 317.6C287.6 319.333 288 322 288 323.733V326.667L326.4 326.4L364.667 326L370.667 297.6C373.867 282.133 376.933 269.333 377.333 269.333C377.733 269.333 384.8 282.267 393.2 298L408.4 326.667H430.533H452.667L463.067 276.933C468.8 249.733 473.467 226.533 473.333 225.6C473.333 224.4 468.667 224 454.667 224C444.4 224 436 224.267 436 224.667C436 226.533 425.067 277.067 424.133 279.333C423.333 281.467 420.133 276.267 408.533 253.333L394 224.667L371.067 224.267C358.4 224.133 348 224.133 348 224.533C348 226.4 329.2 312.667 328.667 313.067C328.267 313.467 328 313.467 328 313.067C328 312.667 323.733 292.8 318.667 268.8C313.6 244.933 309.333 225.067 309.333 224.667C309.333 224.267 298.267 224 284.8 224H260.267L237.867 258.933C225.733 278.267 214.933 294.8 214 295.733C212.667 297.2 212.533 296.133 213.067 290.933C213.733 282.8 210.667 275.333 205.067 272.533L201.067 270.533L206.667 265.6C213.733 259.733 217.2 252.133 217.333 243.2C217.333 238.133 216.533 235.333 214.4 232.667C208.4 224.933 206.667 224.8 151.067 224.267C122.933 224 100 224.133 100 224.533ZM173.867 252.267C174.933 254 174.667 255.467 172.533 258.267L169.733 262L150.4 262.4L131.067 262.8L132.4 256L133.733 249.2L153.067 249.6C169.6 250 172.533 250.267 173.867 252.267ZM278.667 256.933C278.667 257.6 279.6 264 280.667 271.333C283.733 292.4 284.667 290.667 270.667 290.667C264.133 290.667 258.667 290.267 258.667 289.867C258.667 289.467 262.667 281.6 267.733 272.533C275.733 257.867 278.533 253.733 278.667 256.933ZM167.733 287.467C172.667 290.933 171.067 297.6 164.4 301.067C161.2 302.8 122.667 303.333 122.667 301.6C122.8 300.267 125.333 289.067 126 286.933C126.933 284.267 163.867 284.667 167.733 287.467Z" fill="black"/>
<path d="M484 224.533C484 224.933 479.2 247.733 473.333 275.333C467.467 302.933 462.667 325.733 462.667 326.133C462.667 326.4 482.667 326.667 507.067 326.667C554.933 326.667 563.333 325.733 575.6 319.6C583.6 315.467 593.333 305.333 598 296C603.067 286 606.667 270.533 606.667 258.667C606.667 237.733 596.933 228 573.333 225.333C562.267 224 484 223.467 484 224.533ZM551.2 250.8C554.133 251.6 558.267 254 560.4 256.133C564.267 260 564.267 260.533 563.733 269.867C562.8 283.6 557.733 292.533 548 297.6C541.467 301.067 540 301.333 524.533 301.333C515.467 301.333 508 301.067 508 300.667C508 299.867 517.067 257.067 518.133 252.667C518.933 249.333 519.2 249.333 532.533 249.333C539.867 249.333 548.4 250 551.2 250.8Z" fill="black"/>
<path d="M282.533 370.667C272.933 373.467 267.733 380.8 264.533 396C261.067 412.933 264.667 420 277.067 420C283.733 420 284.8 419.6 289.333 414.933C298.8 405.467 303.467 381.2 297.067 374.267C293.733 370.533 287.867 369.2 282.533 370.667Z" fill="black"/>
<path d="M182.267 376.933C181.733 379.733 181.067 384 180.533 386.267L179.733 390.667H189.6C201.067 390.667 204.667 388.8 206.533 381.733C208.933 373.467 207.067 372 194.133 372H183.067L182.267 376.933Z" fill="black"/>
<path d="M361.467 380C359.067 391.467 358.667 391.067 370.667 390.4C383.333 389.867 385.733 388.267 385.867 379.733L386 374L374.4 373.6L362.933 373.2L361.467 380Z" fill="black"/>
</svg>
