<svg width="100" height="100" viewBox="0 0 667 667" fill="none" xmlns="http://www.w3.org/2000/svg">
<path d="M163.768 507.313C163.168 506.34 172.03 462.06 173.574 458.317C174.199 456.801 175.349 456.376 180.211 455.865C199.921 453.796 216.925 447.892 230.017 438.575C236.843 433.717 247.985 421.968 253.108 414.225C259.138 405.112 267.681 386.704 272.059 373.389C278.42 354.043 288.868 310.027 287.777 307.176C287.437 306.288 282.34 306.05 263.685 306.05C249.576 306.05 239.818 306.383 239.515 306.875C239.235 307.329 239.973 310.001 241.154 312.814C245.991 324.334 247.226 331.266 247.177 346.626C247.127 362.311 246.084 367.829 240.74 380.698C235.472 393.383 224.424 407.546 213.199 416.004C196.256 428.77 173.106 435.211 152.207 432.973C119.985 429.523 92.0382 408.366 80.3444 378.569C75.6629 366.64 75.0127 362.754 75.0003 346.626C74.9902 333.483 75.2486 330.564 76.9872 324.18C85.1868 294.073 107.37 271.538 137.861 262.342L145.613 260.004L221.317 259.346C279.893 258.838 297.169 258.448 297.678 257.622C298.04 257.036 298.587 254.876 298.894 252.824C300.298 243.44 307.188 215.121 309.58 208.904C315.282 194.082 327.849 178.168 340.256 170.059C355.325 160.208 375.257 155.397 392.38 157.478C410.052 159.624 422.758 165.099 436.024 176.283C440.545 180.094 449.187 190.828 449.202 192.652C449.21 193.596 414.582 215.501 406.936 219.388C406.66 219.528 404.646 217.95 402.461 215.881C397.471 211.156 391.803 209.182 383.321 209.215C373.31 209.255 365.113 214.035 359.967 222.837C357.791 226.558 352.467 246.002 351.385 254.176L350.802 258.584L395.908 258.36L441.014 258.136L444.229 242.727C448.736 221.121 451.297 211.972 455.138 203.757C463.481 185.91 475.077 173.854 492.127 165.3C502.831 159.93 513.697 157.407 526.725 157.268C542.638 157.098 555.046 160.382 568.385 168.295C578.375 174.22 593.194 189.93 591.923 193.248C591.671 193.907 582.12 200.172 570.698 207.171L549.932 219.895L546.016 216.277C540.272 210.969 535.704 209.223 527.567 209.223C516.214 209.223 507.528 214.371 502.623 224.009C499.85 229.458 493.134 257.128 494.301 258.297C494.546 258.543 506.822 258.959 521.579 259.22C540.014 259.546 548.526 259.994 548.778 260.651C548.979 261.177 547.376 269.956 545.215 280.16C543.055 290.364 541.057 299.878 540.775 301.302C539.809 306.187 540.622 306.05 512.514 306.05C492.705 306.05 486.248 306.309 485.588 307.129C485.111 307.723 484.25 311.122 483.675 314.684C477.684 351.791 467.918 389.53 458.351 412.545C435.918 466.508 396.646 497.868 341.552 505.811C325.651 508.104 323.173 508.242 321.393 506.937C319.804 505.772 319.903 505.041 324.8 481.791C327.574 468.621 330.252 457.285 330.751 456.6C331.251 455.915 335.252 454.617 339.644 453.715C366.268 448.248 384.493 436.386 398.482 415.422C409.396 399.068 415.525 383.771 422.934 354.396C426.624 339.769 432.192 310.98 431.828 308.413L431.555 306.482L387.096 306.258C352.187 306.083 342.446 306.268 341.749 307.122C341.26 307.72 339.239 316.367 337.258 326.338C330.557 360.059 321.424 392.132 312.919 411.806C286.484 472.959 241.134 504.871 176.533 507.777C167.676 508.176 164.222 508.05 163.768 507.313ZM169.191 385.496C189.36 381.662 203.697 360.833 200.381 340.183C196.993 319.086 177.938 304.402 156.809 306.606C123.225 310.11 109.022 351.171 133.157 374.985C142.594 384.296 155.578 388.083 169.191 385.496ZM126.2 247.084C113.884 240.555 116.879 218.787 131.037 211.917C139.008 208.049 152.934 210.514 152.934 215.793C152.934 218.897 149.89 219.534 147.191 216.995C145.483 215.388 144.111 214.979 140.534 215.013C135.188 215.064 131.426 217.018 127.643 221.71C125.388 224.507 124.944 225.869 124.663 230.859C124.251 238.168 125.839 241.727 130.356 243.619C134.359 245.295 140.239 244.688 143.514 242.261C148.439 238.612 151.908 241.319 147.551 245.41C144.7 248.087 141.421 249.072 135.357 249.072C131.373 249.072 128.963 248.548 126.2 247.084ZM151.211 246.776C151.211 245.988 156.127 237.616 162.134 228.172C172.728 211.519 173.138 211.008 175.699 211.259L178.341 211.517L181.977 228.784C183.977 238.28 185.432 246.563 185.211 247.19C184.989 247.816 183.935 248.205 182.867 248.053C181.378 247.841 180.608 246.769 179.565 243.46L178.206 239.143L171.386 238.887C167.635 238.747 163.736 238.84 162.72 239.096C161.705 239.351 159.628 241.506 158.106 243.884C156.048 247.099 154.808 248.208 153.274 248.208C151.927 248.208 151.211 247.712 151.211 246.776ZM176.674 233.442C177.351 232.343 175.388 219.859 174.447 219.276C173.574 218.735 164.865 232.629 165.466 233.603C166.161 234.73 175.967 234.588 176.674 233.442ZM191.099 246.802C190.585 245.461 194.322 221.125 196.085 214.323C196.842 211.405 197.205 211.086 199.772 211.086C202.602 211.086 202.662 211.173 209.343 225.112C214.721 236.332 216.203 238.793 216.754 237.414C217.132 236.466 218.257 230.834 219.252 224.899C220.248 218.963 221.263 213.427 221.507 212.596C222.008 210.894 225.803 210.5 226.334 212.095C226.689 213.163 222.334 239.444 220.878 245.022C220.085 248.056 219.805 248.29 217.267 248.044C214.628 247.788 214.235 247.207 207.747 233.964C202.256 222.758 200.844 220.476 200.265 221.877C199.873 222.827 198.703 228.654 197.664 234.827C196.626 241 195.391 246.536 194.92 247.129C193.719 248.642 191.738 248.473 191.099 246.802ZM224.939 247.49C224.521 246.812 243.765 215.826 246.609 212.596C248.027 210.987 251.55 210.554 252.372 211.887C253.362 213.493 259.778 245.976 259.335 247.136C258.508 249.294 255.089 247.981 254.26 245.187C252.233 238.363 252.76 238.71 244.462 238.725C240.307 238.732 236.494 239.024 235.989 239.372C235.484 239.721 233.819 241.852 232.288 244.107C230.27 247.08 228.937 248.208 227.443 248.208C226.309 248.208 225.183 247.885 224.939 247.49ZM251.435 233.716C252.016 232.775 249.108 219.287 248.325 219.287C247.37 219.287 239.124 232.936 239.606 233.718C240.151 234.602 250.89 234.601 251.435 233.716ZM265.205 246.901C264.765 245.75 269.636 214.96 270.701 212.165C270.927 211.571 272.039 211.086 273.173 211.086C275.88 211.086 275.868 213.189 273.073 228.269C269.96 245.063 269.62 243.889 277.602 243.905C284.812 243.919 286.982 244.66 286.152 246.826C285.388 248.824 265.968 248.893 265.205 246.901Z" fill="black"/>
</svg>
