<svg width="100" height="100" viewBox="0 0 667 667" fill="none" xmlns="http://www.w3.org/2000/svg">
<path d="M80.8584 389.323C80.0961 396.336 87.1088 401.671 96.7132 400.909L143.668 395.116L147.327 373.316L115.312 377.279C111.043 377.737 107.232 376.517 107.994 371.029L110.739 351.363C111.653 345.112 116.989 343.283 122.477 342.673L152.053 339.014L155.254 317.214L103.116 323.465C96.1034 324.074 90.3103 329.105 88.4809 335.813L80.8584 389.323ZM187.878 313.098L162.724 316.147L151.748 394.049L177.054 391L187.878 313.098ZM184.524 390.085L209.374 387.036L214.862 348.314L237.272 383.682L259.682 380.938L271.268 303.036L246.419 306.085L241.083 343.283L219.588 309.134L195.958 312.031L184.524 390.085ZM299.319 328.038L300.386 320.111L340.023 315.232L343.072 293.889L278.891 301.969L267.914 379.871L332.248 371.944L335.297 350.601L295.813 355.479L297.032 346.942L333.925 342.368L336.669 323.769L299.472 328.343L299.319 328.038ZM565.192 303.951L593.243 263.094L563.972 266.753L551.014 286.877L540.19 269.65L512.902 273.004L535.007 306.695L509.7 343.435L491.101 275.9L466.252 278.949L425.7 355.631L436.067 282.608L408.321 285.962L388.35 315.385L376.001 289.926L351.152 292.975L340.176 370.724L365.025 367.675L370.513 328.953L383.929 354.564H384.386L405.729 324.684L400.393 363.406L423.413 360.51H425.395L450.854 357.461L456.19 346.484L482.564 343.131L485.003 353.192L505.279 350.753L511.987 349.991L534.549 347.247L549.947 323.617L561.686 343.893L588.974 340.539L565.649 304.256L565.192 303.951ZM651.631 223.305L631.203 368.132L15 443.9L35.5807 298.768L651.936 223L651.631 223.305ZM474.332 307.457L478.6 325.446L464.727 327.276L474.332 307.457Z" fill="black"/>
</svg>
