<svg width="100" height="100" viewBox="0 0 667 667" fill="none" xmlns="http://www.w3.org/2000/svg">
<path d="M272.031 116V241.584H394.764V116H272.031ZM402.456 253.948C401.225 253.939 400.003 253.959 398.81 254.024C363.029 256.006 336.425 280.505 338.795 324.827V440.795H400.28V315.793L528.391 315.305V254.024H406.159C404.929 253.989 403.687 253.956 402.456 253.948ZM264.844 253.997C263.632 253.981 262.409 253.991 261.178 254.024H138.944V315.305L267.057 315.793V440.795H328.542V324.827C330.991 279.028 302.423 254.483 264.844 253.997Z" fill="black"/>
<path d="M122.418 471.091L121.928 471.189C110.406 471.473 101.04 475.595 93.9311 482.844C86.871 490.19 83.1471 499.35 83 510.271V510.453V510.629C83.2208 521.6 86.92 531.002 93.9311 538.25C101.04 545.548 110.258 549.27 121.388 549.564H121.569C128.433 549.524 134.269 548.095 139.172 545.646C144.075 543.197 148.291 540.063 152.115 535.949L153.097 534.479L152.115 533.5L143.878 525.273L142.897 523.803L141.427 525.273C138.485 528.211 135.494 530.169 132.454 531.736C129.512 533.205 126.031 534.187 121.864 534.187C115.196 534.006 110.146 531.737 106.077 527.182C102.154 522.774 99.7511 517.191 99.604 510.335C99.604 510.276 99.6078 510.222 99.604 510.158C99.6078 510.095 99.604 510.041 99.604 509.977C99.7608 503.169 102.056 497.537 105.881 493.13C109.803 488.722 115.196 486.47 121.864 486.323C125.786 486.363 129.07 487.303 132.11 488.772C135.052 490.241 138.141 492.2 140.887 494.894L142.359 496.361L143.829 494.894L152.066 485.391L153.048 483.924L152.066 482.942C148.634 479.514 144.514 476.625 139.857 474.519C134.954 472.56 129.366 471.091 122.6 471.091L122.418 471.091ZM535.912 472.05L535.553 473.029L503.587 545.842L502.605 548.291H505.057H518.149H519.128L519.492 547.312L526.649 530.806H558.422L565.432 547.312L565.79 548.291H567.26H580.546H583L582.019 545.842L550.248 473.029L549.758 472.05H548.776H536.913H535.931H535.912ZM242.042 472.3L242.209 472.448V474.406V546.679V548.639H244.172H294.799H296.759V546.679V535.22V533.26H294.799H258.516V474.259V472.3H256.556H244.005H242.042ZM162.06 472.35L161.962 472.448V474.406V516.035C162.07 526.809 164.904 535.381 170.935 541.16C176.769 546.842 184.809 549.584 194.615 549.584C204.519 549.58 212.608 546.645 218.492 540.964C224.424 535.136 227.367 526.566 227.465 515.497V474.406V472.448H225.505H212.755H211.285V474.406V516.035C211.232 522.451 209.813 527.055 206.871 530.043C203.93 532.981 200.205 534.45 194.861 534.45C189.467 534.422 185.495 532.491 182.651 529.552C179.709 526.614 178.239 521.864 178.239 515.399V474.308V472.35H176.77H164.02L162.06 472.35ZM355.539 472.35L355.441 472.448V474.406V516.035C355.555 526.809 358.382 535.381 364.412 541.16C370.247 546.842 378.287 549.584 388.093 549.584C397.996 549.58 406.088 546.645 411.972 540.964C417.904 535.136 420.844 526.566 420.942 515.497V474.406V472.448H418.982H406.235H404.763V474.406V516.035C404.709 522.451 403.293 527.055 400.351 530.043C397.409 532.981 393.682 534.45 388.338 534.45C382.945 534.422 378.974 532.491 376.131 529.552C373.189 526.614 371.719 521.864 371.719 515.399V474.308V472.35H370.247H357.5L355.539 472.35ZM433.223 472.413V474.371V546.64V548.6H435.186H447.736H449.697V546.64V523.131H462.983L480.243 547.717L480.733 548.207H481.712H496.815H500.245L498.284 545.759L479.948 519.752C484.361 518.283 488.234 516.325 491.078 512.946C494.51 509.028 496.373 503.737 496.471 497.517V497.343V497.161C496.459 493.733 495.979 490.695 494.508 487.854C493.528 484.916 491.567 482.614 489.606 480.508V480.327C487.154 477.878 483.969 475.92 480.292 474.794C476.369 473.324 472.252 472.833 467.545 472.833H435.429H433.468L433.223 472.413ZM283.811 472.448V474.406V486.259V487.727H285.283H306.464V546.551V548.512H308.424H321.367H322.839V546.551V487.727H344.019H345.98V486.259V474.406V472.448H344.019H285.313H283.841H283.811ZM449.353 487.449H466.073C470.485 487.473 473.917 488.428 476.123 490.387C478.084 491.856 479.556 494.305 479.556 497.929V498.106C479.512 501.534 478.574 503.787 476.123 505.648C473.671 507.607 470.78 508.585 466.416 508.585H449.55V487.771L449.353 487.449ZM542.728 493.405L552.582 515.981H533.019L542.728 493.405Z" fill="black"/>
</svg>
