<svg width="100" height="100" viewBox="0 0 667 667" fill="none" xmlns="http://www.w3.org/2000/svg">
<path d="M19 237V254.581L51.6568 254.851C51.6568 254.851 51.9169 310.692 51.9661 351.663H78.4551L78.6484 254.678L113.142 254.832C113.297 255.025 113.374 267.97 113.393 303.383L113.451 351.663C122.249 351.709 131.046 351.734 139.844 351.759C139.862 333.824 139.902 315.889 139.94 297.954L181.201 298.108C181.589 317.348 181.461 329.133 181.51 351.663L233.734 351.721L285.958 351.759L299.686 320.365L345.413 320.597L359.296 351.759H385.978C385.978 351.759 353.01 275.136 336.152 237.097L309.025 237.193L266.778 333.405L266.507 333.888L237.466 333.946C216.101 333.966 208.367 333.927 208.173 333.773C207.704 320.802 207.947 314.047 207.999 297.761L258.27 297.567V280.373L208.154 280.064C207.721 270.894 207.947 266.102 207.999 254.678L273.738 254.484L273.719 253.943C273.693 247.943 273.672 243.376 273.642 237H181.414C181.396 251.393 181.356 265.786 181.317 280.18L140.114 280.064C139.626 264.57 139.844 256.46 139.844 237H19ZM361.229 237V254.581L393.112 254.851C393.498 289.7 393.373 310.692 393.422 351.663H406.57H419.717C419.782 319.334 419.846 287.006 419.911 254.678H451.233C451.298 287.006 451.362 319.334 451.427 351.663H569.37L569.563 305.102C585.218 320.79 601.461 335.892 616.934 351.759H647L600.615 303.131C600.693 302.919 601.93 302.494 602.472 302.494C602.704 302.494 602.955 302.417 603.013 302.301C603.071 302.185 603.38 302.108 603.69 302.108C603.999 302.108 604.308 302.011 604.366 301.914C604.424 301.798 604.695 301.721 604.946 301.721C605.198 301.721 605.449 301.644 605.507 301.547C605.565 301.47 605.971 301.335 606.397 301.257C606.841 301.199 607.344 301.064 607.518 300.968C607.692 300.871 608.059 300.716 608.33 300.601C608.601 300.504 609.123 300.272 609.49 300.118C609.858 299.963 610.65 299.635 611.23 299.383C611.81 299.132 612.603 298.765 612.97 298.572C614.827 297.529 615.426 297.2 615.813 297.007C616.064 296.891 616.257 296.737 616.257 296.64C616.257 296.563 616.335 296.505 616.451 296.505C616.605 296.505 618.887 294.979 619.486 294.476C619.622 294.38 619.834 294.186 619.97 294.09C620.492 293.665 623.121 291.404 623.315 291.211C623.431 291.095 624.069 290.342 624.765 289.55C625.461 288.758 626.06 288.062 626.118 288.004C626.331 287.811 627.665 285.879 627.665 285.763C627.665 285.705 627.839 285.415 628.032 285.125C628.593 284.353 629.405 282.768 629.405 282.479C629.405 282.324 629.502 282.208 629.599 282.208C629.715 282.208 629.792 282.034 629.792 281.841C629.792 281.629 629.869 281.416 629.966 281.358C630.063 281.3 630.179 281.049 630.237 280.817C630.295 280.566 630.488 279.89 630.662 279.31C631.609 276.161 631.803 274.77 631.803 270.713C631.803 268.684 631.706 266.521 631.571 265.883C631.107 263.449 630.991 262.946 630.507 261.536C629.192 257.595 627.008 254.175 623.585 250.736C618.307 245.443 612.139 242.197 602.974 239.917C602.568 239.801 601.853 239.627 601.369 239.512C600.886 239.396 599.997 239.222 599.397 239.106C598.779 239.009 597.773 238.835 597.174 238.739C595.55 238.43 593.867 238.179 592.862 238.063C589.285 237.657 587.951 237.522 585.225 237.348C504.532 236.976 451.328 237.063 361.229 237ZM571.404 253.85C574.566 253.84 581.048 254.006 583.485 254.195C587.371 254.484 592.011 255.18 594.119 255.779C602.162 258.039 606.571 261.575 608.021 266.946C608.523 268.839 608.775 270.732 608.639 271.795C608.349 274.287 608.291 274.596 608.137 274.963C608.059 275.176 607.924 275.62 607.866 275.968C607.615 277.456 606.068 280.044 604.463 281.648C603.361 282.768 601.563 284.14 601.215 284.14C601.099 284.14 600.983 284.217 600.944 284.295C600.886 284.43 598.392 285.686 597.309 286.111C597.038 286.227 596.671 286.381 596.497 286.478C596.323 286.574 595.82 286.71 595.376 286.768C594.95 286.845 594.544 286.98 594.486 287.057C594.428 287.154 594.138 287.231 593.829 287.231C593.519 287.231 593.21 287.309 593.152 287.425C593.094 287.521 592.746 287.618 592.398 287.618C592.069 287.618 591.702 287.695 591.605 287.792C591.393 287.985 591.103 288.023 587.545 288.468C582.46 289.125 570.201 289.434 569.699 288.931L569.621 253.924C569.665 253.876 570.35 253.853 571.404 253.85ZM477.954 254.716L542.572 254.851C542.688 333.888 542.737 300.343 542.688 333.888L478.09 333.773C477.62 320.802 477.863 314.047 477.916 297.761L528.187 297.567L528.071 280.74L478.051 280.238L477.954 254.716ZM322.659 268.763C322.692 268.767 322.723 268.787 322.752 268.82L337.64 302.668H307.768L322.626 268.764C322.637 268.762 322.648 268.762 322.659 268.763ZM477.77 374.671V414.898L486.212 414.824C490.941 414.768 495.087 414.652 495.671 414.54C498.365 414.035 499.572 413.663 501.23 412.803C503.36 411.719 503.866 411.421 503.922 411.271C503.96 411.196 504.072 411.141 504.186 411.141C504.28 411.141 504.467 411.029 504.599 410.898C504.731 410.786 505.187 410.429 505.582 410.112C506.751 409.233 509.239 406.541 509.239 406.167C509.239 406.092 509.37 405.889 509.521 405.72C509.898 405.309 510.933 403.291 510.933 402.973C510.933 402.842 511.028 402.726 511.123 402.726C511.236 402.726 511.308 402.559 511.308 402.372C511.308 402.167 511.403 401.944 511.497 401.888C511.611 401.832 511.688 401.53 511.688 401.25C511.688 400.97 511.763 400.673 511.839 400.58C512.498 399.851 512.8 392.336 512.291 390.205C511.349 386.41 509.783 383.513 507.277 380.896C504.865 378.373 500.983 376.164 497.648 375.397C497.233 375.304 496.481 375.137 495.954 375.025C495.388 374.894 491.598 374.801 486.397 374.745L477.771 374.671V374.671L477.77 374.671ZM173.366 374.699V381.516C174.42 381.989 175.427 382.538 176.369 383.183C177.902 384.231 179.258 385.508 180.42 386.94V381.078H188.335C196.766 381.078 202.273 386.833 202.273 394.694C202.273 402.555 196.766 408.193 188.335 408.193H182.124C180.649 410.759 178.59 412.938 176.126 414.572H188.335C200.953 414.572 209.673 405.856 209.673 394.577C209.673 383.296 200.953 374.699 188.335 374.699H173.366ZM434.74 374.764V374.764V414.894L438.411 415.01L438.508 396.575L462.835 396.691L463.098 414.991H466.866V374.801H463.098L463 393.027L438.679 392.915L438.411 374.801L434.74 374.764ZM483.522 378.089C484.367 378.086 485.562 378.103 487.229 378.131C490.263 378.168 493.293 378.298 493.972 378.392C495.762 378.672 496.763 378.911 497.988 379.36C502.586 381.08 506.242 384.801 507.769 389.343C508.447 391.343 508.538 392.108 508.538 394.968C508.518 397.847 508.386 399.289 508.085 399.476C507.991 399.532 507.919 399.736 507.919 399.942C507.919 400.129 507.843 400.449 507.749 400.635C507.674 400.804 507.259 401.643 506.863 402.484C506.467 403.344 506.072 404.035 505.996 404.035C505.902 404.035 505.845 404.109 505.845 404.221C505.845 404.987 501.285 409.082 500.437 409.082C500.305 409.082 500.193 409.138 500.193 409.231C500.193 409.306 499.91 409.478 499.59 409.609C499.25 409.758 498.779 409.943 498.552 410.037C498.307 410.13 497.932 410.279 497.706 410.391C495.934 411.138 491.128 411.569 485.589 411.476L481.631 411.42V378.28C481.668 378.177 481.955 378.119 482.789 378.098C482.998 378.093 483.241 378.09 483.522 378.089L483.522 378.089ZM166.38 383.257C157.432 383.257 150.178 390.196 150.178 398.754C150.178 407.313 157.432 414.251 166.38 414.251C175.328 414.251 182.581 407.313 182.581 398.754C182.581 390.196 175.328 383.257 166.38 383.257ZM267.279 384.519C258.396 384.519 251.871 391.541 251.871 399.946C251.871 408.354 258.397 415.196 267.225 415.196C273.012 415.196 276.443 412.91 279.376 409.688L275.267 405.674C273.13 407.852 270.771 409.357 267.561 409.357C262.33 409.357 258.681 405.125 258.681 399.835C258.681 394.656 262.274 390.424 267.225 390.424C270.652 390.424 272.85 391.929 274.926 394.093L279.152 389.59C276.391 386.574 272.91 384.519 267.279 384.519ZM296.872 384.524C294.581 384.524 292.464 384.939 290.539 385.758C288.609 386.569 286.942 387.676 285.534 389.074C284.126 390.467 283.02 392.087 282.214 393.939C281.407 395.792 281.007 397.779 281.007 399.904V400.012C281.007 402.098 281.397 404.054 282.185 405.916C282.971 407.767 284.077 409.383 285.481 410.764C286.879 412.132 288.561 413.223 290.481 414.023C292.416 414.814 294.506 415.215 296.761 415.215C299.042 415.215 301.164 414.805 303.123 413.986C305.059 413.173 306.739 412.073 308.152 410.68C309.554 409.292 310.666 407.663 311.467 405.804C312.273 403.946 312.67 401.976 312.67 399.904V399.783C312.67 397.674 312.279 395.695 311.501 393.855C310.709 392.013 309.608 390.402 308.201 389.013C306.797 387.615 305.127 386.533 303.201 385.725C301.271 384.941 299.15 384.524 296.872 384.524ZM358.616 384.524C356.474 384.524 354.521 384.941 352.759 385.725C350.998 386.533 349.475 387.615 348.179 389.013C346.887 390.402 345.881 392.03 345.17 393.888C344.469 395.741 344.089 397.731 344.089 399.839V399.956C344.089 402.224 344.486 404.299 345.282 406.167C346.063 408.045 347.143 409.647 348.515 410.982C349.886 412.322 351.506 413.358 353.353 414.097C355.215 414.839 357.209 415.215 359.341 415.215C362.079 415.215 364.438 414.716 366.4 413.711C368.372 412.712 370.071 411.375 371.497 409.706L367.496 406.2C366.299 407.346 365.086 408.223 363.849 408.808C362.613 409.402 361.145 409.706 359.458 409.706C357.246 409.706 355.358 409.055 353.801 407.783C352.25 406.5 351.285 404.658 350.905 402.242H372.734C372.774 401.906 372.797 401.579 372.816 401.259C372.836 400.956 372.842 400.647 372.842 400.347C372.842 398.237 372.541 396.218 371.951 394.307C371.345 392.385 370.459 390.704 369.278 389.264C368.087 387.816 366.605 386.67 364.828 385.809C363.046 384.951 360.969 384.524 358.616 384.524H358.616ZM237.227 384.65C235.764 384.65 234.39 384.853 233.094 385.26C231.794 385.666 230.674 386.259 229.71 387.039C228.758 387.813 228.014 388.753 227.466 389.851C226.925 390.951 226.653 392.197 226.653 393.604V393.721C226.653 395.137 226.934 396.315 227.495 397.283C228.058 398.243 228.782 399.056 229.662 399.704C230.546 400.355 231.531 400.881 232.641 401.287C233.75 401.707 234.846 402.057 235.937 402.354C236.797 402.615 237.628 402.867 238.439 403.113C239.241 403.347 239.951 403.632 240.576 403.942C241.192 404.257 241.68 404.616 242.032 405.022C242.399 405.434 242.567 405.917 242.567 406.465V406.587C242.567 407.543 242.161 408.315 241.36 408.896C240.549 409.467 239.419 409.757 237.962 409.757C236.414 409.757 234.818 409.449 233.152 408.835C231.481 408.225 229.837 407.319 228.221 406.135L225.188 410.707C227.065 412.153 229.097 413.244 231.293 413.986C233.482 414.731 235.652 415.103 237.787 415.103C239.327 415.103 240.766 414.908 242.12 414.521C243.469 414.124 244.642 413.559 245.639 412.789C246.632 412.03 247.408 411.083 247.971 409.925C248.532 408.779 248.813 407.417 248.813 405.855V405.753C248.813 404.423 248.532 403.273 247.971 402.354C247.408 401.425 246.685 400.637 245.805 399.979C244.921 399.336 243.941 398.787 242.85 398.34C241.755 397.891 240.678 397.508 239.593 397.176C238.723 396.881 237.897 396.588 237.086 396.342C236.274 396.081 235.565 395.791 234.949 395.471C234.327 395.156 233.84 394.801 233.459 394.414C233.078 394.027 232.894 393.566 232.894 393.045V392.938C232.894 392.086 233.256 391.376 233.99 390.824C234.717 390.267 235.741 389.981 237.052 389.981C238.297 389.981 239.645 390.237 241.102 390.74C242.569 391.246 244.018 391.923 245.445 392.775L248.146 387.979C246.567 386.943 244.828 386.135 242.908 385.534C240.996 384.94 239.098 384.65 237.227 384.65ZM398.311 385.143L409.348 414.34L409.255 414.535C409.255 414.535 407.032 420.492 405.025 421.944C403.473 422.728 399.853 422.669 398.482 422.572V428.072C400.874 428.072 406.509 428.221 408.316 427.084C410.603 425.675 411.106 425.055 412.663 421.925C414.355 418.518 427.37 385.143 427.37 385.143H420.287L412.678 406.698L405.56 385.143H398.311ZM213.743 385.148V414.54H220.558V385.148H213.743ZM312.957 385.148L325.161 414.773H331.291L343.447 385.148H336.305L328.258 406.754L320.269 385.148H312.957ZM377.933 385.148V414.54H384.739V403.355C384.739 401.387 384.929 399.654 385.464 398.237C387.511 392.885 393.236 391.361 396.189 390.932L393.857 385.302C391.475 385.703 387.297 386.845 384.739 390V385.148H377.933ZM358.553 390.047C359.689 390.047 360.69 390.24 361.571 390.629C362.442 391.025 363.204 391.572 363.849 392.272C364.48 392.981 364.993 393.796 365.359 394.754C365.744 395.693 365.978 396.001 366.094 397.083H350.851C351.157 394.775 351.992 393.623 353.353 392.184C354.725 390.761 356.45 390.047 358.553 390.047ZM296.761 390.438V390.438C298.104 390.438 299.34 390.679 300.45 391.183C301.549 391.686 302.506 392.369 303.313 393.227C304.119 394.079 304.743 395.075 305.192 396.231C305.648 397.373 305.874 398.608 305.874 399.905V400.012C305.874 401.276 305.662 402.47 305.251 403.606C304.83 404.735 304.235 405.729 303.449 406.587C302.667 407.438 301.722 408.11 300.611 408.617C299.507 409.116 298.257 409.362 296.872 409.362C295.558 409.362 294.347 409.116 293.236 408.617C292.137 408.11 291.175 407.435 290.373 406.554C289.567 405.687 288.935 404.666 288.485 403.518C288.031 402.372 287.808 401.167 287.808 399.904V399.783C287.808 398.498 288.025 397.269 288.436 396.142C288.846 395.004 289.44 394.027 290.232 393.185C291.018 392.358 291.964 391.686 293.075 391.183C294.18 390.679 295.406 390.438 296.761 390.438Z" fill="black"/>
</svg>
