<svg width="100" height="100" viewBox="0 0 667 667" fill="none" xmlns="http://www.w3.org/2000/svg">
<path d="M453.597 209L453.686 371.302L455.444 371.433C456.424 371.508 458.658 371.661 460.4 371.774C462.142 371.886 464.718 372.054 466.116 372.148C467.513 372.242 469.962 372.409 471.559 372.503C473.156 372.615 476.588 372.843 479.183 373.012C481.778 373.181 484.32 373.33 484.81 373.348L485.719 373.368C485.719 373.368 486.048 212.279 485.808 209.001L453.597 209ZM594.878 209L594.77 285.192C594.697 285.249 594.242 284.742 593.734 284.048C591.81 281.385 588.161 277.335 586.419 275.929C586.111 275.685 585.059 274.801 584.079 273.995C582.011 272.269 578.636 269.999 576.821 269.099C575.17 268.293 572.448 267.17 571.65 266.945C571.014 266.777 570.27 266.568 568.982 266.175C567.312 265.687 565.422 265.349 562.3 264.955C559.687 264.637 551.141 264.692 548.6 265.049C547.856 265.161 546.839 265.296 546.33 265.371C545.84 265.427 545.352 265.558 545.261 265.652C545.152 265.745 544.771 265.82 544.408 265.82C544.027 265.82 543.665 265.894 543.611 266.006C543.556 266.1 543.263 266.193 542.955 266.193C542.664 266.193 542.283 266.268 542.101 266.361C541.648 266.605 539.908 267.132 539.508 267.132C539.327 267.132 539.127 267.207 539.072 267.319C539.018 267.413 538.798 267.506 538.599 267.506C538.417 267.506 538.11 267.58 537.928 267.674C537.765 267.768 537.423 267.921 537.169 268.034C536.915 268.127 536.332 268.388 535.861 268.613C535.389 268.838 534.934 269.005 534.862 269.005C534.699 269.005 529.507 271.668 529.362 271.818C529.271 271.911 529.038 272.063 527.749 272.794C527.386 273 526.966 273.265 526.821 273.397C526.675 273.528 526.333 273.732 526.061 273.882C525.789 274.014 525.407 274.279 525.208 274.466C525.008 274.672 524.48 275.045 524.045 275.345C523.609 275.626 522.9 276.151 522.465 276.508C522.047 276.864 521.358 277.445 520.941 277.802C516.93 281.158 512.94 285.509 510.091 289.635C509.783 290.103 509.455 290.499 509.364 290.536C509.292 290.574 509.219 290.667 509.219 290.76C509.219 290.854 508.784 291.584 508.239 292.391C507.713 293.197 507.043 294.267 506.753 294.792C506.481 295.298 506.061 296.066 505.843 296.478C505.208 297.585 502.596 303.099 502.233 304.074C502.052 304.543 501.85 305.106 501.759 305.331C501.669 305.575 501.522 305.951 501.431 306.176C501.359 306.42 501.197 306.829 501.07 307.111C500.87 307.654 500.634 308.239 500.343 308.989C500.253 309.232 500.056 309.963 499.875 310.638C499.711 311.313 499.492 312.006 499.401 312.175C499.31 312.362 499.237 312.72 499.237 312.964C499.237 313.227 499.163 313.468 499.073 313.525C498.982 313.581 498.874 313.902 498.819 314.239C498.656 315.271 498.495 315.962 498.332 316.356C498.241 316.562 498.128 317.032 498.074 317.388C498.038 317.744 497.857 318.795 497.694 319.733C496.17 328.341 495.968 339.444 497.221 348.052C497.493 349.927 497.968 352.683 498.168 353.583C498.258 354.052 498.419 354.763 498.51 355.176C498.691 356.057 498.875 356.753 499.42 358.553C499.637 359.266 499.907 360.238 500.053 360.707C500.18 361.176 500.542 362.227 500.868 363.052C501.177 363.877 501.558 364.91 501.703 365.36C502.211 366.841 506.132 375.109 506.368 375.147C506.677 375.222 508.147 375.375 510.035 375.544C512.576 375.769 514.464 375.954 517.204 376.272C521.378 376.779 524.737 377.154 528.185 377.51C531.615 377.867 532.972 378.036 538.163 378.711C539.614 378.898 541.341 379.106 545.243 379.538C546.749 379.707 548.582 379.93 549.326 380.042C550.071 380.136 551.322 380.304 552.102 380.397C553.627 380.604 555.821 380.906 557.672 381.149C558.326 381.243 559.998 381.429 561.395 381.598C564.208 381.917 566.348 382.2 568.344 382.462C574.042 383.25 575.132 383.4 576.638 383.588C577.437 383.682 578.345 383.793 578.636 383.85C578.944 383.925 580.031 384.055 581.083 384.167C582.136 384.28 583.48 384.447 584.079 384.522C584.678 384.616 585.857 384.788 586.71 384.901C588.289 385.126 589.687 385.311 591.792 385.629C592.446 385.723 594.152 385.951 595.604 386.12C597.056 386.289 598.763 386.512 599.416 386.606C600.07 386.699 601.213 386.848 601.958 386.961C602.702 387.073 603.841 387.241 604.494 387.334C605.147 387.428 606.291 387.582 607.035 387.694C607.779 387.788 608.653 387.918 608.944 387.974C609.252 388.031 610.632 388.198 612.029 388.367C613.426 388.517 614.985 388.745 615.475 388.839C615.983 388.932 616.747 389.063 617.201 389.119C617.654 389.175 618.545 389.306 619.198 389.399C619.851 389.493 620.903 389.661 621.556 389.754C622.21 389.848 623.388 390.039 624.187 390.151C624.985 390.283 625.928 390.394 626.273 390.413L626.911 390.432L627 209L594.878 209ZM287.733 264.712C286.595 264.71 285.837 264.727 285.796 264.768C285.742 264.825 284.799 264.974 283.71 265.067C280.679 265.349 279.955 265.445 279.556 265.633C279.356 265.726 278.867 265.838 278.468 265.894C277.288 266.044 276.486 266.211 276.105 266.38C275.905 266.474 275.508 266.59 275.2 266.665C274.909 266.721 274.182 266.889 273.62 267.001C273.057 267.133 272.529 267.281 272.457 267.356C272.384 267.45 272.131 267.506 271.913 267.506C271.677 267.506 271.442 267.58 271.388 267.693C271.333 267.786 271.114 267.879 270.914 267.879C270.733 267.879 270.425 267.959 270.244 268.052C269.754 268.315 269.121 268.574 267.942 269.005C266.707 269.455 266.252 269.665 263.947 270.79C263.057 271.221 262.042 271.691 261.734 271.841C261.407 271.991 261.133 272.158 261.133 272.233C261.133 272.327 260.972 272.383 260.772 272.383C260.573 272.383 260.407 272.457 260.407 272.551C260.407 272.645 260.261 272.756 260.097 272.813C259.916 272.888 259.285 273.227 258.686 273.602C258.087 273.958 257.452 274.312 257.289 274.368C257.107 274.443 256.96 274.559 256.96 274.653C256.96 274.747 256.834 274.821 256.689 274.821C256.543 274.821 256.417 274.896 256.417 275.008C256.417 275.102 256.324 275.195 256.234 275.195C256.125 275.195 255.273 275.758 254.311 276.452C253.35 277.164 252.367 277.857 252.131 278.026C251.895 278.195 251.479 278.534 251.189 278.778C250.916 279.041 250.534 279.357 250.317 279.507C248.248 281.026 241.607 287.89 240.283 289.896C240.137 290.121 239.81 290.554 239.556 290.873C239.302 291.191 238.94 291.642 238.74 291.886C238.559 292.13 237.939 293.046 237.394 293.928C236.832 294.809 236.309 295.563 236.236 295.6C236.164 295.638 236.091 295.749 236.091 295.862C236.091 295.955 235.852 296.388 235.58 296.819C235.289 297.251 234.82 298.074 234.53 298.637C234.239 299.199 233.965 299.706 233.911 299.762C233.657 300.006 230.464 306.941 230.464 307.26C230.464 307.373 230.391 307.6 230.3 307.788C230.137 308.126 229.79 308.949 229.536 309.643C229.445 309.886 229.303 310.263 229.213 310.488C229.122 310.732 228.92 311.425 228.739 312.044C228.576 312.663 228.374 313.319 228.265 313.487C228.175 313.675 228.106 314.033 228.106 314.277C228.106 314.539 228.032 314.8 227.923 314.856C227.832 314.912 227.74 315.215 227.74 315.515C227.74 315.815 227.671 316.112 227.562 316.169C227.471 316.225 227.379 316.565 227.379 316.921C227.379 317.277 227.306 317.593 227.215 317.65C227.124 317.706 227.016 318.027 226.962 318.364C226.908 318.702 226.727 319.828 226.563 320.859C225.62 326.691 225.49 328.323 225.49 335.299C225.49 341.243 225.618 343.551 226.09 346.739C226.725 350.827 226.998 352.308 227.361 353.583C227.633 354.577 227.888 355.477 228.087 356.208C228.45 357.596 229.177 359.9 229.522 360.8C231.01 364.645 232.64 368.23 233.911 370.368C234.31 371.043 234.637 371.643 234.637 371.68C234.637 371.736 234.858 372.127 235.13 372.54L235.617 373.311L237.343 373.198C238.305 373.123 240.554 372.989 242.35 372.876C245.962 372.67 250.081 372.41 253.964 372.147C263.093 371.528 267.993 371.227 271.35 371.096C274.363 370.965 274.384 370.967 274.384 370.536C274.384 370.273 274.165 369.953 273.802 369.69C268.775 366.108 265.908 362.694 263.15 356.993C261.444 353.486 260.591 350.974 259.521 346.267C259.049 344.223 258.522 338.411 258.522 335.298C258.522 332.804 258.758 328.901 258.958 328.076C259.049 327.72 259.191 326.748 259.3 325.923C259.391 325.098 259.571 323.991 259.68 323.484C259.789 322.959 259.935 322.266 259.989 321.929C260.044 321.591 260.152 321.27 260.243 321.214C260.333 321.158 260.407 320.879 260.407 320.579C260.407 320.279 260.499 319.976 260.59 319.92C260.698 319.864 260.772 319.603 260.772 319.359C260.772 319.115 260.86 318.85 260.951 318.794C261.059 318.738 261.133 318.515 261.133 318.29C261.133 318.083 261.261 317.613 261.424 317.238C261.587 316.845 261.788 316.375 261.86 316.169C262.368 314.8 263.948 311.481 264.402 310.824C264.601 310.524 264.763 310.245 264.763 310.189C264.763 310.077 265.943 308.164 266.343 307.638C268.865 304.319 271.005 302.104 273.455 300.36C274.109 299.873 274.69 299.44 274.745 299.384C274.926 299.178 278.137 297.475 279.462 296.894C279.807 296.744 280.68 296.423 281.37 296.198C282.078 295.954 282.802 295.712 283.002 295.619C283.201 295.544 283.621 295.427 283.911 295.352C284.22 295.296 284.817 295.166 285.271 295.053C290.552 293.891 295.69 294.322 301.588 296.385C303.294 296.985 306.161 298.505 308.176 299.893C313.584 303.606 317.536 308.837 320.404 316.075C321.42 318.644 321.586 319.19 322.312 322.115C322.403 322.509 322.564 323.184 322.673 323.615C323.617 327.478 324.069 333.795 323.761 338.746C323.579 341.859 323.474 342.853 323.039 345.328C322.93 345.891 322.803 346.663 322.748 347.019C322.676 347.376 322.568 347.845 322.495 348.052C322.404 348.258 322.203 349.063 322.021 349.832C321.84 350.6 321.62 351.312 321.548 351.425C321.457 351.518 321.384 351.746 321.384 351.934C321.384 352.121 321.315 352.419 321.224 352.606C321.006 353.038 320.423 354.406 320.005 355.456C319.243 357.35 317.211 361.029 316.085 362.491C314.162 365.004 313.129 366.145 311.659 367.364C311.169 367.758 310.734 368.153 310.679 368.209C310.625 368.284 310.444 368.377 310.281 368.452C310.099 368.508 309.952 368.755 309.952 368.98V369.372L316.085 369.26C328.444 369.054 344.235 368.807 346.722 368.788L349.263 368.769L349.933 367.457C350.296 366.725 350.604 366.032 350.604 365.901C350.604 365.77 350.765 365.472 350.965 365.21C351.165 364.947 351.331 364.589 351.331 364.401C351.331 364.233 351.423 364.084 351.514 364.084C351.622 364.084 351.692 363.953 351.692 363.804C351.692 363.654 351.765 363.37 351.856 363.182C351.947 363.013 352.235 362.227 352.508 361.458C353.034 359.939 353.271 359.302 353.525 358.796C353.616 358.608 353.689 358.287 353.689 358.1C353.689 357.893 353.781 357.67 353.872 357.614C353.981 357.558 354.05 357.33 354.05 357.123C354.05 356.936 354.124 356.619 354.214 356.432C354.469 355.907 355.449 351.705 355.63 350.298C355.685 349.886 355.793 349.476 355.884 349.364C355.974 349.27 356.048 348.8 356.048 348.313C356.048 347.825 356.121 347.374 356.212 347.318C356.285 347.262 356.411 346.606 356.465 345.856C356.538 345.105 356.665 343.51 356.756 342.329C356.992 339.534 356.992 330.851 356.775 328.076C356.503 324.663 356.139 322.171 355.34 318.326C354.705 315.232 353.053 309.829 351.946 307.166C351.583 306.341 351.167 305.332 351.003 304.919C350.513 303.7 348.244 299.197 347.463 297.884C347.064 297.209 346.649 296.497 346.54 296.291C346.14 295.541 344.001 292.334 343.093 291.134C336.415 282.264 328.249 275.477 318.848 270.939C315.89 269.495 315.814 269.455 314.398 268.911C312.384 268.124 309.952 267.301 308.772 267.001C308.173 266.851 307.357 266.641 306.957 266.547C306.558 266.435 305.888 266.286 305.471 266.174C305.035 266.08 304.311 265.912 303.839 265.8C302.75 265.556 301.223 265.31 299.244 265.048C297.992 264.893 291.146 264.719 287.733 264.712ZM440.548 266.259C438.588 266.207 436.692 266.193 436.628 266.268C436.574 266.324 435.464 266.455 434.176 266.549C430.873 266.83 428.622 267.113 428.132 267.319C427.896 267.432 427.48 267.506 427.19 267.506C426.899 267.506 426.606 267.581 426.552 267.693C426.498 267.787 426.175 267.88 425.83 267.88C425.485 267.88 425.158 267.959 425.103 268.071C425.049 268.165 424.829 268.258 424.63 268.258C424.448 268.258 424.141 268.333 423.959 268.426C423.796 268.52 423.161 268.743 422.562 268.912C421.963 269.1 421.4 269.309 421.291 269.403C421.201 269.496 420.98 269.571 420.799 269.571C420.636 269.571 420.201 269.738 419.838 269.945C419.475 270.151 419.078 270.318 418.933 270.318C418.788 270.318 418.661 270.393 418.661 270.505C418.661 270.599 418.553 270.697 418.408 270.697C418.045 270.697 415.373 272.141 413.794 273.191C413.068 273.679 412.451 274.069 412.397 274.069C412.324 274.069 411.836 274.465 411.328 274.915C411.219 275.027 410.672 275.441 410.146 275.854C408.767 276.885 406.572 278.983 405.139 280.633C403.868 282.096 401.238 285.882 401.238 286.22C401.238 286.332 401.165 286.449 401.092 286.486C401.001 286.505 400.673 287.124 400.347 287.818C400.002 288.549 399.678 289.037 399.587 288.943C399.32 281.553 399.334 267.978 399.334 267.978H367.211L367.338 368.677C367.465 368.714 374.632 368.845 383.27 368.957C391.909 369.07 399.388 369.186 399.878 369.205L400.783 369.242L400.876 348.893C400.985 328.902 401.072 325.752 401.598 324.064C401.707 323.764 401.781 323.275 401.781 322.994C401.781 322.713 401.874 322.415 401.964 322.359C402.073 322.303 402.147 322.061 402.147 321.854C402.147 321.46 402.397 320.521 402.705 319.733C402.778 319.527 402.982 318.964 403.127 318.477C403.635 316.864 405.758 312.513 406.32 311.951C406.375 311.894 406.865 311.22 407.446 310.451C408.607 308.857 410.82 306.587 412.308 305.481C412.852 305.068 413.345 304.673 413.363 304.598C413.399 304.504 413.541 304.448 413.686 304.448C413.832 304.448 413.939 304.355 413.939 304.261C413.939 304.149 414.052 304.075 414.197 304.075C414.343 304.075 414.485 304 414.521 303.925C414.557 303.794 418.096 301.956 419.294 301.431C420.056 301.112 421.419 300.697 421.746 300.697C421.928 300.697 422.142 300.604 422.196 300.51C422.251 300.398 422.578 300.323 422.923 300.323C423.268 300.323 423.595 300.23 423.65 300.137C423.704 300.024 424.066 299.95 424.447 299.95C424.81 299.95 425.191 299.875 425.281 299.782C425.39 299.688 425.884 299.558 426.374 299.52C426.882 299.464 428.261 299.31 429.459 299.16C433.506 298.729 439.274 298.994 444.229 299.875C444.809 299.969 445.049 299.932 445.176 299.744L445.335 266.609L444.848 266.474C444.53 266.399 442.508 266.31 440.548 266.259ZM39 267.88C39 267.88 63.7992 353.745 74.3906 392.212C74.5176 392.681 74.645 393.169 74.6813 393.3C74.7539 393.582 76.022 393.526 77.8368 393.17C78.3812 393.057 79.5779 392.871 80.4672 392.758C81.3746 392.646 82.2497 392.474 82.413 392.38C82.5945 392.286 83.1374 392.212 83.6274 392.212C84.1355 392.212 84.5904 392.119 84.6448 392.025C84.6993 391.913 85.1529 391.838 85.6248 391.838C86.0966 391.838 86.5468 391.764 86.6375 391.67C86.7464 391.576 87.24 391.446 87.73 391.39C88.2382 391.352 89.0892 391.217 89.6336 391.105C90.1781 391.011 91.5409 390.788 92.6297 390.619C93.7368 390.45 95.0767 390.227 95.6212 390.152C96.1656 390.058 97.0741 389.923 97.6186 389.867C98.163 389.792 98.7787 389.68 98.9783 389.587C99.1779 389.493 99.7983 389.381 100.343 389.306C100.887 389.25 101.796 389.12 102.34 389.026C104.681 388.614 105.443 388.499 107.24 388.293C108.292 388.161 109.29 387.975 109.453 387.882C109.634 387.788 110.269 387.713 110.85 387.713C111.449 387.713 111.991 387.62 112.046 387.527C112.1 387.414 112.373 387.335 112.627 387.335L134.786 313.021L155.206 381.468C155.714 381.411 156.89 381.262 157.78 381.15C158.687 381.038 159.992 380.865 160.682 380.772C161.39 380.678 162.7 380.51 163.589 380.398C167.092 379.948 167.871 379.857 170.847 379.557C172.553 379.388 174.548 379.16 175.292 379.085C176.036 378.991 177.434 378.824 178.377 378.711C179.321 378.618 180.812 378.431 181.702 378.338C185.676 377.869 186.453 377.792 189.447 377.492C200.191 376.48 199.214 376.086 199.214 376.086C199.214 376.086 218.916 300.17 230.282 267.88L197.723 268.001L175.639 356.564L149.687 268.011L120.612 267.978L94.4443 357.391C94.4443 357.391 79.9852 295.145 73.2653 268.109L39 267.88ZM560.195 294.4C560.34 294.25 564.514 294.455 565.929 294.699C569.995 295.355 572.663 296.216 575.893 297.903C579.232 299.647 581.759 301.561 584.3 304.28C587.058 307.224 589.522 311.257 591.319 315.739C592.135 317.765 593.152 320.953 593.424 322.265C593.533 322.828 593.718 323.67 593.809 324.139C594.008 325.039 594.205 326.335 594.549 328.735C594.84 330.761 594.84 340.267 594.549 342.33C594.422 343.211 594.28 344.299 594.226 344.768C594.171 345.237 594.063 345.781 593.973 345.987C593.882 346.194 593.769 346.663 593.715 347.02C593.552 348.351 592.844 350.939 592.318 352.214C592.227 352.458 592.065 352.867 591.956 353.149C591.848 353.449 591.682 353.825 591.591 353.994C591.5 354.182 591.431 354.405 591.431 354.517C591.431 354.874 589.758 358.325 588.942 359.637C588.506 360.331 588.163 360.987 588.163 361.062C588.163 361.156 588.091 361.272 588.018 361.31C587.946 361.329 587.492 361.91 587.038 362.585C585.786 364.404 581.592 368.77 581.083 368.77C580.993 368.77 580.905 368.845 580.905 368.92C580.905 368.995 580.504 369.316 579.996 369.616C579.506 369.935 579.091 370.237 579.091 370.312C579.091 370.406 578.998 370.461 578.889 370.461C578.78 370.461 578.345 370.703 577.909 371.022C577.474 371.322 577.073 371.583 577.018 371.583C576.946 371.583 576.494 371.792 575.968 372.054C575.46 372.317 574.914 372.521 574.786 372.521C574.659 372.521 574.552 372.596 574.552 372.708C574.552 372.802 574.351 372.895 574.097 372.895C573.843 372.895 573.642 372.974 573.642 373.087C573.642 373.18 573.482 373.273 573.3 373.273C573.1 373.273 572.881 373.348 572.826 373.46C572.772 373.554 572.557 373.647 572.358 373.647C572.176 373.647 571.864 373.721 571.682 373.815C571.265 374.059 568.943 374.586 568.344 374.586C568.072 374.586 567.817 374.66 567.763 374.754C567.527 375.148 561.123 375.391 558.854 375.09C550.706 374.003 543.775 370.291 538.857 364.365C535.3 360.07 532.249 353.675 530.797 347.487C530.107 344.542 529.653 339.743 529.653 335.299C529.653 330.667 529.964 327.235 530.726 323.578C530.89 322.809 531.07 321.888 531.125 321.55C531.179 321.213 531.287 320.897 531.378 320.84C531.469 320.784 531.542 320.537 531.542 320.294C531.542 320.05 531.63 319.789 531.72 319.733C531.829 319.677 531.903 319.379 531.903 319.098C531.903 318.817 531.976 318.514 532.049 318.402C532.121 318.308 532.341 317.764 532.522 317.201C533.012 315.701 535.334 310.658 535.715 310.264C535.77 310.208 535.931 309.943 536.076 309.661C536.857 308.199 538.762 305.8 540.704 303.794C543.063 301.356 543.226 301.206 544.896 300.005C546.384 298.936 551.194 296.442 552.065 296.291C552.446 296.216 552.813 296.086 552.885 295.993C552.94 295.899 553.209 295.824 553.5 295.824C553.79 295.824 554.083 295.731 554.137 295.638C554.192 295.525 554.479 295.446 554.751 295.446C555.024 295.446 555.313 295.372 555.422 295.278C555.585 295.109 556.023 295.036 558.563 294.699C559.398 294.605 560.141 294.456 560.195 294.4ZM490.891 403.634V443.991L499.021 443.916C503.576 443.86 507.569 443.744 508.131 443.631C510.726 443.125 511.889 442.751 513.486 441.889C515.537 440.801 516.024 440.502 516.079 440.352C516.115 440.277 516.223 440.221 516.332 440.221C516.423 440.221 516.603 440.109 516.73 439.978C516.857 439.866 517.296 439.507 517.678 439.189C518.803 438.307 521.199 435.607 521.199 435.232C521.199 435.157 521.326 434.952 521.471 434.783C521.834 434.371 522.83 432.346 522.83 432.027C522.83 431.896 522.923 431.78 523.013 431.78C523.122 431.78 523.192 431.612 523.192 431.425C523.192 431.218 523.284 430.995 523.374 430.939C523.483 430.883 523.557 430.58 523.557 430.299C523.557 430.017 523.63 429.72 523.703 429.626C524.338 428.895 524.629 421.356 524.139 419.218C523.232 415.411 521.723 412.505 519.31 409.88C516.987 407.348 513.247 405.131 510.035 404.363C509.636 404.269 508.912 404.101 508.404 403.989C507.859 403.858 504.208 403.765 499.2 403.709L490.891 403.634ZM197.709 403.662V410.501C198.724 410.976 199.694 411.526 200.602 412.173C202.078 413.225 203.384 414.506 204.503 415.943V410.062H212.127C220.247 410.062 225.551 415.835 225.551 423.721C225.551 431.607 220.247 437.264 212.127 437.264H206.144C204.724 439.839 202.74 442.024 200.367 443.664H212.127C224.279 443.664 232.678 434.92 232.678 423.604C232.678 412.287 224.279 403.662 212.127 403.662H197.709ZM449.447 403.727V443.986L452.982 444.103L453.076 425.609L476.506 425.725L476.759 444.084H480.388V403.764H476.759L476.665 422.049L453.24 421.937L452.982 403.764L449.447 403.727ZM495.725 407.072C496.528 407.051 497.86 407.067 500.001 407.105C502.923 407.142 505.842 407.273 506.495 407.366C508.219 407.648 509.184 407.888 510.363 408.338C514.791 410.063 518.313 413.797 519.783 418.354C520.436 420.36 520.524 421.128 520.524 423.997C520.504 426.885 520.378 428.331 520.088 428.519C519.997 428.575 519.928 428.78 519.928 428.986C519.928 429.174 519.855 429.495 519.764 429.682C519.691 429.851 519.292 430.693 518.911 431.537C518.53 432.399 518.149 433.092 518.076 433.092C517.985 433.092 517.931 433.167 517.931 433.279C517.931 434.048 513.538 438.156 512.721 438.156C512.594 438.156 512.487 438.212 512.487 438.306C512.487 438.381 512.214 438.553 511.905 438.684C511.579 438.834 511.124 439.02 510.907 439.114C510.671 439.208 510.309 439.356 510.091 439.469C508.385 440.219 503.756 440.651 498.421 440.557L494.609 440.501V407.254C494.645 407.151 494.922 407.093 495.725 407.072ZM190.981 412.248C188.931 412.248 186.902 412.65 185.009 413.431C183.116 414.213 181.396 415.358 179.947 416.802C178.498 418.245 177.348 419.959 176.564 421.845C175.78 423.732 175.377 425.753 175.377 427.795C175.377 429.836 175.78 431.858 176.564 433.744C177.348 435.631 178.498 437.344 179.947 438.788C181.396 440.232 183.116 441.377 185.009 442.158C186.902 442.939 188.931 443.342 190.981 443.342C193.03 443.342 195.059 442.939 196.952 442.158C198.845 441.377 200.565 440.232 202.014 438.788C203.463 437.344 204.613 435.631 205.397 433.744C206.181 431.858 206.585 429.836 206.585 427.795C206.585 425.753 206.181 423.732 205.397 421.845C204.613 419.959 203.463 418.245 202.014 416.802C200.565 415.358 198.845 414.213 196.952 413.431C195.059 412.65 193.03 412.248 190.981 412.248ZM288.159 413.514C279.604 413.514 273.319 420.558 273.319 428.991C273.319 437.425 279.605 444.29 288.108 444.29C293.682 444.29 296.986 441.997 299.811 438.764L295.854 434.737C293.796 436.922 291.523 438.432 288.431 438.432C283.394 438.432 279.879 434.186 279.879 428.879C279.879 423.683 283.339 419.438 288.108 419.438C291.409 419.438 293.526 420.947 295.525 423.119L299.595 418.601C296.936 415.576 293.583 413.514 288.159 413.514ZM316.662 413.519C314.455 413.519 312.417 413.935 310.562 414.757C308.703 415.571 307.098 416.681 305.742 418.083C304.386 419.481 303.32 421.106 302.544 422.965C301.767 424.823 301.382 426.816 301.382 428.949V429.056C301.382 431.15 301.757 433.111 302.516 434.98C303.274 436.837 304.339 438.458 305.691 439.843C307.037 441.216 308.657 442.31 310.506 443.113C312.37 443.907 314.383 444.309 316.554 444.309C318.752 444.309 320.795 443.897 322.682 443.075C324.547 442.26 326.165 441.157 327.526 439.759C328.876 438.366 329.947 436.732 330.719 434.868C331.495 433.003 331.877 431.027 331.877 428.949V428.827C331.877 426.711 331.501 424.725 330.752 422.88C329.989 421.032 328.928 419.416 327.573 418.022C326.221 416.62 324.612 415.534 322.758 414.724C320.899 413.937 318.856 413.519 316.662 413.519ZM376.129 413.519C374.066 413.519 372.186 413.938 370.489 414.724C368.792 415.534 367.325 416.62 366.077 418.022C364.833 419.416 363.864 421.049 363.179 422.913C362.504 424.772 362.138 426.768 362.138 428.883V429C362.138 431.276 362.52 433.358 363.287 435.232C364.039 437.116 365.079 438.722 366.4 440.062C367.721 441.406 369.282 442.446 371.061 443.187C372.854 443.931 374.774 444.309 376.828 444.309C379.465 444.309 381.737 443.807 383.627 442.8C385.526 441.797 387.162 440.456 388.536 438.782L384.682 435.265C383.529 436.415 382.36 437.294 381.17 437.881C379.979 438.477 378.565 438.782 376.941 438.782C374.81 438.782 372.991 438.129 371.492 436.853C369.998 435.565 369.069 433.718 368.702 431.294H389.727C389.765 430.956 389.787 430.628 389.806 430.308C389.826 430.003 389.83 429.693 389.83 429.393C389.83 427.276 389.541 425.25 388.972 423.334C388.389 421.405 387.536 419.719 386.398 418.274C385.251 416.822 383.824 415.672 382.113 414.808C380.397 413.947 378.395 413.519 376.129 413.519ZM259.216 413.645C257.807 413.645 256.484 413.849 255.235 414.257C253.983 414.665 252.905 415.259 251.976 416.041C251.059 416.818 250.342 417.762 249.815 418.863C249.293 419.966 249.032 421.217 249.032 422.628V422.745C249.032 424.166 249.303 425.348 249.843 426.319C250.385 427.282 251.082 428.097 251.929 428.748C252.781 429.401 253.729 429.928 254.799 430.336C255.867 430.758 256.922 431.109 257.973 431.406C258.802 431.668 259.602 431.921 260.383 432.167C261.156 432.402 261.839 432.688 262.442 432.999C263.035 433.316 263.505 433.675 263.844 434.083C264.197 434.496 264.359 434.981 264.359 435.531V435.652C264.359 436.611 263.968 437.387 263.197 437.969C262.415 438.542 261.327 438.834 259.924 438.834C258.432 438.834 256.896 438.524 255.291 437.909C253.681 437.297 252.099 436.387 250.542 435.199L247.621 439.787C249.428 441.237 251.385 442.332 253.5 443.075C255.609 443.823 257.699 444.197 259.755 444.197C261.239 444.197 262.624 444.001 263.928 443.613C265.227 443.214 266.358 442.648 267.318 441.875C268.274 441.114 269.021 440.163 269.564 439.002C270.104 437.852 270.375 436.486 270.375 434.919V434.816C270.375 433.482 270.104 432.328 269.564 431.406C269.021 430.474 268.325 429.684 267.477 429.023C266.626 428.379 265.682 427.828 264.631 427.379C263.577 426.929 262.54 426.545 261.495 426.211C260.656 425.916 259.861 425.622 259.08 425.375C258.298 425.113 257.615 424.822 257.021 424.501C256.423 424.185 255.954 423.829 255.587 423.441C255.219 423.053 255.043 422.59 255.043 422.067V421.96C255.043 421.105 255.392 420.393 256.098 419.839C256.798 419.28 257.785 418.994 259.047 418.994C260.246 418.994 261.545 419.251 262.948 419.755C264.36 420.262 265.756 420.942 267.13 421.797L269.733 416.985C268.211 415.946 266.537 415.135 264.688 414.532C262.846 413.936 261.018 413.645 259.216 413.645ZM414.361 414.14L424.991 443.43L424.902 443.627C424.902 443.627 422.76 449.602 420.827 451.059C419.333 451.845 415.846 451.787 414.525 451.69V457.207C416.83 457.207 422.256 457.356 423.997 456.216C426.2 454.802 426.684 454.18 428.184 451.04C429.813 447.622 442.348 414.14 442.348 414.14H435.526L428.198 435.764L421.343 414.14L414.361 414.14ZM236.597 414.145V443.631H243.162V414.145H236.597ZM332.154 414.145L343.908 443.865H349.812L361.519 414.145H354.641L346.89 435.821L339.196 414.145H332.154ZM394.734 414.145V443.631H401.289V432.41C401.289 430.436 401.472 428.698 401.988 427.276C403.959 421.906 409.473 420.378 412.317 419.947L410.071 414.299C407.776 414.701 403.753 415.847 401.289 419.013V414.145H394.734ZM376.068 419.059C377.163 419.059 378.127 419.253 378.975 419.643C379.814 420.041 380.548 420.589 381.17 421.292C381.777 422.003 382.271 422.821 382.623 423.782C382.994 424.724 383.22 425.033 383.331 426.118H368.651C368.945 423.803 369.75 422.647 371.061 421.203C372.382 419.776 374.044 419.059 376.068 419.059ZM316.554 419.452C317.848 419.452 319.039 419.694 320.108 420.199C321.167 420.704 322.088 421.389 322.865 422.25C323.641 423.105 324.242 424.104 324.675 425.263C325.114 426.409 325.332 427.648 325.332 428.949V429.056C325.332 430.325 325.127 431.523 324.731 432.663C324.327 433.795 323.754 434.792 322.997 435.652C322.243 436.507 321.333 437.181 320.263 437.689C319.199 438.19 317.996 438.437 316.662 438.437C315.397 438.437 314.229 438.19 313.16 437.689C312.101 437.181 311.175 436.504 310.403 435.62C309.627 434.75 309.017 433.726 308.583 432.574C308.147 431.424 307.932 430.215 307.932 428.949V428.827C307.932 427.538 308.141 426.305 308.537 425.174C308.932 424.033 309.504 423.052 310.267 422.208C311.024 421.378 311.935 420.704 313.005 420.199C314.069 419.694 315.249 419.452 316.554 419.452Z" fill="black"/>
</svg>
