<svg width="100" height="100" viewBox="0 0 667 667" fill="none" xmlns="http://www.w3.org/2000/svg">
<path d="M58.5293 272.26C44.3258 273.307 30.6131 279.608 20.7209 289.81C10.4727 300.075 4.45343 314.07 3.16736 328.417V337.104C4.29975 353.561 12.2513 369.546 25.3062 379.827C34.972 387.694 47.1787 392.024 59.5542 393.031H67.4097C78.8631 392.185 90.0988 388.359 99.3117 381.467L99.3591 353.32H93.6777C90.4908 358.135 86.8215 362.809 81.8471 365.916C75.1336 370.232 66.7947 371.149 58.9973 370.327C47.5601 369.096 36.8766 362.361 30.9638 352.53C24.6952 342.353 23.6812 329.258 28.138 318.204C32.0205 308.349 40.184 300.181 50.2057 296.55C59.2164 293.176 69.4604 293.66 78.2688 297.452L95.8223 292.375L89.0865 280.121C88.4798 279.187 88.0532 277.984 86.9774 277.485C80.3529 274.449 73.1286 272.856 65.8813 272.26H58.5293ZM465.074 309.547L447.313 311.375L447.165 326.825H438.977V340.86H447.165V374.52C447.174 379.101 447.828 384.083 451.039 387.617C454.08 391.063 458.748 392.363 463.148 393.031H472.692C476.187 392.58 479.672 391.963 483.012 390.819L482.988 377.309C478.467 378.251 473.703 379.74 469.125 378.371C466.23 377.397 465.116 374.133 465.044 371.348L465.091 340.86L481.057 340.848L481.038 326.813L464.978 326.783L465.074 309.547ZM552.373 324.861C544.721 324.852 536.498 325.297 529.914 329.62C524.341 333.235 521.517 339.843 521.04 346.268C520.546 352.974 520.876 359.707 520.779 366.429C520.723 373.185 521.837 380.529 526.674 385.642C531.454 390.819 538.726 392.363 545.471 393.031H556.87C563.268 392.395 570.07 391.024 574.915 386.491C579.986 381.821 581.689 374.672 581.722 368.022C581.746 361.597 581.818 355.175 581.68 348.75C581.519 342.043 579.324 334.891 573.848 330.599C567.822 325.841 559.79 325.014 552.373 324.861ZM623.179 324.874C617.404 324.725 611.538 325.345 605.893 325.953C601.12 326.532 596.4 327.394 591.692 328.288L591.698 391.533L609.518 391.509L609.601 340.76C615.328 339.777 621.467 338.28 627.113 340.406C630.777 341.807 632.521 345.848 632.48 349.552L632.534 391.533L650.253 391.539V342.181C649.266 336.263 645.5 330.909 639.951 328.429C634.645 325.945 628.955 325.022 623.179 324.874ZM406.779 324.886C398.998 324.805 390.573 325.402 384.054 330.104C381.013 332.262 378.795 335.375 377.348 338.773L393.467 344.133C394.842 341.452 397.249 339.258 400.363 338.944C404.149 338.541 408.607 338.035 411.827 340.507C415.014 343.357 414.482 348.022 414.587 351.87C404.727 352.152 394.479 350.876 385.008 354.282C379.281 356.239 374.473 361.165 373.592 367.244C372.686 373.717 373.182 381.286 378.189 386.108C383.366 391.004 390.75 392.25 397.585 393.031H410.523C417.876 392.492 425.187 391.347 432.378 389.729L432.396 349.547C432.517 342.929 431.813 335.381 426.596 330.647C421.25 325.856 413.663 325.103 406.779 324.886ZM184.881 326.755L169.561 374.432L154.46 326.849L134.567 326.825L159.3 391.539C166.103 391.587 179.692 391.616 179.692 391.616L204.609 326.831L184.881 326.755ZM510.678 326.779L492.947 326.826L492.953 391.54L510.661 391.599L510.678 326.779ZM241.985 326.909L242.092 376.09C242.245 382.338 245.347 389.142 251.689 391.228C259.381 393.74 267.989 393.08 275.617 390.608L275.552 377.146C271.782 378.063 267.795 379.149 263.928 378.142C260.434 377.055 259.967 372.874 259.87 369.774L259.84 326.826L241.985 326.909ZM109.235 326.827L109.241 391.534H127.031V326.832L109.235 326.827ZM229.876 326.827L211.985 326.833L212.003 391.535H229.87L229.876 326.827ZM283.188 326.827L283.194 391.534H300.996V326.832L283.188 326.827ZM313.484 326.827V340.861L341.802 340.826L310.884 378.048L310.807 391.399L363.965 391.534V377.576L330.333 377.546L361.305 340.471L361.34 326.832L313.484 326.827ZM551.958 339.039C555.196 339.06 558.391 339.729 560.833 341.923C564.626 345.868 563.841 351.762 563.913 356.754C563.695 362.76 564.861 369.379 561.496 374.757C558.892 378.815 553.546 379.167 549.186 378.885C545.805 378.821 542.276 377.283 540.667 374.191C537.892 369.127 538.763 363.17 538.617 357.638C538.738 353.242 538.043 348.583 539.944 344.453C541.052 341.884 543.516 340.069 546.241 339.505C548.058 339.245 550.016 339.026 551.958 339.039ZM414.552 364.42L414.576 377.665C408.178 379.315 401.043 380.107 394.742 377.7C390.722 376.202 389.917 370.652 392.473 367.528C394.268 365.12 397.443 364.466 400.299 364.426C405.047 364.386 409.796 364.428 414.552 364.42Z" fill="black"/>
<path d="M126.854 275.429V282.687C127.967 283.189 129.031 283.773 130.025 284.46C131.641 285.575 133.071 286.934 134.298 288.461V282.214H142.643C151.539 282.214 157.347 288.343 157.347 296.712C157.347 305.08 151.539 311.08 142.643 311.08H136.092C134.537 313.812 132.369 316.136 129.77 317.874H142.643C155.955 317.874 165.155 308.599 165.155 296.591C165.155 284.582 155.955 275.429 142.643 275.429H126.854ZM118.026 284.451C113.712 284.453 109.575 286.2 106.526 289.309C103.476 292.417 101.763 296.633 101.764 301.028C101.766 305.421 103.479 309.634 106.529 312.741C109.578 315.848 113.714 317.594 118.026 317.596C122.341 317.597 126.478 315.851 129.53 312.744C132.581 309.637 134.296 305.423 134.298 301.028C134.298 298.851 133.878 296.695 133.06 294.684C132.242 292.672 131.044 290.845 129.533 289.305C128.022 287.766 126.228 286.545 124.254 285.712C122.279 284.879 120.163 284.451 118.026 284.451ZM227.014 285.416C217.452 285.416 210.433 293.058 210.433 302.216C210.433 311.374 217.449 318.839 226.951 318.839C233.183 318.839 236.876 316.351 240.024 312.834L235.605 308.463C233.306 310.826 230.765 312.463 227.315 312.463C221.686 312.463 217.758 307.859 217.758 302.095C217.758 296.454 221.624 291.848 226.951 291.848C230.642 291.848 233.01 293.482 235.25 295.849L239.787 290.939C236.82 287.664 233.067 285.416 227.014 285.416ZM258.855 285.424C256.394 285.424 254.129 285.87 252.05 286.761C249.975 287.648 248.17 288.852 246.656 290.371C245.143 291.886 243.953 293.659 243.085 295.681C242.216 297.703 241.782 299.864 241.782 302.169V302.289C241.782 304.553 242.21 306.697 243.058 308.721C243.906 310.741 245.087 312.505 246.602 314.003C248.115 315.499 249.905 316.679 251.986 317.548C254.061 318.419 256.317 318.857 258.737 318.857C261.2 318.857 263.477 318.41 265.579 317.521C267.672 316.631 269.487 315.43 270.999 313.91C272.514 312.392 273.7 310.623 274.571 308.601C275.436 306.58 275.873 304.434 275.873 302.169V302.048C275.873 299.741 275.445 297.583 274.598 295.579C273.75 293.579 272.566 291.822 271.054 290.307C269.54 288.787 267.748 287.596 265.67 286.724C263.593 285.854 261.318 285.424 258.855 285.424ZM325.316 285.424C323.013 285.424 320.908 285.854 319.011 286.724C317.113 287.596 315.477 288.787 314.083 290.306C312.69 291.822 311.604 293.593 310.839 295.616C310.072 297.64 309.691 299.802 309.691 302.104V302.233C309.691 304.699 310.118 306.956 310.967 309C311.812 311.043 312.966 312.788 314.438 314.244C315.913 315.699 317.653 316.832 319.649 317.641C321.647 318.445 323.798 318.857 326.099 318.857C329.047 318.857 331.572 318.306 333.688 317.214C335.809 316.122 337.636 314.67 339.173 312.852L334.873 309.027C333.584 310.284 332.277 311.231 330.946 311.877C329.613 312.526 328.032 312.852 326.218 312.852C323.834 312.852 321.81 312.153 320.132 310.754C318.459 309.362 317.422 307.348 317.016 304.721H340.503C340.543 304.356 340.581 303.998 340.603 303.653C340.619 303.309 340.621 302.975 340.621 302.651C340.621 300.347 340.3 298.153 339.655 296.07C339.014 293.987 338.058 292.154 336.786 290.575C335.512 289 333.918 287.749 332.003 286.816C330.086 285.888 327.855 285.424 325.316 285.424ZM194.672 285.545C193.099 285.545 191.61 285.768 190.217 286.214C188.824 286.659 187.611 287.305 186.582 288.154C185.554 289.004 184.751 290.024 184.168 291.217C183.581 292.414 183.284 293.776 183.284 295.31V295.431C183.284 296.969 183.589 298.265 184.195 299.32C184.8 300.369 185.581 301.249 186.528 301.956C187.477 302.666 188.544 303.247 189.734 303.691C190.923 304.136 192.107 304.519 193.278 304.842C194.206 305.126 195.106 305.396 195.975 305.659C196.843 305.922 197.603 306.224 198.271 306.568C198.937 306.911 199.462 307.313 199.847 307.756C200.228 308.202 200.421 308.73 200.421 309.334V309.446C200.421 310.501 199.986 311.344 199.118 311.971C198.252 312.6 197.031 312.908 195.456 312.908C193.8 312.908 192.076 312.575 190.281 311.906C188.483 311.24 186.715 310.255 184.979 308.963L181.708 313.938C183.726 315.515 185.921 316.713 188.286 317.521C190.644 318.332 192.972 318.737 195.274 318.737C196.928 318.737 198.484 318.525 199.938 318.096C201.39 317.672 202.649 317.045 203.719 316.212C204.789 315.384 205.627 314.351 206.234 313.093C206.838 311.842 207.145 310.354 207.145 308.657V308.545C207.145 307.087 206.838 305.849 206.234 304.842C205.627 303.828 204.849 302.97 203.901 302.261C202.954 301.557 201.894 300.957 200.722 300.47C199.55 299.986 198.387 299.563 197.214 299.198C196.286 298.875 195.388 298.563 194.518 298.279C193.65 297.999 192.877 297.685 192.213 297.342C191.546 296.996 191.019 296.617 190.618 296.191C190.212 295.769 190.008 295.273 190.008 294.706V294.585C190.008 293.654 190.404 292.888 191.192 292.283C191.977 291.677 193.08 291.365 194.49 291.365C195.824 291.365 197.272 291.645 198.845 292.191C200.42 292.734 201.976 293.47 203.509 294.4L206.416 289.183C204.72 288.051 202.846 287.157 200.785 286.51C198.729 285.863 196.69 285.545 194.672 285.545ZM368.035 286.083L379.914 317.901L379.814 318.123C379.814 318.123 377.424 324.609 375.259 326.18C373.592 327.035 369.693 326.969 368.217 326.867V332.863C370.795 332.86 376.86 333.024 378.812 331.786C381.262 330.234 381.811 329.565 383.486 326.161C385.31 322.454 399.311 286.083 399.311 286.083H391.685L383.495 309.575L375.842 286.083L368.035 286.083ZM169.4 286.091V318.122H176.725V286.091L169.4 286.091ZM276.174 286.091L289.311 318.373H295.907L308.981 286.091H301.292L292.637 309.639L284.046 286.091L276.174 286.091ZM346.106 286.091V318.122H353.421V305.926C353.421 303.785 353.626 301.901 354.214 300.348C356.419 294.52 362.566 292.866 365.748 292.394L363.233 286.267C360.678 286.708 356.181 287.945 353.421 291.381V286.091L346.106 286.091ZM325.243 291.428C326.456 291.428 327.541 291.638 328.486 292.059C329.434 292.486 330.256 293.09 330.946 293.86C331.627 294.626 332.167 295.522 332.568 296.552C332.973 297.583 333.24 297.921 333.36 299.095H316.952C317.277 296.587 318.177 295.326 319.649 293.767C321.123 292.209 322.984 291.428 325.243 291.428ZM258.737 291.856C260.19 291.856 261.51 292.127 262.7 292.672C263.891 293.219 264.92 293.959 265.788 294.89C266.656 295.821 267.336 296.912 267.82 298.167C268.304 299.419 268.549 300.751 268.549 302.167V302.288C268.549 303.66 268.327 304.972 267.884 306.205C267.437 307.442 266.789 308.514 265.943 309.444C265.096 310.375 264.074 311.118 262.882 311.662C261.692 312.21 260.348 312.489 258.855 312.489C257.442 312.489 256.146 312.209 254.956 311.662C253.764 311.118 252.735 310.365 251.868 309.416C250.998 308.463 250.319 307.368 249.836 306.112C249.353 304.859 249.116 303.544 249.116 302.167V302.046C249.116 300.63 249.335 299.308 249.781 298.074C250.223 296.84 250.867 295.764 251.713 294.853C252.561 293.941 253.58 293.219 254.774 292.672C255.96 292.126 257.284 291.856 258.737 291.856Z" fill="black"/>
</svg>
