<svg width="100" height="100" viewBox="0 0 667 667" fill="none" xmlns="http://www.w3.org/2000/svg">
<g clip-path="url(#clip0_1_2)">
<path d="M343.56 275H171.488C153.904 275 142.6 285.043 140.088 298.851L138.832 307.638H368.68L369.936 301.362C371.192 287.553 366.168 275 343.56 275ZM367.424 320.191L366.168 330.234C364.912 340.277 357.376 347.809 343.56 347.809H294.576L289.552 391.745H250.616L259.408 320.191H367.424ZM135.064 275L131.296 307.638H27.048L30.816 275H135.064ZM25.792 320.191H130.04L126.272 347.809H60.96L59.704 361.617H125.016L121.248 391.745H17L25.792 320.191ZM381.24 275H465.392C479.208 275 493.024 281.277 490.512 302.617V307.638H377.472L381.24 275ZM374.96 320.191H413.896L405.104 391.745H366.168L374.96 320.191ZM449.064 320.191H488L479.208 391.745H440.272L449.064 320.191ZM222.984 320.191H137.576C135.064 339.021 143.856 347.809 157.672 347.809H210.424L209.168 360.362H132.552L128.784 391.745H215.448C217.96 391.745 236.8 391.745 243.08 375.426C245.592 370.404 248.104 351.574 248.104 347.809C250.616 325.213 235.544 320.191 222.984 320.191ZM606.064 275L601.04 321.447H565.872L567.128 308.894L572.152 275H531.96L529.448 302.617L526.936 321.447C524.424 339.021 533.216 347.809 547.032 347.809H597.272L592.248 393H631.184L645 275H606.064Z" fill="black"/>
</g>
<defs>
<clipPath id="clip0_1_2">
<rect width="628" height="118" fill="white" transform="translate(17 275)"/>
</clipPath>
</defs>
</svg>
