<svg width="100" height="100" viewBox="0 0 667 667" fill="none" xmlns="http://www.w3.org/2000/svg">
<g clip-path="url(#clip0_1_2)">
<path d="M81.0517 267.464V304.754H159.986V382.748H81.0517V475.21H0V189H172.22L177.749 267.464H81.0517Z" fill="black"/>
<path d="M409.023 232.996C435.844 260.405 449.372 293.579 449.372 332.281C449.372 371.337 435.962 404.628 409.023 432.037C382.084 459.447 349.734 473.21 311.737 473.21C273.505 473.21 240.92 459.447 214.099 432.037C187.16 404.628 173.749 371.337 173.749 332.281C173.749 293.461 187.16 260.405 214.099 232.878C240.92 205.469 273.505 191.706 311.737 191.706C349.734 191.823 382.202 205.587 409.023 232.996ZM288.445 389.688C288.445 396.041 290.798 401.569 295.503 406.275C300.209 410.98 305.855 413.333 312.561 413.333C319.266 413.333 324.795 410.98 329.383 406.275C333.971 401.569 336.206 396.041 336.206 389.688V273.698C336.206 266.993 333.971 261.347 329.383 256.641C324.795 251.936 319.148 249.583 312.561 249.583C305.855 249.583 300.209 251.936 295.503 256.641C290.798 261.347 288.445 266.993 288.445 273.698V389.688Z" fill="black"/>
<path d="M575.714 476.151L535.012 403.569L495.603 476.151H406.552L491.368 327.694L411.14 189H502.779L536.306 250.877L570.185 189H658.883L580.419 326.87L667 476.151H575.714Z" fill="black"/>
</g>
<defs>
<clipPath id="clip0_1_2">
<rect width="666.667" height="666.667" fill="white"/>
</clipPath>
</defs>
</svg>
