<svg width="100" height="100" viewBox="0 0 667 667" fill="none" xmlns="http://www.w3.org/2000/svg">
<path fill-rule="evenodd" clip-rule="evenodd" d="M517.294 382.554C544.357 382.554 567.275 360.213 567.275 332.293C567.275 304.371 544.357 282.314 517.294 282.314C489.4 282.314 467.049 304.371 467.049 332.293C467.049 360.213 489.4 382.554 517.294 382.554M453.648 332.293C453.648 297.114 482.125 268.646 517.294 268.646C552.48 268.646 580.92 297.114 580.92 332.293C580.92 367.736 552.48 396.241 517.294 396.241C482.125 396.241 453.648 367.736 453.648 332.293ZM364.371 332.293C372.438 331.72 385.573 322.528 390.587 316.947C388.627 323.639 388.627 344.849 390.587 351.56C385.008 343.472 372.437 333.689 364.371 332.293ZM318.592 265.027C328.638 265.027 336.723 274.792 336.723 285.972C336.723 297.114 328.638 306.918 318.592 306.918H283.952V265.026L318.592 265.027ZM318.592 359.082C328.638 359.082 336.723 368.867 336.723 380.028C336.723 391.772 328.638 401.52 318.592 401.52H283.952V359.082H318.592ZM517.294 460.999C587.064 460.999 644 402.933 644 332.293C644 260.54 587.064 205 517.294 205C446.693 205 410.96 256.354 402.328 277.299C402.328 246.305 371.325 209.185 335.328 209.185H218.95V459.889H327.224C371.325 459.889 402.328 422.183 402.328 389.246C412.091 409.628 446.693 461 517.294 461M205.022 459.884H136.909V362.716H92.7892V459.884H23V209.181H92.7892V302.69H136.909V209.181H205.022V459.884Z" fill="black"/>
</svg>
