<svg width="100" height="100" viewBox="0 0 667 667" fill="none" xmlns="http://www.w3.org/2000/svg">
<path d="M574.408 258.506C589.141 252.948 605.776 252.575 620.882 256.939C634.497 260.911 646.488 271.057 651.207 284.634C657.23 302.22 654.284 323.22 641.77 337.356C626.347 354.999 606.112 367.354 588.301 382.33H655.804V411.945H540.232V384.894C559.907 368.631 579.853 352.667 599.379 336.218C606.168 330.045 613.441 323.779 617.152 315.182C620.23 307.573 620.062 297.875 614.486 291.422C608.219 284.317 597.235 283.403 588.768 286.536C579.294 290.247 572.673 298.416 566.295 305.95L542.069 286.256C550.909 275.066 560.737 263.765 574.408 258.506Z" fill="black"/>
<path d="M155.73 433.191H101.71V356.036H66.6477V433.191H11.1873L11 234.322H66.6479V308.293H101.71V234.322H155.73L155.73 433.191ZM403.243 434.127C458.948 434.098 504.28 387.828 504.264 332.111C504.25 275.225 458.945 231.041 403.243 231C347.61 230.957 319.174 271.911 312.161 288.448C312.219 263.628 287.759 234.342 259.15 234.298H166.967V433.118L252.91 433.147C287.569 433.147 312.216 403.126 312.26 377.384C320.168 393.59 347.611 434.141 403.243 434.127ZM245.71 353.227C253.662 353.227 259.928 361.077 259.928 370.023C259.928 378.969 253.662 386.834 245.71 386.834H218.383V353.227H245.71ZM245.811 278.578C253.763 278.578 260.029 286.429 260.029 295.375C260.029 304.32 253.763 312.171 245.811 312.171H218.484V278.578H245.811ZM282.198 332.152C288.465 331.359 298.894 324.2 302.582 319.619C301.285 325.295 301.184 341.703 302.697 347.364C298.505 340.896 288.566 332.944 282.198 332.152ZM352.669 332.152C352.669 304.206 375.329 281.546 403.275 281.546C431.236 281.546 453.895 304.206 453.895 332.152C453.895 360.098 431.236 382.758 403.275 382.758C375.329 382.758 352.669 360.098 352.669 332.152ZM403.275 371.939C425.257 371.939 443.062 354.12 443.062 332.152C443.062 310.183 425.257 292.364 403.275 292.364C381.306 292.364 363.487 310.183 363.487 332.152C363.487 354.12 381.306 371.939 403.275 371.939Z" fill="black"/>
</svg>
