<svg width="100" height="100" viewBox="0 0 667 667" fill="none" xmlns="http://www.w3.org/2000/svg">
<path d="M410.18 373.345C432.037 373.345 450.544 355.307 450.544 332.767C450.544 310.225 432.037 292.417 410.18 292.417C387.655 292.417 369.603 310.225 369.603 332.767C369.603 355.307 387.655 373.345 410.18 373.345ZM358.782 332.768C358.782 304.366 381.78 281.383 410.18 281.383C438.597 281.383 461.564 304.366 461.564 332.768C461.564 361.381 438.597 384.394 410.18 384.394C381.78 384.394 358.782 361.381 358.782 332.768ZM286.683 332.768C293.197 332.305 303.806 324.883 307.854 320.379C306.272 325.781 306.272 342.902 307.854 348.323C303.349 341.792 293.198 333.893 286.683 332.768ZM249.714 278.461C257.826 278.461 264.356 286.345 264.356 295.37C264.356 304.366 257.826 312.281 249.714 312.281H221.739V278.461H249.714ZM249.714 354.394C257.826 354.394 264.356 362.294 264.356 371.306C264.356 380.786 257.826 388.655 249.714 388.655H221.739V354.394H249.714ZM410.18 436.676C466.525 436.676 512.506 389.798 512.506 332.768C512.506 274.839 466.525 230 410.18 230C353.166 230 324.309 271.46 317.337 288.369C317.337 263.347 292.3 233.379 263.229 233.379H169.244V435.777H256.685C292.299 435.777 317.337 405.337 317.337 378.747C325.221 395.199 353.166 436.676 410.18 436.676ZM157.996 435.773H102.99V357.329H67.3606V435.773H11V233.376H67.3606V308.867H102.99V233.376H157.996V435.773Z" fill="black"/>
<path d="M656 355.119H613.448V312.568H595.893V355.119H553.343V372.674H595.893V415.224H613.448V372.674H656V355.119Z" fill="black"/>
</svg>
