<svg width="100" height="100" viewBox="0 0 667 667" fill="none" xmlns="http://www.w3.org/2000/svg">
<g clip-path="url(#clip0_1_2)">
<path d="M324.332 375.58C448.191 375.58 558.92 388.174 632.497 407.96C570.453 374.29 455.675 351.668 324.332 351.668C192.99 351.668 78.2117 374.29 16.1674 407.96C89.7572 388.174 200.487 375.58 324.332 375.58Z" fill="black"/>
<path d="M125.262 463.728C125.262 450.24 125.262 447.762 125.096 444.913C124.917 441.899 124.062 440.391 122.159 439.944C121.214 439.689 120.09 439.6 119.055 439.6C118.187 439.6 117.676 439.421 117.676 438.705C117.676 438.169 118.365 438.003 119.745 438.003C123.027 438.003 128.455 438.258 130.958 438.258C133.117 438.258 138.212 438.003 141.495 438.003C142.606 438.003 143.296 438.169 143.296 438.705C143.296 439.421 142.785 439.6 141.916 439.6C141.06 439.6 140.371 439.689 139.336 439.855C136.999 440.302 136.309 441.809 136.143 444.913C135.965 447.762 135.965 450.24 135.965 463.728V479.35C135.965 487.959 135.965 494.972 136.309 498.791C136.565 501.179 137.178 502.776 139.758 503.134C140.971 503.313 142.874 503.491 144.164 503.491C145.109 503.491 145.543 503.747 145.543 504.194C145.543 504.82 144.854 505.088 143.909 505.088C138.212 505.088 132.772 504.82 130.447 504.82C128.455 504.82 123.027 505.088 119.566 505.088C118.455 505.088 117.842 504.82 117.842 504.194C117.842 503.747 118.187 503.491 119.221 503.491C120.524 503.491 121.558 503.313 122.337 503.134C124.062 502.776 124.572 501.269 124.841 498.702C125.262 494.972 125.262 487.959 125.262 479.35V463.728Z" fill="black"/>
<path d="M216.655 499.136C216.655 501.537 216.579 501.716 215.531 502.329C209.925 505.356 201.47 506.327 194.739 506.327C173.602 506.327 154.879 496.032 154.879 471.545C154.879 457.342 162.044 447.404 169.886 442.525C178.175 437.377 185.85 436.751 193.105 436.751C199.056 436.751 206.655 437.824 208.379 438.169C210.193 438.527 213.207 439.063 215.199 439.152C216.234 439.242 216.4 439.6 216.4 440.213C216.4 441.196 215.8 443.674 215.8 454.774C215.8 456.192 215.531 456.639 214.855 456.639C214.242 456.639 214.076 456.192 213.986 455.477C213.731 453.433 213.296 450.597 211.049 448.119C208.469 445.271 201.559 441.196 191.815 441.196C187.064 441.196 180.767 441.554 174.726 446.701C169.886 450.866 166.782 457.52 166.782 468.429C166.782 487.512 178.609 501.805 196.808 501.805C199.056 501.805 202.083 501.805 204.152 500.822C205.442 500.209 205.787 499.046 205.787 497.539V489.198C205.787 484.766 205.787 481.394 205.697 478.724C205.621 475.71 204.842 474.292 201.994 473.666C201.304 473.487 199.835 473.41 198.622 473.41C197.843 473.41 197.332 473.232 197.332 472.695C197.332 471.98 197.932 471.801 199.146 471.801C203.628 471.801 209.069 472.069 211.649 472.069C214.331 472.069 218.903 471.801 221.751 471.801C222.875 471.801 223.475 471.98 223.475 472.695C223.475 473.232 222.964 473.41 222.351 473.41C221.662 473.41 221.062 473.487 220.027 473.666C217.69 474.113 216.834 475.62 216.745 478.724C216.655 481.394 216.655 484.945 216.655 489.377V499.136Z" fill="black"/>
<path d="M245.608 493.017C245.787 499.941 246.898 502.24 248.635 502.866C250.091 503.402 251.739 503.491 253.118 503.491C254.063 503.491 254.587 503.67 254.587 504.194C254.587 504.909 253.808 505.088 252.595 505.088C246.988 505.088 243.54 504.82 241.905 504.82C241.126 504.82 237.064 505.088 232.582 505.088C231.458 505.088 230.679 504.999 230.679 504.194C230.679 503.67 231.202 503.491 232.058 503.491C233.182 503.491 234.74 503.402 235.94 503.044C238.188 502.329 238.533 499.762 238.622 492.047L239.402 439.51C239.402 437.735 239.657 436.483 240.513 436.483C241.471 436.483 242.25 437.645 243.706 439.242C244.753 440.391 257.856 454.864 270.462 467.726C276.324 473.755 287.972 486.541 289.44 487.959H289.875L289.006 448.119C288.93 442.703 288.151 441.017 286.082 440.123C284.779 439.599 282.71 439.6 281.509 439.6C280.475 439.6 280.13 439.331 280.13 438.795C280.13 438.092 281.075 438.003 282.365 438.003C286.861 438.003 290.999 438.258 292.812 438.258C293.757 438.258 297.04 438.003 301.267 438.003C302.391 438.003 303.247 438.092 303.247 438.795C303.247 439.331 302.736 439.6 301.701 439.6C300.833 439.6 300.143 439.599 299.109 439.855C296.695 440.57 296.005 442.435 295.916 447.404L294.971 503.402C294.971 505.356 294.626 506.148 293.847 506.148C292.902 506.148 291.854 505.178 290.909 504.194C285.469 498.868 274.434 487.244 265.455 478.111C256.056 468.518 246.477 457.431 244.919 455.745H244.663L245.608 493.017Z" fill="black"/>
<path d="M325.967 481.93C325.546 481.93 325.367 482.096 325.201 482.633L320.539 495.317C319.671 497.539 319.237 499.672 319.237 500.732C319.237 502.329 320.016 503.491 322.698 503.491H323.988C325.022 503.491 325.277 503.67 325.277 504.194C325.277 504.909 324.767 505.088 323.809 505.088C321.05 505.088 317.346 504.82 314.664 504.82C313.719 504.82 308.968 505.088 304.485 505.088C303.361 505.088 302.851 504.909 302.851 504.194C302.851 503.67 303.195 503.491 303.885 503.491C304.664 503.491 305.865 503.402 306.554 503.313C310.526 502.776 312.161 499.762 313.885 495.317L335.546 439.6C336.58 437.019 337.104 436.049 337.96 436.049C338.739 436.049 339.262 436.84 340.118 438.884C342.187 443.764 355.993 479.976 361.523 493.464C364.805 501.448 367.309 502.687 369.109 503.134C370.412 503.402 371.702 503.491 372.737 503.491C373.426 503.491 373.86 503.581 373.86 504.194C373.86 504.909 373.081 505.088 369.888 505.088C366.785 505.088 360.489 505.088 353.579 504.909C352.034 504.82 350.999 504.82 350.999 504.194C350.999 503.67 351.344 503.491 352.2 503.402C352.8 503.223 353.413 502.419 352.979 501.358L346.082 482.543C345.904 482.096 345.648 481.93 345.214 481.93H325.967ZM343.579 477.485C344.001 477.485 344.09 477.217 344.001 476.949L336.235 455.03C336.159 454.685 336.069 454.238 335.801 454.238C335.546 454.238 335.38 454.685 335.29 455.03L327.346 476.859C327.27 477.217 327.346 477.485 327.691 477.485H343.579Z" fill="black"/>
<path d="M394.423 442.972L381.574 443.316C376.568 443.495 374.499 443.942 373.196 445.897C372.341 447.225 371.906 448.285 371.728 449.001C371.562 449.716 371.306 450.061 370.783 450.061C370.182 450.061 370.003 449.626 370.003 448.643C370.003 447.225 371.651 439.152 371.817 438.437C372.085 437.287 372.341 436.751 372.852 436.751C373.541 436.751 374.41 437.645 376.568 437.824C379.071 438.092 382.341 438.258 385.202 438.258H419.366C422.124 438.258 424.027 438.003 425.317 437.824C426.62 437.556 427.297 437.377 427.654 437.377C428.255 437.377 428.344 437.913 428.344 439.242C428.344 441.107 428.076 447.225 428.076 449.537C427.999 450.418 427.82 450.955 427.297 450.955C426.62 450.955 426.441 450.508 426.352 449.179L426.262 448.209C426.096 445.897 423.772 443.406 416.083 443.227L405.215 442.972V479.35C405.215 487.512 405.215 494.525 405.649 498.344C405.904 500.822 406.415 502.776 409.008 503.134C410.221 503.313 412.124 503.491 413.414 503.491C414.359 503.491 414.793 503.747 414.793 504.194C414.793 504.82 414.104 505.088 413.146 505.088C407.462 505.088 402.022 504.82 399.608 504.82C397.616 504.82 392.188 505.088 388.739 505.088C387.615 505.088 387.002 504.82 387.002 504.194C387.002 503.747 387.347 503.491 388.382 503.491C389.684 503.491 390.719 503.313 391.498 503.134C393.222 502.776 393.733 500.822 394.001 498.254C394.423 494.525 394.423 487.512 394.423 479.35V442.972Z" fill="black"/>
<path d="M440.541 463.728C440.541 450.24 440.541 447.762 440.362 444.913C440.196 441.899 439.506 440.481 436.658 439.855C435.969 439.689 434.5 439.6 433.287 439.6C432.341 439.6 431.818 439.421 431.818 438.795C431.818 438.169 432.431 438.003 433.721 438.003C438.293 438.003 443.734 438.258 446.313 438.258C448.395 438.258 453.823 438.003 456.927 438.003C458.229 438.003 458.83 438.169 458.83 438.795C458.83 439.421 458.319 439.6 457.45 439.6C456.505 439.6 455.982 439.689 454.947 439.855C452.623 440.302 451.933 441.809 451.754 444.913C451.575 447.762 451.575 450.24 451.575 463.728V476.157C451.575 489.019 454.079 494.435 458.319 497.986C462.201 501.269 466.16 501.627 469.098 501.627C472.891 501.627 477.553 500.375 481.001 496.837C485.752 491.957 486.007 483.961 486.007 474.828V463.728C486.007 450.24 486.007 447.762 485.841 444.913C485.663 441.899 484.973 440.481 482.125 439.855C481.435 439.689 479.967 439.6 479.021 439.6C478.076 439.6 477.553 439.421 477.553 438.795C477.553 438.169 478.153 438.003 479.366 438.003C483.772 438.003 489.2 438.258 489.29 438.258C490.324 438.258 495.765 438.003 499.124 438.003C500.337 438.003 500.938 438.169 500.938 438.795C500.938 439.421 500.427 439.6 499.392 439.6C498.434 439.6 497.923 439.689 496.889 439.855C494.552 440.302 493.862 441.809 493.696 444.913C493.517 447.762 493.517 450.24 493.517 463.728V473.232C493.517 483.08 492.572 493.554 485.318 499.941C479.2 505.356 472.981 506.327 467.374 506.327C462.802 506.327 454.513 506.059 448.217 500.209C443.81 496.121 440.541 489.556 440.541 476.693V463.728Z" fill="black"/>
<path d="M517.796 463.728C517.796 450.24 517.796 447.762 517.617 444.913C517.451 441.899 516.761 440.481 513.913 439.855C513.224 439.689 511.755 439.6 510.542 439.6C509.597 439.6 509.073 439.421 509.073 438.795C509.073 438.169 509.686 438.003 510.976 438.003C515.548 438.003 520.989 438.258 522.79 438.258C525.727 438.258 532.292 438.003 534.961 438.003C540.402 438.003 546.174 438.527 550.836 441.809C553.25 443.495 556.711 448.03 556.711 453.969C556.711 460.535 554.029 466.577 545.319 473.845C552.994 483.782 558.946 491.689 564.042 497.181C568.869 502.329 572.407 502.955 573.71 503.223C574.655 503.402 575.434 503.491 576.124 503.491C576.813 503.491 577.158 503.747 577.158 504.194C577.158 504.909 576.558 505.088 575.523 505.088H567.324C562.484 505.088 560.325 504.641 558.09 503.402C554.374 501.358 551.091 497.182 546.264 490.361C542.815 485.468 538.843 479.439 537.719 478.111C537.285 477.574 536.774 477.485 536.174 477.485L528.664 477.306C528.23 477.306 527.975 477.485 527.975 478.022V479.261C527.975 487.512 527.975 494.525 528.409 498.254C528.665 500.822 529.175 502.776 531.768 503.134C533.058 503.313 534.961 503.491 535.995 503.491C536.685 503.491 537.03 503.747 537.03 504.194C537.03 504.82 536.43 505.088 535.306 505.088C530.299 505.088 523.913 504.82 522.624 504.82C520.989 504.82 515.548 505.088 512.1 505.088C510.976 505.088 510.376 504.82 510.376 504.194C510.376 503.747 510.72 503.491 511.755 503.491C513.045 503.491 514.079 503.313 514.858 503.134C516.583 502.776 517.017 500.822 517.362 498.254C517.796 494.525 517.796 487.512 517.796 479.35V463.728ZM527.975 470.741C527.975 471.712 528.141 472.069 528.754 472.337C530.567 472.963 533.147 473.232 535.306 473.232C538.754 473.232 539.878 472.874 541.436 471.712C544.029 469.77 546.519 465.683 546.519 458.402C546.519 445.807 538.409 442.167 533.326 442.167C531.168 442.167 529.61 442.256 528.754 442.525C528.141 442.703 527.975 443.061 527.975 443.764V470.741Z" fill="black"/>
<path d="M582.969 463.728C582.969 450.24 582.969 447.762 582.79 444.913C582.624 441.899 581.935 440.481 579.087 439.855C578.397 439.689 576.928 439.6 575.715 439.6C574.77 439.6 574.246 439.421 574.246 438.795C574.246 438.169 574.859 438.003 576.149 438.003C580.721 438.003 586.162 438.258 588.576 438.258C591.335 438.258 608.512 438.258 610.147 438.169C611.782 438.003 613.161 437.824 613.851 437.645C614.285 437.556 614.809 437.287 615.243 437.287C615.664 437.287 615.754 437.645 615.754 438.092C615.754 438.705 615.32 439.778 615.064 443.853C614.975 444.734 614.809 448.643 614.63 449.716C614.54 450.15 614.374 450.687 613.774 450.687C613.161 450.687 612.995 450.24 612.995 449.448C612.995 448.822 612.906 447.315 612.471 446.254C611.871 444.658 611.016 443.585 606.699 443.061C605.23 442.882 596.162 442.703 594.438 442.703C594.017 442.703 593.838 442.972 593.838 443.585V466.04C593.838 466.666 593.927 467.011 594.438 467.011C596.341 467.011 606.265 467.011 608.244 466.832C610.313 466.666 611.616 466.398 612.395 465.504C612.995 464.801 613.34 464.354 613.774 464.354C614.119 464.354 614.374 464.533 614.374 465.057C614.374 465.593 613.94 467.011 613.685 471.545C613.506 473.321 613.34 476.859 613.34 477.485C613.34 478.2 613.34 479.171 612.561 479.171C611.961 479.171 611.782 478.813 611.782 478.379C611.705 477.485 611.705 476.335 611.437 475.173C611.016 473.41 609.802 472.069 606.609 471.712C604.975 471.546 596.43 471.456 594.349 471.456C593.927 471.456 593.838 471.801 593.838 472.337V479.35C593.838 482.364 593.748 490.527 593.838 493.107C594.017 499.225 595.396 500.554 604.195 500.554C606.431 500.554 610.058 500.554 612.305 499.493C614.54 498.433 615.588 496.568 616.188 492.928C616.354 491.957 616.533 491.6 617.133 491.6C617.823 491.6 617.823 492.302 617.823 493.196C617.823 495.24 617.133 501.269 616.699 503.044C616.099 505.356 615.32 505.356 612.05 505.356C599.01 505.356 593.238 504.82 588.142 504.82C586.162 504.82 580.721 505.088 577.273 505.088C576.149 505.088 575.549 504.82 575.549 504.194C575.549 503.747 575.894 503.491 576.928 503.491C578.218 503.491 579.253 503.313 580.032 503.134C581.756 502.776 582.19 500.822 582.535 498.254C582.969 494.525 582.969 487.512 582.969 479.35V463.728Z" fill="black"/>
<path d="M58.2753 483.489L58.4541 485.034L57.5601 485.967C30.28 485.967 16.2824 492.494 16.2824 504.922C16.2824 512.842 25.248 518.743 40.3313 518.743C64.3801 518.743 81.4301 505.382 81.4301 491.715C81.4301 485.507 77.8285 478.98 70.4721 472.618L55.0441 459.258C46.2445 451.645 41.9405 444.198 41.9405 437.517C41.9405 423.543 60.7913 410.336 87.3433 410.336C102.605 410.336 111.213 415.624 111.213 423.237C111.213 431.616 99.1953 438.756 80.3445 438.756C77.8285 438.756 75.8617 438.603 74.0609 438.45L73.1669 437.824V436.585L73.8821 435.806C90.5746 435.806 99.5529 430.837 99.5529 423.39C99.5529 417.796 93.6269 414.066 83.3969 414.066C66.3469 414.066 53.4221 423.697 53.4221 434.107C53.4221 440.621 57.7389 446.216 65.6317 453.203L81.6089 467.177C89.3229 473.857 93.0905 481.151 93.0905 488.304C93.0905 495.138 88.6078 503.057 80.5233 509.112C69.3993 517.491 54.5077 522 37.9941 522C15.746 522 3 514.234 3 503.517C3 490.016 21.4804 482.25 57.2025 482.863L58.2753 483.489Z" fill="black"/>
<path d="M650.697 489.926L654.605 501.001L658.513 489.926H662.996V505.395H660.148V492.915L655.933 505.395H653.34L649.062 492.915V505.395H646.214V489.926H650.697ZM630.403 492.545V489.926H643.596V492.545H638.538V505.395H635.473V492.545H630.403Z" fill="black"/>
<path d="M240.078 323.286H192.185V254.872H161.099V323.286H111.929L111.763 146.951H161.099V212.541H192.185V146.951H240.078V323.286ZM459.519 324.116C508.907 324.091 549.099 283.063 549.086 233.656C549.074 183.214 508.907 144.038 459.519 144C410.196 143.962 384.984 180.276 378.765 194.94C378.816 172.932 357.13 146.963 331.765 146.925H250.04V323.222L326.235 323.248C356.964 323.248 378.816 296.628 378.854 273.802C385.866 288.172 410.196 324.129 459.519 324.116ZM319.85 252.381C326.899 252.381 332.455 259.343 332.455 267.275C332.455 275.207 326.899 282.181 319.85 282.181H295.622V252.381H319.85ZM319.939 186.19C326.989 186.19 332.544 193.152 332.544 201.084C332.544 209.016 326.989 215.978 319.939 215.978H295.711V186.19H319.939ZM352.2 233.694C357.755 232.992 367.002 226.643 370.272 222.581C369.122 227.614 369.033 242.163 370.374 247.183C366.657 241.447 357.845 234.397 352.2 233.694ZM414.678 233.694C414.678 208.914 434.768 188.822 459.545 188.822C484.334 188.822 504.424 208.914 504.424 233.694C504.424 258.474 484.334 278.567 459.545 278.567C434.768 278.567 414.678 258.474 414.678 233.694ZM459.545 268.974C479.034 268.974 494.82 253.173 494.82 233.694C494.82 214.215 479.034 198.414 459.545 198.414C440.068 198.414 424.27 214.215 424.27 233.694C424.27 253.173 440.068 268.974 459.545 268.974Z" fill="black"/>
</g>
<defs>
<clipPath id="clip0_1_2">
<rect width="660" height="378" fill="white" transform="translate(3 144)"/>
</clipPath>
</defs>
</svg>
