<svg width="100" height="100" viewBox="0 0 667 667" fill="none" xmlns="http://www.w3.org/2000/svg">
<g clip-path="url(#clip0_1_2)">
<path d="M656.407 281.071H639.722L635.875 289.778L629.378 304.499H621.544L619.219 309.496H627.25L617.572 331.011C610.661 346.141 599.695 361.053 593.435 361.053C592.108 361.053 591.278 360.435 591.278 359.054C591.278 357.755 591.639 356.35 593.265 352.576C595.254 347.941 598.445 341.366 600.829 336.5C604.281 329.479 609.849 318.46 609.849 312.971C609.849 307.456 606.355 303.256 599.53 303.256C591.822 303.256 584.905 307.915 578.52 314.559L582.666 304.499H566.884L554.045 333.592C548.947 343.93 538.431 361.028 531.929 361.028C530.578 361.028 530.008 360.203 530.008 358.86C530.008 358.136 530.37 356.625 530.944 355.307C531.523 353.985 539.197 336.21 539.197 336.21L553.093 304.416H536.186L522.683 335.342C518.444 344.919 507.885 361.101 501.118 361.101C499.737 361.101 498.84 360.406 498.84 358.697C498.84 356.997 500.095 353.966 501.069 351.698L508.146 336.206L508.17 336.211L522.79 304.418H505.887L502.586 311.581L502.575 311.579C500.148 316.395 495.861 322.134 489.255 322.134C486.04 322.134 484.582 320.867 483.791 319.625C482.807 308.915 476.059 303.202 465.971 303.202C452.022 303.202 442.08 311.462 435.554 321.399C431.202 328.044 428.237 335.256 425.606 343.559C419.627 353.359 413.304 361.03 408.405 361.03C407.151 361.03 406.373 360.282 406.373 358.636C406.373 356.796 407.994 353.185 408.627 351.834L419.569 328.532C422.618 321.317 424.743 316.553 424.743 311.882C424.743 306.85 421.228 303.258 415.514 303.258C407.589 303.258 398.929 307.781 392.133 315.363C392.361 314.304 392.471 313.077 392.471 311.704C392.471 306.184 389.755 303.259 383.9 303.259C376.64 303.259 369.189 307.533 362.363 315.397L366.891 304.502H351.467L338.542 333.592C332.37 347.295 322.529 361.028 316.917 361.028C315.606 361.028 314.858 360.357 314.858 358.687C314.858 355.998 317.742 349.559 318.9 346.908L336.003 308.096C337.277 305.199 329.057 303.404 318.611 303.404C307.881 303.404 296.924 308.742 288.807 315.426C283.143 320.099 278.941 322.474 276.774 322.474C275.722 322.474 275.249 321.9 275.249 321.227C275.249 318.832 280.947 312.163 280.947 307.104C280.947 304.803 279.697 303.254 276.523 303.254C270.377 303.254 263.176 309.145 257.816 315.226L262.338 304.495H247.374L234.477 333.592C228.304 347.295 218.188 361.622 212.579 361.622C211.271 361.622 210.518 360.946 210.518 359.276C210.518 356.688 213.283 350.287 214.847 346.908L231.948 308.096C233.22 305.199 225.007 303.404 214.563 303.404C199.147 303.404 184.119 313.797 176.056 324.436C167.268 336.018 161.313 348.26 161.179 358.243C161.065 366.247 165.226 371.302 173.609 371.302C182.942 371.302 190.398 363.891 194.851 358.359C194.748 358.939 194.326 360.976 194.326 361.676C194.326 367.256 196.557 371.291 203.326 371.291C209.311 371.291 217.31 366.286 223.742 358.311L218.544 370.128H234.873L250.867 333.893C256.088 322.1 262.149 315.984 263.779 315.984C264.303 315.984 264.534 316.215 264.534 316.669C264.534 317.924 262.085 321.231 262.085 324.33C262.085 327.502 263.813 329.67 268.188 329.67C271.684 329.67 275.614 327.966 279.072 325.827C270.857 336.998 265.351 348.665 265.224 358.243C265.118 366.247 269.285 371.302 277.666 371.302C286.514 371.302 294.627 363.013 299.085 357.481C298.925 358.35 298.761 360.238 298.761 361.315C298.761 366.754 301.838 371.292 308.125 371.292C315.022 371.292 320.718 366.963 327.651 358.505L322.529 370.129H339.251L354.507 335.496C361.182 320.423 370.233 312.479 374.702 312.479C376.025 312.479 376.912 313.189 376.912 314.736C376.912 315.666 376.512 317.374 375.541 319.643L353.166 370.128L370.291 370.086L385.919 334.85C392.638 319.759 400.07 312.296 405.591 312.296C407.262 312.296 407.976 313.155 407.976 314.979C407.976 315.991 407.658 317.678 406.365 320.507L391.392 352.431C390.147 355.159 388.93 359.083 388.93 362.115C388.93 366.952 391.614 371.292 399.076 371.292C408.788 371.292 416.249 363.969 424.58 352.919L424.618 355.284C425.237 364.056 430.188 371.635 443.104 371.635C458.409 371.635 470.804 361.028 478.332 344.273C481.712 336.752 483.343 330.339 483.792 325.479C485.22 326.194 487.007 326.64 489.256 326.64C491.37 326.64 493.869 326.22 496.461 324.888L493.803 330.662C490.737 337.066 487.324 344.186 484.791 350.119C482.922 354.501 481.803 358.605 481.803 361.348C481.803 367.347 485.08 371.577 491.899 371.577C498.734 371.577 508.117 365.166 514.72 356.177H514.927C514.545 357.968 514.173 360.508 514.173 361.854C514.173 366.798 515.685 371.538 522.663 371.538C530.748 371.538 536.979 365.687 543.118 358.388L537.939 370.129H554.847L568.323 339.6C575.953 322.373 583.651 312.014 590.78 312.014C592.301 312.014 593.087 313.026 593.087 314.534C593.087 317.401 588.98 325.314 585.099 333.325C581.595 340.547 578.989 346.069 577.164 350.414C575.552 354.262 574.23 358.905 574.23 361.933C574.23 367.238 577.183 371.292 583.679 371.292C593.404 371.292 603.371 361.918 608.585 354.687C607.387 358.032 606.635 362.077 606.635 365.273C606.635 374.995 612.552 379.881 620.719 379.881C626.481 379.881 631.471 377.878 635.874 374.822C642.263 370.39 647.409 363.724 651.772 357.539L648.895 354.769C644.86 360.465 640.43 365.925 635.874 369.289C633.021 371.404 630.12 372.697 627.248 372.697C623.779 372.697 621.549 370.911 621.549 366.374C621.549 361.909 623.605 355.899 626.805 347.915C626.974 347.528 631.515 337.332 635.874 327.509C639.567 319.193 643.128 311.137 643.814 309.498H654.778L656.999 304.501H646.086L656.407 281.071ZM181.45 361.096C179.035 361.096 177.418 360.29 177.358 357.157C177.477 348.897 184.277 334.361 192.863 322.73C198.809 314.67 206.643 308.718 214.986 308.718L204.362 332.361C196.485 350.229 187.817 361.096 181.45 361.096ZM285.507 361.096C283.092 361.096 281.463 360.29 281.411 357.157C281.528 348.897 288.326 334.361 296.911 322.73C302.856 314.67 310.691 308.718 319.032 308.718L308.407 332.361H308.431C300.434 350.489 292.161 361.096 285.507 361.096ZM452.873 359.044C449.103 364.335 445.874 365.861 443.074 365.861C439.228 365.861 438.084 362.646 438.557 357.944C439.397 349.689 446.178 330.628 455.69 317.434C460.02 311.427 463.007 308.928 466.241 308.928C469.427 308.928 470.557 311.671 470.441 315.107C470.142 324.058 462.187 345.957 452.873 359.044Z" fill="black"/>
<mask id="mask0_1_2" style="mask-type:luminance" maskUnits="userSpaceOnUse" x="10" y="226" width="195" height="175">
<path d="M10 226H204.169V400.493H10V226Z" fill="white"/>
</mask>
<g mask="url(#mask0_1_2)">
<path d="M138.736 321.202C144.445 320.534 153.78 318.667 157.334 317.379C179.295 311.258 204.169 296.563 204.169 270.468C204.169 240.413 172.319 226.001 134.363 226.001C93.8563 226.001 56.7043 243.955 42.9219 271.702C39.278 279.045 37.2458 287.061 37.2458 295.625C37.2458 303.361 39.1312 310.317 42.9219 315.931C48.7669 324.585 59.1849 330.025 74.577 330.025C93.3355 330.025 108.288 319.725 108.288 301.808C108.288 301.808 108.566 296.773 102.721 296.773C97.9253 296.773 96.6921 300.068 96.806 301.808C97.4886 315.888 89.185 327.068 74.273 327.068C57.6218 327.068 50.6251 312.914 50.6251 297.732C50.6251 266.709 74.029 246.153 98.3815 237.348C110.865 232.793 120.909 231.152 134.003 231.152C161.549 231.152 184.077 241.745 184.077 270.008C184.077 293.688 164.208 313.831 140.314 315.513L141.258 312.254C146.156 294.907 152.062 275.935 161.809 261.818C162.383 260.932 163.4 259.614 164.513 258.2L163.178 256.538C161.439 257.54 158.332 259.812 157.089 260.777C111.372 296.382 109.992 396.312 49.1215 396.312C46.9133 396.312 44.8552 396.138 42.9219 395.83C30.2187 393.783 23.5747 385.257 23.6161 373.402C23.6258 371.069 24.4222 367.86 24.4222 366.035C24.4222 362.96 22.3344 359.769 17.7685 359.769C12.3363 359.769 10.1067 363.997 10.0052 370.224C9.71529 388.034 22.7905 398.33 42.9219 400.183C45.1204 400.391 47.4037 400.493 49.7685 400.493C97.2518 400.493 126.44 364.693 138.736 321.202Z" fill="black"/>
</g>
<path d="M149.943 426.812L135.197 406.083H129.326V439.513H136.274V418.817L150.975 439.513H156.844V406.083H149.943V426.812Z" fill="black"/>
<path d="M204.794 425.344H217.429V419.402H204.794V412.156H219.358V406.083H197.846V439.508H219.403V433.386H204.794V425.344Z" fill="black"/>
<path d="M274.837 412.156H286.041V406.083H256.689V412.156H267.941V439.508H274.837V412.156Z" fill="black"/>
<path d="M371.053 406.083H363.523L356.399 427.806L349.228 406.083H343.536L336.418 427.806L329.241 406.083H321.712L333.409 439.513H339.285L346.408 418.325L353.528 439.513H359.353L371.053 406.083Z" fill="black"/>
<path d="M437.023 410.326C433.749 407.155 429.58 405.591 424.516 405.591C419.406 405.591 415.236 407.155 411.963 410.326C408.695 413.459 407.084 417.61 407.084 422.796C407.084 427.98 408.695 432.141 411.963 435.308C415.236 438.437 419.406 440.001 424.516 440.001C429.58 440.001 433.749 438.437 437.023 435.308C440.289 432.141 441.907 427.98 441.907 422.796C441.907 417.61 440.289 413.459 437.023 410.326ZM431.954 430.887C430.073 432.895 427.6 433.88 424.516 433.88C421.423 433.88 418.918 432.895 416.982 430.887C415.061 428.878 414.119 426.194 414.119 422.796C414.119 419.354 415.061 416.674 416.982 414.705C418.918 412.692 421.422 411.712 424.516 411.712C427.601 411.712 430.073 412.692 431.954 414.705C433.88 416.674 434.822 419.354 434.822 422.796C434.822 426.194 433.879 428.878 431.954 430.887Z" fill="black"/>
<path d="M506.886 416.81C506.886 413.459 505.902 410.824 503.931 408.946C501.957 407.019 499.352 406.083 496.084 406.083H481.744V439.513H488.694V427.488H494.293L500.837 439.513H508.633L501.508 426.368C504.916 424.717 506.886 421.41 506.886 416.81ZM495.23 421.367H488.646V412.16H495.23C497.971 412.16 499.853 413.812 499.853 416.81C499.853 419.667 497.971 421.367 495.23 421.367Z" fill="black"/>
<path d="M566.034 406.083L554.654 419.89V406.083H547.714V439.513H554.654V430.258L558.776 425.296L568.101 439.513H576.258L563.395 419.754L574.911 406.083H566.034Z" fill="black"/>
</g>
<defs>
<clipPath id="clip0_1_2">
<rect width="647" height="214" fill="white" transform="translate(10 226)"/>
</clipPath>
</defs>
</svg>
