<svg width="100" height="100" viewBox="0 0 667 667" fill="none" xmlns="http://www.w3.org/2000/svg">
<g clip-path="url(#clip0_1_2)">
<path d="M171.48 295.725C171.48 269.586 143.622 257 110.527 257C75.1238 257 42.6407 272.61 30.718 296.813C27.4276 303.262 25.7177 310.395 25.727 317.628C25.5765 323.883 27.3155 330.038 30.718 335.298C35.8264 342.805 44.95 347.522 58.3333 347.522C74.7598 347.522 87.7778 338.565 87.7778 322.954C87.7778 322.954 88.0191 318.601 82.9107 318.601C78.7742 318.601 77.6776 321.503 77.8003 322.954C78.4116 335.178 71.1093 344.981 58.0906 344.981C43.4954 344.981 37.407 332.637 37.407 319.447C37.407 292.459 57.8467 274.545 79.1376 266.802C89.0872 263.063 99.6534 261.213 110.289 261.352C134.377 261.352 154.087 270.552 154.087 295.242C154.087 315.812 136.69 333.36 115.883 334.935L116.734 332.153C120.994 317.024 126.225 300.446 134.739 288.222C135.229 287.491 136.079 286.284 137.053 285.076L135.837 283.622C134.017 284.721 132.268 285.933 130.602 287.252C90.7003 318.235 89.4883 405.368 36.3171 405.368C34.4858 405.368 32.658 405.246 30.8433 405.004C19.7739 403.19 13.9302 395.805 13.9302 385.524C13.9302 383.466 14.6615 380.681 14.6615 379.11C14.7457 376.187 12.4331 373.75 9.49605 373.665C9.47285 373.665 9.45097 373.665 9.42909 373.665H8.82244C4.07867 373.665 2.13144 377.411 2.00945 382.74C1.64613 398.11 13.0789 407.062 30.7233 408.76C32.6679 408.88 34.6151 408.999 36.6837 408.999C78.1683 408.999 103.596 377.776 114.425 339.896C119.91 339.257 125.325 338.124 130.604 336.511C149.831 331.181 171.48 318.359 171.48 295.725ZM566.648 304.801H552.043L548.762 312.426L543.041 325.254H536.232L534.155 329.611H541.217L532.696 348.37C526.622 361.56 517.129 374.511 511.654 374.511C510.439 374.511 509.704 374.024 509.704 372.818C509.704 371.613 510.067 370.515 511.409 367.128C513.114 363.131 515.915 357.325 517.982 353.09C521.018 346.918 525.888 337.357 525.888 332.637C525.888 327.917 522.85 324.165 516.885 324.165C510.194 324.165 504.111 328.162 498.508 333.965L502.161 325.253H488.418L477.221 350.667C472.724 359.623 463.594 374.508 457.873 374.508C456.658 374.508 456.168 373.781 456.168 372.572C456.287 371.485 456.574 370.422 457.021 369.424C457.51 368.335 464.201 352.725 464.201 352.725L476.368 325.011H461.527L449.723 351.997C446.079 360.349 436.832 374.508 430.866 374.508C429.827 374.61 428.901 373.854 428.799 372.817C428.799 372.817 428.799 372.817 428.799 372.816V372.329C428.799 370.878 429.896 368.214 430.749 366.277L436.95 352.725L449.723 325.011H435.01L432.081 331.304C429.897 335.538 426.243 340.5 420.405 340.5C417.604 340.5 416.271 339.414 415.664 338.323C414.812 329.004 408.846 324.042 400.088 324.042C387.921 324.042 379.282 331.182 373.561 339.897C369.813 345.904 366.868 352.372 364.805 359.136C359.572 367.732 354.1 374.389 349.719 374.389C348.623 374.389 347.892 373.781 347.892 372.33C347.892 370.878 349.353 367.612 349.84 366.397L359.451 346.067C362.128 339.777 363.957 335.661 363.957 331.546C363.957 327.189 360.921 324.04 355.924 324.04C348.989 324.04 341.444 328.036 335.484 334.569C335.686 333.532 335.767 332.476 335.727 331.421C335.727 326.579 333.295 324.037 328.304 324.037C321.98 324.037 315.411 327.792 309.45 334.566L313.344 325.122H299.958L288.646 350.544C283.294 362.526 274.656 374.389 269.787 374.389C268.694 374.389 267.963 373.78 267.963 372.33C267.963 370.031 270.518 364.343 271.49 362.043L286.456 328.28C287.551 325.74 280.371 324.164 271.247 324.164C261.88 324.164 252.267 328.765 245.213 334.693C240.225 338.805 236.575 340.865 234.746 340.865C234.15 340.993 233.563 340.614 233.434 340.022C233.417 339.942 233.409 339.859 233.41 339.778C233.41 337.72 238.398 331.908 238.398 327.432C238.398 325.375 237.305 324.043 234.503 324.043C229.153 324.043 222.824 329.126 218.201 334.449L222.095 325.129H208.958L197.645 350.545C192.29 362.528 183.409 374.995 178.542 374.995C177.447 374.995 176.72 374.391 176.72 372.936C176.72 370.637 179.153 365.073 180.49 362.165L195.456 328.281C196.55 325.741 189.371 324.165 180.245 324.165C166.74 324.165 153.6 333.242 146.666 342.561C139.002 352.603 133.773 363.253 133.649 371.969C133.53 378.988 137.175 383.343 144.477 383.343C152.629 383.343 159.201 376.93 162.97 372.089C162.747 373.046 162.583 374.017 162.48 374.994C162.48 379.832 164.427 383.343 170.388 383.343C175.618 383.343 182.554 378.986 188.151 372.088L183.644 382.376H197.876L211.869 350.788C216.503 340.504 221.734 335.18 223.189 335.18C223.524 335.117 223.847 335.335 223.912 335.667C223.919 335.706 223.923 335.746 223.923 335.785C223.923 336.875 221.734 339.783 221.734 342.441C221.734 345.1 223.19 347.159 227.089 347.159C230.125 347.159 233.534 345.707 236.576 343.768C229.399 353.453 224.527 363.618 224.527 371.97C224.407 378.99 228.053 383.346 235.356 383.346C243.019 383.346 250.198 376.084 254.091 371.243C253.944 372.367 253.863 373.499 253.848 374.632C253.848 379.353 256.526 383.346 262 383.346C268.081 383.346 272.949 379.592 279.032 372.213L274.526 382.378H289.123L302.504 352.242C308.345 339.172 316.251 332.15 320.145 332.15C321.117 332.05 321.989 332.754 322.091 333.723C322.091 333.724 322.091 333.727 322.091 333.728V334.089C321.931 335.558 321.519 336.991 320.875 338.324L301.67 382.497H316.635L330.262 351.756C336.098 338.567 342.549 332.15 347.415 332.15C348.874 332.15 349.485 332.881 349.485 334.45C349.355 336.136 348.9 337.78 348.147 339.297L335.005 367.129C333.795 369.808 333.055 372.671 332.815 375.598C332.815 379.836 335.125 383.593 341.698 383.593C350.22 383.593 356.663 377.179 363.96 367.618V369.675C364.57 377.299 368.827 383.956 380.141 383.956C393.523 383.956 404.356 374.757 410.92 360.117C413.402 354.969 415.009 349.446 415.67 343.773C417.136 344.512 418.773 344.849 420.412 344.749C422.623 344.773 424.801 344.231 426.74 343.172L424.429 348.133C421.744 353.701 418.825 359.873 416.523 365.081C415.065 368.16 414.197 371.482 413.967 374.88C413.967 380.081 416.886 383.836 422.842 383.836C428.798 383.836 436.958 378.268 442.797 370.403H442.924C442.532 372.029 442.326 373.693 442.306 375.363C442.306 379.721 443.648 383.837 449.731 383.837C456.794 383.837 462.261 378.753 467.618 372.337L463.113 382.505H477.835L489.641 355.88C496.332 340.874 503.022 331.799 509.222 331.799C510.287 331.761 511.198 332.556 511.299 333.613V333.972C511.299 336.515 507.645 343.413 504.363 350.31C501.317 356.604 499.005 361.442 497.428 365.198C495.964 368.362 495.098 371.765 494.872 375.24C494.872 379.837 497.428 383.347 503.149 383.347C511.662 383.347 520.302 375.118 524.916 368.944C523.875 371.904 523.302 375.006 523.22 378.14C523.22 386.616 528.323 390.851 535.504 390.851C540.275 390.814 544.912 389.292 548.768 386.496C554.361 382.621 558.868 376.814 562.639 371.489L560.083 369.066C556.557 374.028 552.658 378.75 548.641 381.654C546.524 383.435 543.868 384.458 541.097 384.559C538.062 384.559 536.112 382.984 536.112 379.115C536.112 375.246 537.934 370.036 540.736 363.015C540.853 362.898 544.869 353.94 548.641 345.35C551.805 338.084 554.969 331.068 555.577 329.615H565.187L567.135 325.258H557.644L566.648 304.801ZM151.653 374.631C149.586 374.631 148.126 373.905 148.126 371.243C148.247 364.101 154.206 351.395 161.633 341.227C166.862 334.208 173.675 329.006 180.975 329.006L171.728 349.577C164.793 365.07 157.25 374.631 151.653 374.631ZM242.657 374.631C240.591 374.631 239.131 373.905 239.011 371.243C239.131 364.101 245.092 351.395 252.515 341.227C257.744 334.208 264.559 329.006 271.858 329.006L262.61 349.577C255.555 365.434 248.378 374.631 242.655 374.631H242.657ZM404.222 334.576C403.86 342.44 396.924 361.437 388.774 372.818C385.493 377.416 382.69 378.746 380.262 378.746C376.852 378.746 375.873 375.96 376.362 371.847C377.087 364.708 383.053 348.007 391.33 336.51C395.101 331.306 397.659 329.126 400.577 329.126C403.497 329.126 404.349 331.548 404.222 334.576ZM631.292 325.253L644.692 294.472H628.834L615.432 325.253H581.725L576.102 338.161H609.819L596.419 368.941H612.278L625.68 338.161H659.387L665 325.253H631.292Z" fill="black"/>
</g>
<defs>
<clipPath id="clip0_1_2">
<rect width="663" height="152" fill="white" transform="translate(2 257)"/>
</clipPath>
</defs>
</svg>
