<svg width="100" height="100" viewBox="0 0 667 667" fill="none" xmlns="http://www.w3.org/2000/svg">
<path opacity="0.996" fill-rule="evenodd" clip-rule="evenodd" d="M99.254 290.429C244.452 290.395 389.65 290.443 534.848 290.572C536.376 291.422 537.665 292.55 538.715 293.955C539.031 294.421 539.253 294.929 539.384 295.479C539.547 296.393 539.643 297.314 539.671 298.243C539.775 301.895 539.838 305.548 539.862 309.201C539.917 321.43 539.965 333.659 540.005 345.888C540.009 352.337 539.961 358.785 539.862 365.233C540.176 368.941 538.759 371.752 535.612 373.666C534.924 373.843 534.223 373.939 533.511 373.952C530.837 374.047 528.163 374.111 525.488 374.142C493.59 374.329 461.692 374.424 429.793 374.428C291.408 374.549 153.023 374.581 14.6375 374.524C13.3018 373.889 12.0284 373.159 10.8174 372.332C9.84944 371.085 9.03766 369.735 8.38203 368.282C8.28992 345.062 8.32175 321.843 8.47753 298.624C8.40013 294.981 10.0078 292.392 13.3005 290.858C13.9934 290.741 14.6937 290.677 15.4016 290.667C43.3683 290.581 71.319 290.501 99.254 290.429ZM306.402 309.106C310.095 309.106 313.787 309.106 317.481 309.106C317.481 324.543 317.481 339.98 317.481 355.418C313.787 355.418 310.095 355.418 306.402 355.418C306.402 339.98 306.402 324.543 306.402 309.106ZM122.175 309.487C132.362 309.471 142.549 309.487 152.736 309.535C155.038 310.404 157.06 311.69 158.801 313.394C160.038 314.784 160.93 316.372 161.475 318.159C161.574 318.982 161.637 319.807 161.666 320.636C161.749 324.195 161.717 327.753 161.57 331.309C161.508 332.225 161.253 333.082 160.806 333.882C159.265 336.754 156.957 338.739 153.882 339.837C152.433 340.294 150.968 340.691 149.489 341.029C154.247 345.697 159.022 350.35 163.815 354.989C159.008 355.052 154.2 355.052 149.394 354.989C144.65 350.256 139.907 345.523 135.164 340.79C130.166 340.727 125.167 340.727 120.169 340.79C118.989 340.817 117.811 340.881 116.636 340.981C116.089 340.947 115.755 341.186 115.633 341.696C115.54 342.328 115.476 342.963 115.442 343.601C115.344 347.54 115.296 351.478 115.299 355.418C111.765 355.418 108.231 355.418 104.698 355.418C104.711 344.427 104.79 333.437 104.937 322.447C104.793 317.03 107.102 313.043 111.861 310.488C112.814 310.12 113.801 309.897 114.821 309.821C117.285 309.655 119.737 309.544 122.175 309.487ZM181.865 309.487C196.159 309.487 210.452 309.487 224.746 309.487C224.746 312.632 224.746 315.776 224.746 318.921C213.477 318.905 202.207 318.921 190.938 318.969C188.832 318.976 186.731 319.071 184.635 319.254C184.46 319.28 184.317 319.36 184.205 319.493C184.05 319.858 183.955 320.239 183.918 320.636C183.79 322.603 183.743 324.573 183.775 326.544C197.432 326.544 211.089 326.544 224.746 326.544C224.746 329.816 224.746 333.088 224.746 336.359C211.089 336.359 197.432 336.359 183.775 336.359C183.735 338.903 183.783 341.444 183.918 343.983C184.027 344.409 184.297 344.679 184.73 344.793C185.426 344.896 186.126 344.959 186.831 344.983C189.982 345.08 193.133 345.143 196.286 345.174C205.772 345.221 215.26 345.237 224.746 345.221C224.746 348.493 224.746 351.765 224.746 355.036C214.304 355.032 203.862 354.984 193.421 354.893C189.757 354.883 186.097 354.788 182.438 354.608C181.12 354.572 179.91 354.19 178.809 353.464C176.081 351.725 174.155 349.327 173.031 346.27C172.886 340.268 172.806 334.265 172.792 328.26C172.808 326.068 172.824 323.876 172.84 321.684C172.884 317.387 174.651 314.004 178.14 311.536C179.388 310.85 180.629 310.167 181.865 309.487ZM235.252 309.487C239.581 309.471 243.911 309.487 248.24 309.535C253.895 319.342 259.514 329.173 265.097 339.027C265.163 339.109 265.242 339.173 265.335 339.218C271.197 329.411 277.023 319.58 282.813 309.725C287.077 309.567 291.343 309.487 295.61 309.487C295.61 324.67 295.61 339.853 295.61 355.036C292.045 355.036 288.479 355.036 284.914 355.036C284.944 344.584 284.865 334.134 284.675 323.686C279.964 332.389 275.252 341.092 270.54 349.795C270.039 349.858 269.529 349.89 269.012 349.891C266.458 349.84 263.911 349.745 261.372 349.605C256.382 340.886 251.368 332.183 246.33 323.495C246.235 334.072 246.139 344.65 246.044 355.227C242.446 355.312 238.848 355.408 235.252 355.513C235.252 340.171 235.252 324.829 235.252 309.487ZM347.087 309.487C358.165 309.487 369.244 309.487 380.322 309.487C380.322 312.632 380.322 315.776 380.322 318.921C369.053 318.905 357.783 318.921 346.514 318.969C344.408 318.978 342.307 319.074 340.211 319.254C340.036 319.28 339.892 319.36 339.781 319.493C339.625 319.924 339.53 320.369 339.494 320.827C339.37 322.73 339.322 324.636 339.351 326.544C353.008 326.544 366.665 326.544 380.322 326.544C380.322 329.816 380.322 333.088 380.322 336.359C366.665 336.359 353.008 336.359 339.351 336.359C339.315 338.871 339.362 341.38 339.494 343.887C339.606 344.38 339.908 344.681 340.402 344.793C341.065 344.9 341.734 344.963 342.407 344.983C345.558 345.08 348.709 345.143 351.862 345.174C361.348 345.221 370.836 345.237 380.322 345.221C380.322 348.493 380.322 351.765 380.322 355.036C369.626 355.029 358.929 354.981 348.233 354.893C344.76 354.887 341.29 354.792 337.823 354.608C336.278 354.44 334.877 353.9 333.621 352.988C331.346 351.357 329.675 349.245 328.607 346.651C328.429 338.266 328.365 329.88 328.416 321.494C328.391 319.306 328.932 317.273 330.039 315.395C331.417 313.099 333.311 311.368 335.722 310.202C336.72 309.918 337.739 309.76 338.778 309.725C341.563 309.638 344.332 309.559 347.087 309.487ZM473.248 309.487C485.918 309.487 498.588 309.487 511.258 309.487C511.258 312.632 511.258 315.776 511.258 318.921C499.575 318.905 487.891 318.921 476.208 318.969C474.546 318.977 472.891 319.072 471.242 319.254C470.508 319.416 470.109 319.877 470.048 320.636C469.915 322.603 469.868 324.572 469.905 326.544C483.689 326.544 497.474 326.544 511.258 326.544C511.258 329.816 511.258 333.088 511.258 336.359C497.474 336.359 483.689 336.359 469.905 336.359C469.935 338.299 469.903 340.237 469.809 342.172C469.727 343.677 470.427 344.551 471.91 344.793C473.46 345.041 475.02 345.168 476.59 345.174C488.146 345.221 499.702 345.237 511.258 345.221C511.258 348.493 511.258 351.765 511.258 355.036C500.339 355.027 489.419 354.979 478.5 354.893C475.218 354.891 471.939 354.796 468.663 354.608C467.32 354.446 466.078 354.002 464.939 353.274C462.797 351.931 461.158 350.137 460.02 347.89C459.728 346.895 459.569 345.878 459.543 344.84C459.352 336.201 459.256 327.562 459.256 318.921C460.444 315.355 462.625 312.576 465.798 310.583C466.308 310.286 466.85 310.064 467.422 309.916C469.37 309.668 471.312 309.526 473.248 309.487ZM52.2661 309.582C63.3131 309.554 74.3597 309.601 85.406 309.725C88.3757 310.929 90.7155 312.882 92.4255 315.586C93.3308 317.179 93.7765 318.894 93.7626 320.732C93.8263 323.971 93.8263 327.211 93.7626 330.451C92.9951 334.286 90.9418 337.224 87.6026 339.266C86.9663 339.631 86.2978 339.917 85.597 340.123C83.8556 340.372 82.1047 340.499 80.3443 340.504C70.8252 340.596 61.3066 340.723 51.7886 340.886C50.6728 340.923 49.5587 340.987 48.4459 341.076C47.8741 341.051 47.5717 341.321 47.5386 341.886C47.4398 342.709 47.3761 343.535 47.3476 344.364C47.2999 348.048 47.2839 351.733 47.2999 355.418C43.8935 355.418 40.4873 355.418 37.081 355.418C37.065 345.094 37.081 334.771 37.1287 324.448C37.1168 322.136 37.3396 319.849 37.7972 317.587C38.5043 315.526 39.6981 313.795 41.3786 312.393C42.4916 311.488 43.7013 310.726 45.0078 310.107C45.3093 309.956 45.6277 309.861 45.9628 309.821C48.0789 309.733 50.18 309.654 52.2661 309.582ZM404.294 309.582C416.2 309.553 428.107 309.6 440.012 309.725C443.438 311.143 445.969 313.509 447.605 316.825C448.135 318.43 448.39 320.082 448.369 321.78C448.433 324.448 448.433 327.116 448.369 329.784C448.342 331.325 447.928 332.754 447.127 334.072C445.692 336.902 443.479 338.856 440.49 339.933C439.01 340.345 437.514 340.679 436.001 340.933C440.663 345.633 445.343 350.318 450.04 354.989C445.201 355.052 440.363 355.052 435.523 354.989C430.78 350.256 426.037 345.523 421.293 340.79C415.85 340.727 410.406 340.727 404.962 340.79C404.06 340.794 403.169 340.89 402.288 341.076C401.986 341.217 401.811 341.455 401.763 341.791C401.585 343.469 401.49 345.153 401.476 346.841C401.429 349.7 401.412 352.559 401.429 355.418C398.15 355.418 394.87 355.418 391.592 355.418C391.554 343.887 391.602 332.357 391.735 320.827C391.637 319.025 392.02 317.342 392.881 315.776C393.998 313.994 395.416 312.485 397.131 311.25C398.378 310.433 399.748 309.956 401.238 309.821C402.271 309.742 403.29 309.663 404.294 309.582Z" fill="black"/>
<path fill-rule="evenodd" clip-rule="evenodd" d="M554.33 290.81C584.383 290.794 614.434 290.81 644.486 290.858C646.986 291.445 648.529 292.986 649.118 295.479C649.182 320.096 649.182 344.713 649.118 369.33C648.529 371.824 646.986 373.364 644.486 373.952C614.434 374.015 584.383 374.015 554.33 373.952C551.831 373.364 550.288 371.824 549.699 369.33C549.635 344.713 549.635 320.096 549.699 295.479C550.305 292.984 551.848 291.428 554.33 290.81ZM600.554 299.1C607.59 299.1 614.625 299.1 621.661 299.1C621.661 299.227 621.661 299.354 621.661 299.482C618.95 313.638 616.276 327.805 613.638 341.981C615.135 341.981 616.631 341.981 618.127 341.981C617.446 345.632 616.778 349.285 616.122 352.94C614.599 353.096 613.071 353.191 611.537 353.226C610.755 357.048 610.024 360.891 609.341 364.756C604.024 364.788 598.707 364.756 593.392 364.661C594.158 360.835 594.859 357.023 595.493 353.226C589.237 353.131 582.966 353.099 576.678 353.131C576.678 353.035 576.678 352.94 576.678 352.845C577.377 349.158 578.093 345.473 578.827 341.791C586.097 327.57 593.339 313.34 600.554 299.1Z" fill="black"/>
<path opacity="0.243" fill-rule="evenodd" clip-rule="evenodd" d="M600.554 299.1C607.605 299.005 614.673 298.973 621.756 299.005C621.783 299.187 621.751 299.346 621.661 299.482C621.661 299.354 621.661 299.227 621.661 299.1C614.625 299.1 607.59 299.1 600.554 299.1Z" fill="#A1A1A1"/>
<path opacity="0.718" fill-rule="evenodd" clip-rule="evenodd" d="M602.751 314.919C602.767 314.824 602.736 314.761 602.655 314.728C602.708 314.556 602.787 314.397 602.894 314.252C602.901 314.489 602.853 314.712 602.751 314.919Z" fill="#7A7A7A"/>
<path opacity="0.996" fill-rule="evenodd" clip-rule="evenodd" d="M602.655 314.728C602.736 314.761 602.767 314.824 602.751 314.919C601.111 323.88 599.44 332.838 597.737 341.791C596.564 341.917 595.37 341.981 594.156 341.982C592.978 341.966 591.8 341.95 590.622 341.934C594.646 332.87 598.658 323.801 602.655 314.728Z" fill="black"/>
<path opacity="0.991" fill-rule="evenodd" clip-rule="evenodd" d="M53.7941 319.302C62.9314 319.263 72.068 319.311 81.2038 319.445C81.9476 319.463 82.6797 319.558 83.4004 319.731C83.7734 319.824 83.9804 320.062 84.0211 320.446C84.5061 323.326 84.5698 326.217 84.2122 329.117C84.1747 329.415 84.0952 329.701 83.9734 329.975C83.7459 330.124 83.4912 330.204 83.2094 330.213C81.9375 330.306 80.6641 330.369 79.3892 330.404C68.6932 330.563 57.9968 330.675 47.2999 330.737C47.2839 327.973 47.2999 325.21 47.3476 322.447C47.3512 321.663 47.4786 320.9 47.7296 320.16C48.1587 319.73 48.684 319.524 49.3055 319.54C50.8163 319.453 52.3126 319.374 53.7941 319.302Z" fill="black"/>
<path opacity="0.991" fill-rule="evenodd" clip-rule="evenodd" d="M121.411 319.302C130.389 319.266 139.367 319.313 148.343 319.445C149.276 319.459 150.199 319.554 151.113 319.731C151.245 319.843 151.326 319.985 151.351 320.16C151.59 322.025 151.701 323.899 151.686 325.782C151.656 327.243 151.625 328.704 151.59 330.165C139.37 330.438 127.145 330.628 114.917 330.737C114.886 327.655 114.934 324.574 115.06 321.494C115.08 320.863 115.286 320.307 115.681 319.826C116.078 319.661 116.492 319.565 116.922 319.54C118.433 319.453 119.93 319.374 121.411 319.302Z" fill="black"/>
<path opacity="0.991" fill-rule="evenodd" clip-rule="evenodd" d="M410.501 319.302C417.6 319.286 424.7 319.302 431.799 319.35C433.265 319.375 434.73 319.438 436.192 319.54C436.623 319.565 437.036 319.661 437.434 319.826C437.669 320.117 437.812 320.45 437.863 320.827C438.264 323.618 438.296 326.413 437.959 329.212C437.969 329.901 437.635 330.235 436.956 330.213C434.189 330.381 431.42 330.476 428.647 330.499C419.574 330.584 410.501 330.663 401.429 330.737C401.396 327.496 401.444 324.256 401.572 321.017C401.585 320.595 401.713 320.214 401.954 319.874C402.139 319.744 402.346 319.665 402.575 319.636C405.23 319.476 407.872 319.364 410.501 319.302Z" fill="black"/>
<path opacity="0.047" fill-rule="evenodd" clip-rule="evenodd" d="M576.678 352.845C576.678 352.94 576.678 353.035 576.678 353.131C582.966 353.099 589.237 353.131 595.493 353.226C589.189 353.226 582.886 353.226 576.583 353.226C576.557 353.074 576.59 352.947 576.678 352.845Z" fill="#D1D1D1"/>
<path opacity="0.047" fill-rule="evenodd" clip-rule="evenodd" d="M616.122 352.94C616.122 353.035 616.122 353.131 616.122 353.226C614.593 353.226 613.065 353.226 611.537 353.226C613.071 353.191 614.599 353.096 616.122 352.94Z" fill="#D1D1D1"/>
</svg>
