<svg width="100" height="100" viewBox="0 0 667 667" fill="none" xmlns="http://www.w3.org/2000/svg">
<path opacity="0.996" fill-rule="evenodd" clip-rule="evenodd" d="M94.9387 289.439C242.817 289.404 390.696 289.453 538.574 289.585C540.13 290.456 541.443 291.61 542.513 293.048C542.834 293.525 543.061 294.045 543.194 294.608C543.361 295.543 543.458 296.486 543.486 297.437C543.592 301.175 543.656 304.913 543.681 308.653C543.737 321.17 543.786 333.687 543.826 346.203C543.83 352.804 543.782 359.403 543.681 366.003C544.001 369.798 542.558 372.675 539.352 374.635C538.652 374.816 537.938 374.914 537.212 374.927C534.49 375.025 531.766 375.09 529.042 375.122C496.555 375.313 464.067 375.411 431.58 375.415C290.64 375.538 149.7 375.571 8.76007 375.512C7.39968 374.863 6.10278 374.115 4.86939 373.269C3.88359 371.992 3.05682 370.611 2.38908 369.124C2.29527 345.358 2.32769 321.592 2.48635 297.827C2.40752 294.098 4.04485 291.448 7.39833 289.878C8.10403 289.758 8.81732 289.693 9.53821 289.683C38.0212 289.595 66.488 289.513 94.9387 289.439ZM305.911 308.555C309.672 308.555 313.433 308.555 317.194 308.555C317.194 324.356 317.194 340.156 317.194 355.957C313.433 355.957 309.672 355.957 305.911 355.957C305.911 340.156 305.911 324.356 305.911 308.555ZM118.283 308.946C128.658 308.929 139.033 308.946 149.408 308.994C151.752 309.884 153.812 311.201 155.585 312.945C156.845 314.367 157.753 315.993 158.308 317.821C158.409 318.663 158.474 319.509 158.503 320.357C158.587 324 158.555 327.641 158.406 331.281C158.342 332.218 158.083 333.096 157.627 333.914C156.058 336.854 153.707 338.886 150.576 340.01C149.099 340.478 147.608 340.884 146.101 341.229C150.947 346.007 155.81 350.77 160.691 355.518C155.796 355.583 150.899 355.583 146.004 355.518C141.173 350.674 136.342 345.83 131.511 340.985C126.421 340.92 121.33 340.92 116.24 340.985C115.038 341.013 113.839 341.078 112.641 341.18C112.085 341.146 111.745 341.39 111.62 341.912C111.526 342.559 111.461 343.209 111.426 343.863C111.325 347.893 111.277 351.925 111.28 355.957C107.681 355.957 104.082 355.957 100.483 355.957C100.497 344.707 100.577 333.459 100.726 322.21C100.58 316.666 102.931 312.585 107.778 309.97C108.749 309.593 109.754 309.365 110.793 309.287C113.303 309.117 115.8 309.003 118.283 308.946ZM179.075 308.946C193.633 308.946 208.19 308.946 222.748 308.946C222.748 312.164 222.748 315.383 222.748 318.601C211.27 318.585 199.793 318.601 188.315 318.65C186.17 318.657 184.031 318.755 181.896 318.943C181.718 318.969 181.572 319.051 181.458 319.187C181.3 319.56 181.203 319.951 181.166 320.357C181.036 322.37 180.987 324.386 181.02 326.404C194.929 326.404 208.839 326.404 222.748 326.404C222.748 329.753 222.748 333.101 222.748 336.45C208.839 336.45 194.929 336.45 181.02 336.45C180.979 339.054 181.028 341.655 181.166 344.253C181.277 344.689 181.552 344.965 181.993 345.082C182.702 345.187 183.415 345.252 184.133 345.277C187.342 345.376 190.551 345.441 193.762 345.472C203.424 345.521 213.086 345.537 222.748 345.521C222.748 348.869 222.748 352.218 222.748 355.567C212.113 355.562 201.478 355.513 190.844 355.42C187.113 355.41 183.385 355.312 179.658 355.128C178.316 355.091 177.084 354.701 175.962 353.957C173.184 352.177 171.222 349.723 170.078 346.594C169.93 340.451 169.849 334.306 169.834 328.16C169.851 325.916 169.867 323.673 169.883 321.43C169.928 317.031 171.727 313.569 175.281 311.043C176.552 310.341 177.816 309.642 179.075 308.946ZM233.447 308.946C237.856 308.929 242.266 308.946 246.675 308.994C252.435 319.033 258.158 329.095 263.843 339.181C263.91 339.265 263.991 339.33 264.086 339.376C270.057 329.338 275.99 319.276 281.886 309.189C286.229 309.027 290.574 308.946 294.92 308.946C294.92 324.486 294.92 340.026 294.92 355.567C291.289 355.567 287.657 355.567 284.026 355.567C284.057 344.869 283.976 334.172 283.783 323.478C278.985 332.386 274.185 341.294 269.387 350.202C268.877 350.266 268.357 350.299 267.831 350.3C265.229 350.248 262.636 350.151 260.05 350.007C254.967 341.083 249.861 332.175 244.73 323.283C244.633 334.109 244.536 344.936 244.438 355.762C240.774 355.849 237.11 355.947 233.447 356.054C233.447 340.351 233.447 324.649 233.447 308.946ZM347.347 308.946C358.63 308.946 369.913 308.946 381.196 308.946C381.196 312.164 381.196 315.383 381.196 318.601C369.718 318.585 358.241 318.601 346.763 318.65C344.619 318.66 342.479 318.758 340.344 318.943C340.166 318.969 340.02 319.051 339.906 319.187C339.747 319.628 339.65 320.084 339.614 320.552C339.488 322.501 339.439 324.451 339.468 326.404C353.377 326.404 367.287 326.404 381.196 326.404C381.196 329.753 381.196 333.101 381.196 336.45C367.287 336.45 353.377 336.45 339.468 336.45C339.431 339.021 339.48 341.589 339.614 344.155C339.728 344.659 340.035 344.968 340.538 345.082C341.214 345.191 341.895 345.256 342.581 345.277C345.79 345.376 348.999 345.441 352.21 345.472C361.872 345.521 371.534 345.537 381.196 345.521C381.196 348.869 381.196 352.218 381.196 355.567C370.302 355.559 359.408 355.51 348.514 355.42C344.977 355.414 341.443 355.316 337.912 355.128C336.338 354.956 334.911 354.404 333.632 353.47C331.315 351.801 329.613 349.639 328.526 346.984C328.345 338.402 328.28 329.819 328.331 321.235C328.306 318.996 328.857 316.915 329.985 314.993C331.388 312.643 333.317 310.871 335.772 309.677C336.789 309.387 337.826 309.225 338.885 309.189C341.721 309.1 344.542 309.019 347.347 308.946ZM475.837 308.946C488.741 308.946 501.645 308.946 514.549 308.946C514.549 312.164 514.549 315.383 514.549 318.601C502.65 318.585 490.751 318.601 478.852 318.65C477.16 318.659 475.474 318.756 473.794 318.943C473.046 319.109 472.641 319.58 472.578 320.357C472.443 322.37 472.394 324.385 472.432 326.404C486.471 326.404 500.511 326.404 514.549 326.404C514.549 329.753 514.549 333.101 514.549 336.45C500.511 336.45 486.471 336.45 472.432 336.45C472.463 338.436 472.43 340.419 472.335 342.4C472.251 343.94 472.964 344.834 474.475 345.082C476.053 345.336 477.642 345.466 479.241 345.472C491.01 345.521 502.78 345.537 514.549 345.521C514.549 348.869 514.549 352.218 514.549 355.567C503.429 355.557 492.307 355.508 481.186 355.42C477.843 355.418 474.504 355.32 471.168 355.128C469.799 354.963 468.535 354.508 467.375 353.762C465.194 352.389 463.524 350.552 462.365 348.252C462.068 347.233 461.905 346.193 461.879 345.131C461.684 336.288 461.587 327.445 461.587 318.601C462.797 314.952 465.018 312.107 468.25 310.067C468.769 309.763 469.321 309.536 469.903 309.385C471.888 309.131 473.865 308.985 475.837 308.946ZM47.0833 309.043C58.3343 309.014 69.5848 309.063 80.835 309.189C83.8595 310.421 86.2426 312.421 87.9841 315.188C88.9061 316.819 89.3601 318.574 89.3459 320.455C89.4108 323.771 89.4108 327.087 89.3459 330.403C88.5642 334.328 86.473 337.336 83.0721 339.425C82.4242 339.799 81.7433 340.091 81.0295 340.303C79.256 340.557 77.4728 340.687 75.6798 340.693C65.985 340.787 56.2907 340.917 46.597 341.083C45.4606 341.121 44.3259 341.186 43.1926 341.278C42.6102 341.252 42.3022 341.529 42.2686 342.107C42.1679 342.949 42.103 343.795 42.0741 344.643C42.0254 348.414 42.0092 352.185 42.0254 355.957C38.5562 355.957 35.0871 355.957 31.6178 355.957C31.6016 345.391 31.6178 334.825 31.6665 324.258C31.6543 321.892 31.8812 319.551 32.3473 317.236C33.0674 315.126 34.2833 313.355 35.9949 311.92C37.1284 310.994 38.3604 310.214 39.691 309.58C39.9981 309.426 40.3224 309.328 40.6637 309.287C42.8188 309.198 44.9587 309.116 47.0833 309.043ZM405.61 309.043C417.736 309.013 429.862 309.061 441.988 309.189C445.477 310.64 448.054 313.062 449.721 316.456C450.26 318.099 450.52 319.79 450.499 321.527C450.564 324.258 450.564 326.989 450.499 329.72C450.471 331.297 450.05 332.76 449.234 334.109C447.772 337.006 445.519 339.005 442.474 340.108C440.967 340.53 439.443 340.871 437.903 341.132C442.651 345.942 447.417 350.737 452.201 355.518C447.272 355.583 442.345 355.583 437.416 355.518C432.585 350.674 427.755 345.83 422.923 340.985C417.379 340.92 411.835 340.92 406.291 340.985C405.372 340.99 404.464 341.087 403.567 341.278C403.26 341.422 403.081 341.666 403.032 342.01C402.851 343.727 402.754 345.451 402.741 347.179C402.692 350.105 402.675 353.031 402.692 355.957C399.353 355.957 396.013 355.957 392.673 355.957C392.635 344.155 392.684 332.353 392.819 320.552C392.72 318.708 393.109 316.985 393.986 315.383C395.125 313.559 396.568 312.014 398.315 310.75C399.585 309.913 400.98 309.426 402.497 309.287C403.55 309.207 404.588 309.126 405.61 309.043Z" fill="black"/>
<path opacity="0.999" fill-rule="evenodd" clip-rule="evenodd" d="M558.417 289.829C589.024 289.813 619.63 289.829 650.237 289.878C652.782 290.479 654.354 292.056 654.954 294.608C655.019 319.804 655.019 345.001 654.954 370.197C654.354 372.749 652.782 374.326 650.237 374.927C619.63 374.992 589.024 374.992 558.417 374.927C555.871 374.326 554.299 372.749 553.699 370.197C553.634 345.001 553.634 319.804 553.699 294.608C554.317 292.055 555.889 290.462 558.417 289.829ZM594.503 298.314C606.143 298.25 617.749 298.315 629.324 298.51C628.663 302.018 628.015 305.53 627.379 309.043C620.667 309.027 613.956 309.043 607.245 309.092C606.472 312.835 605.775 316.59 605.153 320.357C609.418 316.277 614.427 314.96 620.181 316.407C624.28 317.658 626.404 320.438 626.552 324.746C626.673 327.795 626.445 330.819 625.871 333.817C625.041 338.273 624.198 342.727 623.342 347.179C622.831 349.654 622.182 352.093 621.397 354.494C618.804 360.896 614.119 364.781 607.342 366.149C602.543 367.104 597.777 366.974 593.044 365.759C590.399 365.028 588.178 363.646 586.381 361.614C584.98 359.741 584.234 357.628 584.144 355.274C584.054 353.221 584.118 351.173 584.338 349.129C584.72 346.186 585.206 343.26 585.797 340.351C591.189 340.254 596.587 340.222 601.992 340.254C601.383 343.529 600.815 346.813 600.29 350.105C600.038 351.591 599.941 353.087 599.998 354.591C600.311 355.897 601.138 356.514 602.479 356.445C604.076 356.323 605.161 355.51 605.737 354.006C607.296 346.45 608.755 338.875 610.114 331.281C610.255 330.211 610.288 329.139 610.211 328.062C610.045 327.126 609.51 326.525 608.606 326.258C606.614 326.011 605.204 326.808 604.375 328.647C604.053 329.775 603.778 330.913 603.548 332.061C598.199 332.191 592.849 332.191 587.499 332.061C589.871 320.82 592.205 309.571 594.503 298.314Z" fill="black"/>
<path opacity="0.243" fill-rule="evenodd" clip-rule="evenodd" d="M594.503 298.314C606.126 298.217 617.766 298.184 629.422 298.217C629.445 298.343 629.412 298.44 629.324 298.51C617.75 298.315 606.143 298.25 594.503 298.314Z" fill="#A1A1A1"/>
<path opacity="0.991" fill-rule="evenodd" clip-rule="evenodd" d="M48.6396 318.992C57.9455 318.952 67.2508 319 76.5552 319.138C77.3128 319.156 78.0584 319.254 78.7924 319.43C79.1723 319.525 79.3831 319.769 79.4246 320.162C79.9185 323.111 79.9834 326.069 79.6192 329.038C79.581 329.343 79.5 329.635 79.376 329.915C79.1443 330.069 78.8849 330.15 78.5979 330.159C77.3025 330.254 76.0056 330.319 74.7072 330.354C63.8137 330.518 52.9198 330.632 42.0254 330.696C42.0092 327.867 42.0254 325.038 42.074 322.21C42.0777 321.408 42.2074 320.627 42.4631 319.869C42.9001 319.43 43.4351 319.218 44.068 319.235C45.6068 319.146 47.1307 319.065 48.6396 318.992Z" fill="black"/>
<path opacity="0.991" fill-rule="evenodd" clip-rule="evenodd" d="M117.505 318.992C126.649 318.954 135.792 319.003 144.934 319.138C145.884 319.152 146.824 319.249 147.755 319.43C147.89 319.545 147.972 319.691 147.998 319.869C148.241 321.778 148.354 323.696 148.338 325.624C148.308 327.12 148.276 328.615 148.241 330.11C135.795 330.389 123.345 330.584 110.891 330.696C110.859 327.541 110.908 324.387 111.036 321.235C111.057 320.589 111.267 320.02 111.669 319.528C112.073 319.359 112.494 319.261 112.933 319.235C114.472 319.146 115.996 319.065 117.505 318.992Z" fill="black"/>
<path opacity="0.991" fill-rule="evenodd" clip-rule="evenodd" d="M411.932 318.992C419.162 318.975 426.393 318.992 433.623 319.04C435.116 319.066 436.608 319.131 438.097 319.235C438.536 319.261 438.957 319.359 439.362 319.528C439.601 319.825 439.747 320.167 439.799 320.552C440.207 323.409 440.24 326.27 439.897 329.135C439.907 329.84 439.567 330.181 438.875 330.159C436.057 330.331 433.237 330.429 430.413 330.452C421.173 330.539 411.932 330.62 402.692 330.696C402.659 327.378 402.707 324.062 402.838 320.747C402.851 320.315 402.982 319.925 403.227 319.577C403.416 319.444 403.627 319.363 403.859 319.333C406.563 319.169 409.255 319.055 411.932 318.992Z" fill="black"/>
</svg>
