<svg width="100" height="100" viewBox="0 0 667 667" fill="none" xmlns="http://www.w3.org/2000/svg">
    <path
        d="M176.342 495.449C172.88 493.844 168.388 490.204 166.36 487.36C163.013 482.667 162.622 480.358 162.127 462.351C161.496 439.372 163.042 432.756 170.591 426.128C177.096 420.416 181.817 419.617 205.35 420.243C226.281 420.8 229.22 421.853 236.296 431.331C239.173 435.184 239.463 437.732 239.463 459.152C239.463 480.573 239.173 483.121 236.296 486.973C229.078 496.642 226.491 497.512 203.649 497.958C185.671 498.308 181.729 497.947 176.342 495.449ZM185.277 464.912L185.709 446.866L197.228 464.904L208.746 482.942L219.881 482.949L231.016 482.957V459.152V435.347H224.105H217.193L217.16 453.393L217.127 471.439L205.483 453.393L193.839 435.347H182.479H171.119V459.152V482.957H177.982H184.844L185.277 464.912ZM260.462 495.976C248.501 490.782 246.095 484.284 246.298 457.728C246.441 438.941 246.848 435.71 249.644 431.187C255.25 422.116 261.871 419.984 284.324 420.023C307.21 420.062 314.409 422.311 319.855 431.124C322.856 435.979 323.164 438.606 323.158 459.334C323.152 485.922 321.631 490.229 310.462 495.3C302.119 499.087 268.667 499.54 260.462 495.976ZM310.878 477.582V472.207H291.68H272.482V467.599V462.992H290.912H309.342V458.385V453.777H290.912H272.482V449.938V446.098H291.68H310.878V440.723V435.347H284.769H258.66V459.152V482.957H284.769H310.878V477.582ZM343.821 496.155C338.47 493.824 331.24 485.85 330.009 480.919C329.55 479.084 329.377 471.017 329.625 462.992L330.075 448.402L335.985 465.749L341.894 483.096L351.268 482.643L360.641 482.19L363.788 469.628C365.519 462.719 367.315 456.695 367.779 456.241C368.243 455.787 370.289 461.613 372.324 469.187L376.025 482.957H385.314H394.604L399.835 467.215C402.712 458.557 405.644 450.817 406.35 450.014C407.056 449.212 407.634 455.113 407.634 463.127C407.634 481.095 404.193 489.45 394.579 494.828C389.085 497.902 386.327 498.261 368.471 498.23C355.316 498.207 346.907 497.499 343.821 496.155ZM426.063 494.933C414.99 489.279 412.233 482.136 412.275 459.211C412.314 437.904 414.62 430.562 423.197 424.445C428.109 420.941 429.529 420.757 451.676 420.757C477.567 420.757 479.77 421.472 487.112 432.26C490.295 436.937 490.567 439.058 490.567 459.152C490.567 479.247 490.295 481.368 487.112 486.045C479.996 496.501 477.23 497.499 453.985 498.005C434.595 498.427 432.441 498.19 426.063 494.933ZM474.158 481.192C479.025 478.63 479.767 476.929 479.793 468.277C479.831 455.841 478.526 454.985 457.785 453.852C439.634 452.861 434.277 451.093 438.035 447.334C439.284 446.085 445.265 445.617 456.772 445.87L473.673 446.24V440.794V435.347H453.147C434.707 435.347 432.21 435.671 428.574 438.53C425.22 441.169 424.528 442.959 424.528 448.988C424.528 461.022 426.038 461.979 447.82 463.753C465.224 465.17 466.762 465.545 466.762 468.367C466.762 471.263 465.596 471.463 446.413 471.867L426.063 472.296V477.627V482.957H448.434C462.32 482.957 472.076 482.288 474.158 481.192ZM345.665 453.393C340.075 435.684 339.884 435.347 335.406 435.347C329.586 435.347 329.664 434.015 335.835 428.064C343.118 421.038 347.377 419.989 368.62 419.989C389.794 419.989 395.798 421.548 401.233 428.457C405.622 434.037 405.434 435.347 400.245 435.347C396.085 435.347 395.742 435.961 390.809 452.241C387.993 461.533 385.204 469.135 384.612 469.135C384.019 469.135 382.018 463.918 380.166 457.542L376.797 445.948L368.026 446.407L359.256 446.866L355.309 459.152L351.362 471.439L345.665 453.393ZM293.195 398.614C232.245 384.353 186.576 340.591 171.781 282.27C166.825 262.733 166.723 247.317 171.503 240.257C178.911 229.316 197.029 224.625 207.417 230.96C213.802 234.854 218.05 240.842 228.596 260.823C246.273 294.314 265.33 320.639 286.65 341.022C316.43 369.492 345.048 383.227 379.656 385.66L394.51 386.704L387.634 389.634C368.405 397.826 355.507 400.359 330.075 400.936C310.018 401.391 303.241 400.964 293.195 398.614ZM360.792 374.834C348.993 371.927 335.898 366.645 325.764 360.706C290.676 340.142 256.273 298.772 230.151 245.731C219.575 224.257 201.273 214.376 184.557 221.115C180.296 222.833 181.364 220.213 188.77 210.779C202.781 192.932 225.422 177.921 252.772 168.346C280.615 158.598 304.845 155.511 352.256 155.669C372.76 155.737 390.812 155.102 394.188 154.193C402.429 151.974 411.479 142.496 414.137 133.301L416.281 125.882L419.442 132.025C441.895 175.666 427.696 246.001 382.435 315.337C371.815 331.606 368.741 338.378 368.018 347.1C367.16 357.442 369.564 364.518 376.286 371.44L381.673 376.987L375.072 376.856C371.441 376.784 365.015 375.874 360.792 374.834ZM396.496 374.759C388.354 371.905 380.847 365.77 377.902 359.563C373.07 349.382 374.98 343.217 390.838 317.799C424.361 264.066 440.069 216.426 437.876 175.14C436.81 155.072 433.025 140.479 424.477 123.478C421.107 116.776 418.981 111.292 419.752 111.292C422.96 111.292 452.195 141.115 459.169 151.501C479.209 181.347 486.974 210.254 485.575 249.808C484.949 267.516 484.015 274.403 480.764 285.271C471.539 316.114 453.197 343.642 428.428 363.817C414.792 374.923 405.777 378.012 396.496 374.759ZM167.537 220.718C173.955 176.294 195.559 139.73 231.305 112.795C262.736 89.1112 304.086 77.4687 340.882 81.9427C373.837 85.9496 399.35 96.6029 405.122 108.767C409.386 117.752 407.725 132.482 401.661 139.477C395.331 146.778 392.434 147.206 347.737 147.448C311.811 147.642 302.781 148.171 287.283 150.989C262.689 155.46 245.958 160.77 228.209 169.736C202.666 182.638 184.179 199.119 173.079 218.883C170.734 223.058 168.34 226.475 167.76 226.476C167.18 226.477 167.079 223.886 167.537 220.718Z"
        fill="black" />
</svg>