<svg width="100" height="100" viewBox="0 0 667 667" fill="none" xmlns="http://www.w3.org/2000/svg">
<path d="M298.609 517.422C234.744 503.791 185.873 465.033 161.708 408.852C149.28 379.957 144.178 348.273 149.797 334.885C153.628 325.757 164.827 318.649 176.963 317.645C194.109 316.226 199.976 321.594 217.674 354.895C237.824 392.812 259.38 423.039 282.725 446.113C318.603 481.575 353.769 499.129 394.171 501.741C403.068 502.317 409.701 503.383 408.91 504.111C406.343 506.474 380.839 514.472 366.612 517.375C349.555 520.855 314.805 520.879 298.609 517.422ZM373.883 488.87C361.899 486.249 355.964 484.018 339.515 475.955C299.799 456.484 255.86 407.575 227.465 351.23C217.069 330.602 209.418 319.637 201.348 313.802C192.731 307.572 181.005 305.293 170.828 307.871L163.68 309.682L166.816 304.135C171.917 295.111 191.513 276.475 205.181 267.65C221.38 257.191 236.882 250.19 256.24 244.591C287.516 235.545 299.882 234.156 355.29 233.468C412.453 232.759 417.815 231.913 427.204 222.131C429.98 219.239 433.675 212.678 435.413 207.552C438.416 198.698 438.684 198.435 440.752 202.291C441.949 204.524 444.967 212.11 447.459 219.148C454.186 238.148 455.265 276.423 449.818 302.809C442.755 337.019 425.802 375.579 399.078 418.215C383.813 442.571 381.381 448.385 381.381 460.533C381.381 469.755 384.49 477.73 391.165 485.631L396.097 491.468L390.089 491.284C386.784 491.183 379.492 490.097 373.883 488.87ZM405.733 483.95C389.245 473.05 386.741 457.907 398.308 439.048C401.527 433.8 408.643 422.232 414.121 413.342C445.124 363.03 461.518 316.59 463.606 273.158C465.152 241 459.944 216.235 446.487 191.769C440.678 181.207 440.512 180.498 444.322 182.533C446.591 183.746 455.15 191.159 463.34 199.008C488.8 223.404 504.429 249.713 514.078 284.418C518.525 300.414 518.967 304.806 519 333.419C519.043 370.805 516.112 384.543 501.948 413.342C491.44 434.707 479.647 450.69 462.435 466.897C437.452 490.42 422.377 494.954 405.733 483.95ZM148.547 300.642C158.82 246.464 186.004 205.923 232.609 175.278C247.608 165.416 271.819 154.671 288.712 150.379C331.716 139.454 398.617 149.959 419.634 170.937C432.861 184.138 429.382 211.281 413.4 219.583C408.258 222.254 400.795 222.701 357.089 222.954C314.386 223.201 303.546 223.825 285.976 227.045C224.818 238.255 181.83 262.644 157.41 299.988C152.492 307.509 147.93 313.663 147.272 313.663C146.615 313.663 147.188 307.804 148.547 300.642Z" fill="black"/>
</svg>
