<svg width="100" height="100" viewBox="0 0 667 667" fill="none" xmlns="http://www.w3.org/2000/svg">
<path d="M521.896 340.361C520.589 312.539 519.948 298.262 519.275 260.438C518.914 240.141 532.511 208.083 569.731 220.476C603.266 231.643 596.921 265.998 585.457 280.091L536.967 339.706C526.9 352.083 522.19 346.611 521.896 340.361Z" fill="black"/>
<path d="M507.48 434.697C528.832 434.697 546.141 417.539 546.141 396.373C546.141 375.207 528.832 358.049 507.48 358.049C486.129 358.049 468.82 375.207 468.82 396.373C468.82 417.539 486.129 434.697 507.48 434.697Z" fill="black" fill-opacity="0.992157"/>
<path d="M110.485 293.166L83.9542 361.321H100.962L111.512 334.228L119.465 334.55C135.536 334.84 128.621 349.563 123.948 361.321L141.355 361.648C141.355 361.648 148.322 347.067 147.556 339.41C147.202 335.876 146.665 332.911 142.717 329.916C148.121 325.305 153.11 324.243 155.48 315.024C157.06 310.964 157.341 305.93 156.981 302.87C156.634 299.778 155.384 297.383 153.218 295.696C151.052 294.01 148.106 293.166 144.384 293.166H127.493H119.815L110.485 293.166ZM122.678 305.533H138.545C143.248 307.042 142.831 309.776 142.033 313.55C140.869 316.795 138.514 318.663 136.138 320.572C134.89 321.228 133.611 321.558 132.308 321.558H116.441L122.678 305.533Z" fill="black" fill-opacity="0.992157"/>
<path d="M253.986 292.228L227.133 361.321H233.749H240.271H250.157C256.136 361.321 261.583 360.291 266.508 358.231C271.432 356.172 275.637 353.296 279.124 349.589C282.643 345.882 285.371 341.542 287.304 336.568L294.916 316.99C296.947 311.763 297.607 307.297 296.906 303.59C296.205 299.884 294.175 297.06 290.802 295.128C287.461 293.195 282.876 292.228 277.058 292.228H267.133H260.612H253.986ZM264.218 304.775H272.47C276.786 304.775 279.729 305.805 281.295 307.864C282.86 309.923 282.912 312.841 281.446 316.611L273.541 336.947C272.076 340.717 269.759 343.635 266.593 345.694C263.427 347.753 259.677 348.783 255.361 348.783H247.109L264.218 304.775Z" fill="black" fill-opacity="0.992157"/>
<path d="M380.148 293.214L376.338 307.251H393.442L376.285 363.292H392.556L409.712 307.251H429.437L433.248 293.214H380.148Z" fill="black" fill-opacity="0.992157"/>
<path d="M446.537 293.212H461.037L458.754 340.181L487.07 293.212H500.915L457.593 363.618H443.991L446.537 293.212Z" fill="black" fill-opacity="0.992157"/>
<path d="M224.982 325.224C224.475 328.614 220.997 332.129 217.714 331.613H181.531C179.824 337.541 179.706 344.395 184.41 347.224C195.116 347.749 203.523 346.607 214.164 346.314C218.201 346.439 217.128 356.447 210.728 361.27C196.308 362.727 183.315 363.705 173.574 360.046C166.491 357.288 162.873 350.351 163.121 341.997C163.426 332.684 166.035 322.694 170.994 313.437C175.935 304.063 184.885 295.821 194.598 293.001C202.608 290.68 210.76 290.73 217.334 293.42C224.576 296.35 228.208 304.232 227.362 312.933C227.156 316.966 226.124 321.108 224.982 325.224ZM209.922 320.112C211.703 314.407 211.913 307.58 207.179 305.08C202.334 302.678 194.617 304.13 189.983 309.872C187.515 312.831 185.279 316.988 184.796 320.112H209.922Z" fill="black" fill-opacity="0.992157"/>
<path d="M365.815 324.875C365.308 328.265 361.83 331.781 358.547 331.264H322.364C320.657 337.193 320.539 344.047 325.243 346.876C335.949 347.4 344.355 346.259 354.997 345.965C359.034 346.091 357.961 356.099 351.56 360.922C337.141 362.379 324.148 363.357 314.407 359.697C307.324 356.939 303.706 350.003 303.954 341.649C304.259 332.336 306.868 322.345 311.827 313.088C316.768 303.714 325.718 295.473 335.43 292.653C343.441 290.332 351.593 290.381 358.167 293.072C365.409 296.001 369.041 303.884 368.194 312.585C367.989 316.618 366.957 320.76 365.815 324.875ZM350.755 319.764C352.535 314.059 352.746 307.232 348.012 304.732C343.166 302.33 335.449 303.782 330.816 309.524C328.348 312.482 326.112 316.639 325.629 319.764H350.755Z" fill="black" fill-opacity="0.992157"/>
</svg>
