<svg width="100" height="100" viewBox="0 0 667 667" fill="none" xmlns="http://www.w3.org/2000/svg">
<path d="M514.291 415.26C513.789 415.26 513.288 415.26 512.816 415.231C511.813 415.231 510.987 414.405 510.987 413.402V396.59C510.987 390.308 518.479 387.565 521.664 386.651C527.327 385.205 534.258 385.205 539.862 386.651C545.732 388.302 549.831 393.139 550.333 399.009C550.805 404.554 547.944 409.332 542.694 411.721C536.087 414.877 526.767 415.26 519.393 415.26C517.624 415.29 515.883 415.26 514.291 415.26ZM518.095 373.496C504.675 377.153 496.977 385.618 496.977 396.59V432.898C496.977 438.443 498.334 442.896 501.166 446.996C505.767 453.042 513.819 457.378 523.286 458.853C525.646 459.207 527.917 459.413 530.277 459.413C532.872 459.413 535.556 459.148 538.594 458.705C548.091 457.231 555.052 453.721 559.742 448.087C561.01 446.583 560.449 444.283 558.768 443.25L553.135 439.74C551.365 438.679 549.153 439.18 547.619 440.537C544.847 442.926 541.131 444.43 536.47 445.049C532.253 445.846 528.654 445.846 524.378 445.049C519.069 444.165 514.763 441.894 512.491 438.856C511.43 437.322 510.987 435.847 510.987 433.547V429.83C510.987 428.857 511.843 428.061 512.816 428.12C513.642 428.12 514.497 428.149 515.382 428.179C518.331 428.297 521.399 428.385 524.643 428.385C532.017 428.385 541.514 427.884 549.183 423.725C559.211 418.505 564.815 408.388 563.694 397.416C562.573 386.031 554.845 376.888 543.52 373.496C539.39 372.375 535.084 371.815 530.749 371.815C526.472 371.815 522.195 372.375 518.095 373.496ZM439.286 373.673C426.191 377.271 418.434 385.943 418.434 396.915V434.372C418.434 445.639 426.22 454.458 439.375 457.998C443.475 459.03 447.751 459.531 452.116 459.531C456.511 459.531 460.788 459.03 465.064 457.909L466.215 457.467L466.392 457.378C477.187 454.104 484.088 447.114 485.563 438.266C485.887 436.29 484.236 434.638 482.26 434.638H475.594C473.588 434.638 472.084 436.29 471.199 438.118C469.223 442.1 464.091 443.958 461.732 444.637L461.171 444.755C455.774 446.229 448.371 446.2 443.032 444.755C439.021 443.604 432.326 440.743 432.326 434.314V397.033C432.326 390.367 439.788 387.653 442.973 386.828C446.129 385.972 449.137 385.559 452.146 385.559C455.154 385.559 458.34 386.002 461.171 386.828C463.796 387.506 469.135 389.394 471.17 393.375C472.114 395.204 473.618 396.856 475.623 396.856H482.289C484.265 396.856 485.917 395.233 485.593 393.316C484.147 383.996 476.803 376.888 464.946 373.644C460.316 372.464 456.01 371.874 452.146 371.874C448.046 371.903 443.769 372.493 439.286 373.673ZM372.629 371.579C365.58 371.579 359.297 373.113 354.195 376.092C353.664 376.416 352.927 376.092 352.927 375.443C352.927 373.879 351.629 372.552 350.036 372.552H342.545C340.539 372.552 338.917 374.204 338.917 376.18V454.96C338.917 456.906 340.539 458.558 342.545 458.558H349.358C351.334 458.558 352.956 456.906 352.956 454.96V398.537C352.956 389.246 362.925 385.087 372.806 385.087C382.598 385.087 392.479 389.276 392.479 397.21V454.96C392.479 456.906 394.13 458.558 396.107 458.558H402.92C404.896 458.558 406.518 456.906 406.518 454.96V397.387C406.518 379.542 389.765 371.579 373.189 371.579H372.629ZM278.483 415.26C277.952 415.26 277.48 415.26 276.979 415.231C275.976 415.231 275.179 414.405 275.179 413.402V396.59C275.179 390.308 282.612 387.565 285.827 386.651C291.49 385.205 298.421 385.205 304.025 386.651C309.865 388.302 313.994 393.139 314.495 399.009C314.938 404.554 312.106 409.332 306.856 411.721C300.22 414.877 290.929 415.26 283.585 415.26C281.727 415.29 280.016 415.26 278.483 415.26ZM282.199 373.496C268.809 377.153 261.111 385.618 261.111 396.59V432.898C261.111 438.443 262.438 442.896 265.299 446.996C269.841 453.042 277.922 457.378 287.42 458.853C289.779 459.207 292.05 459.413 294.41 459.413C297.005 459.413 299.719 459.148 302.727 458.705C312.224 457.231 319.156 453.721 323.875 448.087C325.143 446.583 324.583 444.283 322.901 443.25L317.268 439.74C315.498 438.679 313.286 439.18 311.752 440.537C308.98 442.926 305.264 444.43 300.604 445.049C296.415 445.846 292.788 445.846 288.511 445.049C283.231 444.165 278.896 441.894 276.595 438.856C275.533 437.322 275.12 435.847 275.12 433.547V429.83C275.12 428.857 275.917 428.061 276.92 428.12C277.745 428.12 278.601 428.149 279.486 428.179C282.435 428.297 285.502 428.385 288.747 428.385C296.12 428.385 305.588 427.884 313.286 423.725C323.314 418.505 328.918 408.388 327.797 397.416C326.677 386.031 318.949 376.888 307.594 373.496C303.494 372.375 299.217 371.815 294.882 371.815C290.634 371.815 286.299 372.375 282.199 373.496ZM236.955 372.552C234.949 372.552 233.327 374.204 233.327 376.18V454.93C233.327 456.906 234.949 458.528 236.955 458.528H243.768C245.773 458.528 247.396 456.906 247.396 454.93V376.18C247.396 374.204 245.773 372.552 243.768 372.552H236.955ZM173.512 373.673C160.387 377.271 152.571 385.943 152.571 396.915V434.372C152.571 445.639 160.417 454.458 173.571 457.998C177.612 459.03 181.918 459.531 186.283 459.531C190.619 459.531 194.955 459.03 199.202 457.909L200.382 457.467L200.558 457.378C211.265 454.104 218.226 447.114 219.7 438.266C220.025 436.29 218.373 434.638 216.397 434.638H209.731C207.755 434.638 206.221 436.29 205.337 438.148C203.36 442.1 198.228 443.958 195.869 444.637L195.338 444.755C189.911 446.2 182.508 446.2 177.14 444.755C173.188 443.604 166.463 440.743 166.463 434.314V397.033C166.463 390.367 173.925 387.653 177.11 386.828C180.266 385.972 183.275 385.559 186.313 385.559C189.292 385.559 192.477 386.002 195.308 386.828C197.933 387.506 203.242 389.394 205.307 393.375C206.251 395.204 207.755 396.856 209.761 396.856H216.426C218.403 396.856 220.054 395.233 219.73 393.316C218.285 383.996 210.941 376.888 199.084 373.644C194.483 372.464 190.206 371.874 186.313 371.874C182.272 371.903 177.966 372.493 173.512 373.673ZM98.3308 373.349C85.1468 377.212 77.4783 385.972 77.3013 397.387C77.1243 418.505 94.3196 420.717 109.48 422.663L109.834 422.693C123.873 424.492 130.48 426.203 130.362 434.196C130.362 440.802 122.752 443.545 119.508 444.46C116.381 445.315 112.695 445.816 109.155 445.816C103.876 445.816 94.9685 444.666 90.0724 437.971C88.9221 436.408 86.8575 435.523 85.0878 436.467L79.13 439.623C77.3013 440.596 76.4165 442.778 77.4193 444.607C83.3477 455.579 97.505 459.561 109.509 459.561C114.317 459.561 119.036 458.941 123.165 457.791C136.408 454.104 144.077 445.521 144.254 434.255C144.431 413.166 126.292 410.777 111.721 408.889C97.682 407.12 91.0457 405.409 91.1932 397.416C91.1932 390.809 98.0064 387.889 102.047 386.651C105.321 385.707 108.89 385.264 112.37 385.264C116.588 385.264 123.667 386.031 128.327 390.485C129.772 391.96 131.984 392.638 133.754 391.606L139.092 388.479C140.891 387.417 141.57 385.117 140.419 383.377C133.223 372.759 118.505 371.549 112.105 371.549C107.327 371.549 102.549 372.169 98.3308 373.349ZM575.403 373.997V382.993H573.84V373.997H571.156V372.552H578.117V373.997H575.403ZM584.93 381.548H583.455L580.83 375.118L580.889 382.964H579.355V372.523H581.361L584.163 379.631L586.994 372.523H589V382.964H587.466L587.496 375.118L584.93 381.548Z" fill="black"/>
<path d="M413.708 208.327C381.736 214.816 360.294 240.565 360.294 271.681C360.294 276.282 360.766 281.031 361.739 285.809C367.52 314.33 393.062 338.634 423.235 338.634C426.302 338.634 429.399 338.398 432.526 337.867C438.543 336.893 443.881 331.466 443.852 324.712C443.852 324.476 443.852 324.181 443.822 323.945C443.144 315.657 438.159 310.702 429.429 310.26C410.11 309.228 394.419 299.023 390.555 279.969C389.995 277.315 389.759 274.69 389.759 272.124C389.729 255.548 400.495 240.771 419.253 236.937C421.554 236.465 423.825 236.347 426.007 236.347C428.249 236.347 430.402 236.524 432.526 236.642C434.62 236.819 436.655 236.966 438.602 236.966C440.135 236.966 441.581 236.848 442.996 236.612C449.662 235.256 453.437 230.212 453.467 223.841C453.467 222.75 453.349 221.6 453.113 220.39C450.989 209.772 439.132 207 428.013 207C422.675 207 417.543 207.59 413.708 208.327Z" fill="black"/>
<path d="M294.728 207.531C272.813 207.531 254.143 220.862 254.143 245.431C254.143 274.837 278.211 281.621 301.04 286.222C313.929 288.906 321.686 293.035 321.686 300.556C321.686 305.895 317.085 311.971 301.777 311.971C286.44 311.971 279.45 304.921 271.87 302.975C270.985 302.768 270.041 302.65 269.009 302.65C263.021 302.65 255.589 306.898 255.589 315.215C255.589 316.719 255.795 318.282 256.297 319.993C260.662 335.802 286.41 339.43 302.455 339.43C331.861 339.43 350.797 323.621 350.797 299.583C350.797 274.1 333.071 264.131 303.901 257.583C285.437 253.424 282.783 251.478 282.783 244.428C282.783 239.355 286.794 236.878 291.542 235.728C293.253 235.374 294.787 235.197 296.232 235.197C299.86 235.197 302.603 236.14 305.11 236.937C306.467 237.379 307.823 237.586 309.121 237.586C314.253 237.586 318.677 234.341 320.594 229.003C321.155 227.381 321.479 225.729 321.479 224.018C321.479 219.093 318.972 214.315 314.283 211.926C308.295 208.888 300.774 207.914 297.028 207.59C296.409 207.501 295.731 207.501 295.052 207.472H294.728V207.531Z" fill="black"/>
<path d="M487.975 338.575C479.835 338.575 473.258 331.997 473.258 323.857V223.399C473.258 215.258 479.835 208.681 487.975 208.681C496.116 208.681 502.693 215.258 502.693 223.399V323.827C502.693 331.968 496.086 338.575 487.975 338.575Z" fill="black"/>
</svg>
