<svg width="100" height="100" viewBox="0 0 667 667" fill="none" xmlns="http://www.w3.org/2000/svg">
<path d="M102.283 74.935C93.8719 87.1662 88.1632 101.025 83.4566 115.046C75.4352 139.313 71.0381 164.733 70.0453 190.258V202.224C70.6835 224.135 74.7525 246.047 83.164 266.337C95.4754 296.371 116.34 322.419 141.326 342.94C161.668 359.59 184.651 373.132 209.309 382.308C228.968 389.508 248.938 395.823 269.076 401.535C312.791 414.121 357.701 422.544 400.574 437.946C416.005 443.685 431.721 449.468 445.264 459.033C455.936 466.473 465.039 477.721 465.996 491.13C466.962 499.013 464.32 506.807 459.941 513.281L601.855 513.29V304.439C586.769 293.51 570.594 284.077 553.718 276.177C523.246 261.962 490.725 252.973 458.329 244.329C426.119 235.818 393.812 227.678 361.779 218.503C352.384 215.704 343.094 212.31 334.567 207.43C328.008 203.64 321.875 198.832 317.559 192.543C311.044 183.226 309.563 170.623 313.676 160.039C317.283 150.757 325.216 143.822 333.964 139.438C347.924 132.477 363.853 130.572 379.293 131.077C391.525 131.626 403.747 133.486 415.447 137.161C429.23 141.537 442.25 149.463 450.918 161.225C461.572 175.555 465.366 194.2 463.318 211.754C463.318 211.754 463.318 211.754 601.855 211.665V74.935H102.283ZM91.8231 448.308L91.8769 513.431L317.533 513.449L317.613 448.317L91.8231 448.308ZM373.23 544.594C369.539 544.659 365.863 545.324 362.458 546.774C359.238 548.159 356.226 550.402 354.597 553.577C353.158 556.308 353.116 559.568 353.768 562.528C354.417 565.418 356.33 567.951 358.882 569.438C362.667 571.682 367.126 572.272 371.422 572.74C373.164 572.955 375.024 572.901 376.625 573.713C377.847 574.303 377.901 576.271 376.718 576.929C375.355 577.66 373.694 577.573 372.221 577.282C371.044 577.042 370.143 576.014 370.132 574.797C364.447 574.806 358.763 574.792 353.079 574.806C353.09 578.771 354.563 582.792 357.498 585.524C361.151 588.981 366.224 590.474 371.138 590.872C375.999 591.18 380.995 590.758 385.564 588.983C388.624 587.787 391.486 585.778 393.148 582.889C395.031 579.581 395.358 575.484 394.308 571.852C393.405 568.774 390.924 566.388 388.048 565.093C383.368 562.937 378.132 562.65 373.08 562.161C371.843 562.088 370.511 561.134 370.678 559.769C370.728 558.143 372.558 557.457 373.944 557.44C375.383 557.406 377.316 557.853 377.633 559.512C383.156 559.521 388.679 559.512 394.203 559.518C394.143 556.185 392.981 552.821 390.658 550.391C387.649 547.16 383.285 545.595 379.006 544.96C377.621 544.764 376.219 544.642 374.813 544.603C374.286 544.588 373.758 544.585 373.23 544.594ZM438.11 545.039C436.609 545.026 435.108 545.136 433.628 545.368C428.587 546.155 423.7 548.431 420.149 552.141C416.954 555.403 414.996 559.766 414.384 564.27C413.661 569.443 414.366 574.916 416.917 579.519C419.229 583.735 423.094 586.999 427.515 588.839C435.92 592.355 446.249 591.329 453.501 585.693C457.48 582.615 460.219 578.042 461.167 573.113C462.175 567.858 461.675 562.231 459.313 557.395C457.503 553.692 454.551 550.586 451 548.512C447.113 546.222 442.614 545.077 438.11 545.039ZM562.888 546.895C556.622 546.929 550.358 546.898 544.094 546.909C543.888 548.041 544.768 548.857 545.279 549.757C550.704 558.344 556.206 566.891 561.586 575.504C561.651 580.6 561.596 585.699 561.61 590.796C567.326 590.796 573.045 590.798 578.761 590.796C578.746 585.688 578.752 580.583 578.761 575.478C584.552 566.431 590.298 557.353 596.088 548.303C596.404 547.905 596.297 547.38 596.328 546.909H577.505C576.06 549.231 574.586 551.534 573.163 553.868C572.119 556.201 571.233 558.605 570.205 560.947C569.257 558.622 568.329 556.289 567.332 553.984C565.89 551.599 564.413 549.229 562.888 546.895ZM524.059 546.9C518.405 546.934 512.752 546.903 507.101 546.914C507.106 549.558 507.081 552.205 507.11 554.849C507.42 557.948 507.815 561.039 508.168 564.132C504.12 558.412 500.144 552.641 496.107 546.912C491.346 546.921 486.587 546.912 481.825 546.914C481.808 561.543 481.844 576.17 481.808 590.796C487.523 590.807 493.24 590.807 498.958 590.796C498.899 588.219 498.989 585.644 498.913 583.07C498.529 579.884 498.035 576.711 497.649 573.525C501.688 579.287 505.751 585.034 509.787 590.799C514.569 590.805 519.35 590.807 524.132 590.796C524.127 580.699 524.13 570.599 524.13 560.503C524.085 555.971 524.22 551.43 524.059 546.9ZM254.115 548.722C248.554 562.741 243.054 576.784 237.467 590.792C239.625 590.816 241.779 590.802 243.937 590.804C245.267 587.309 246.617 583.823 247.943 580.327C253.549 580.306 259.154 580.317 264.76 580.322C266.067 583.818 267.405 587.302 268.704 590.797C270.843 590.805 272.979 590.811 275.118 590.797C269.539 576.786 264.037 562.746 258.476 548.727C257.02 548.724 255.568 548.73 254.115 548.722ZM141.593 548.725C136.037 562.745 130.528 576.785 124.948 590.796C127.103 590.815 129.259 590.802 131.415 590.805C132.75 587.309 134.093 583.818 135.424 580.323C141.027 580.312 146.631 580.315 152.235 580.323C153.557 583.815 154.875 587.309 156.192 590.805C158.326 590.802 160.462 590.815 162.596 590.796C157.032 576.787 151.503 562.762 145.974 548.737C144.513 548.711 143.053 548.736 141.593 548.725ZM89.2063 548.888C86.1092 548.949 83.0297 549.712 80.3047 551.203C72.5298 555.247 68.1225 564.571 69.5327 573.158C70.2618 577.85 72.5872 582.286 76.0409 585.55C79.5718 588.88 84.3701 590.849 89.234 590.881C93.7069 590.979 98.2221 589.533 101.734 586.743C105.441 583.846 107.968 579.589 109.086 575.048C107.138 575.064 105.191 575.054 103.243 575.054C102.477 577.235 101.295 579.295 99.632 580.915C94.8931 585.722 86.5916 586.331 81.2434 582.184C77.7976 579.635 75.4959 575.578 75.1473 571.303C74.7163 566.882 76.3233 562.305 79.463 559.152C82.1105 556.396 85.9088 554.725 89.7484 554.834C93.3671 554.831 97.0457 556.161 99.5921 558.782C101.111 560.295 102.142 562.214 102.9 564.201C104.872 564.182 106.84 564.197 108.809 564.192C107.851 560.494 106.019 556.984 103.271 554.302C99.5787 550.633 94.3683 548.786 89.2063 548.888ZM189.71 549.267C188.161 549.27 186.614 549.254 185.068 549.278C185.082 563.113 185.082 576.951 185.068 590.787C187.069 590.811 189.07 590.799 191.071 590.796C191.058 581.139 191.067 571.48 191.069 561.824C197.756 571.464 204.388 581.141 211.051 590.798C212.632 590.798 214.215 590.804 215.798 590.796C215.79 576.955 215.79 563.112 215.798 549.271C213.824 549.263 211.852 549.267 209.88 549.267C209.878 559.001 209.929 568.734 209.854 578.468C203.122 568.748 196.426 559.001 189.71 549.267ZM298.164 549.271C298.172 563.112 298.175 576.955 298.164 590.796C306.647 590.804 315.132 590.801 323.615 590.796C323.604 588.803 323.612 586.813 323.61 584.821C317.128 584.823 310.648 584.822 304.166 584.824C304.145 572.976 304.151 561.127 304.165 549.276C302.164 549.255 300.162 549.268 298.164 549.271ZM256.338 558.333C258.467 563.749 260.463 569.221 262.568 574.65C258.425 574.666 254.286 574.649 250.145 574.662C252.213 569.22 254.274 563.773 256.338 558.333ZM143.859 558.363C145.922 563.795 147.977 569.23 150.042 574.662C145.899 574.646 141.759 574.673 137.616 574.649C139.737 569.235 141.686 563.752 143.859 558.363ZM437.9 560.324C439.68 560.36 441.445 561.129 442.626 562.471C444.216 564.258 444.734 566.787 444.469 569.115C444.252 571.166 443.278 573.215 441.539 574.397C439.586 575.791 436.851 575.944 434.735 574.832C431.175 572.975 430.315 568.204 431.633 564.682C432.361 562.69 434.066 561.055 436.137 560.539C436.712 560.382 437.307 560.312 437.9 560.324Z" fill="black"/>
</svg>
