<svg width="100" height="100" viewBox="0 0 667 667" fill="none" xmlns="http://www.w3.org/2000/svg">
<path d="M333.02 464.011C264.379 464.011 208.72 408.786 208.72 340.675C208.72 291.27 238.009 248.658 280.291 228.98V202.354C280.291 173.46 303.892 150.039 333.02 150.039C362.143 150.039 385.71 173.46 385.71 202.354L384.78 228.561C427.574 248.049 457.316 290.908 457.316 340.675C457.316 408.786 401.665 464.011 333.02 464.011ZM333.02 113C211.529 113 113 211.495 113 332.993C113 454.507 211.529 553 333.02 553C454.507 553 553 454.507 553 332.993C553 211.495 454.507 113 333.02 113ZM333.02 286.81C303.917 286.81 280.3 310.214 280.3 339.093C280.3 367.979 303.917 391.389 333.02 391.389C362.093 391.389 385.703 367.979 385.703 339.093C385.703 310.214 362.093 286.81 333.02 286.81Z" fill="black"/>
</svg>
