<svg width="100" height="100" viewBox="0 0 667 667" fill="none" xmlns="http://www.w3.org/2000/svg">
<path d="M389.279 305.773C389.279 330.606 389.407 346.853 389.599 348.64C391.454 365.047 400.983 374.399 418.73 377.208C420.041 377.432 425.797 377.655 431.584 377.751L442.041 377.91V366.1V354.29L434.462 354.131C426.82 353.971 425.445 353.779 422.439 352.535C420.648 351.768 417.898 349.023 417.099 347.14C415.628 343.757 415.5 342.161 415.5 327.35V313.37L425.445 313.306L435.358 313.21L440.314 301.592C443.032 295.208 445.238 289.845 445.238 289.718C445.238 289.558 438.555 289.43 430.369 289.43H415.5V277.62V265.81H402.39H389.279V305.773Z" fill="black"/>
<path d="M569.66 266.512C569.5 266.927 567.326 272.066 564.831 277.939C562.337 283.813 560.227 288.824 560.131 289.015C560.003 289.335 565.247 289.43 585.233 289.494L610.494 289.59L596.392 302.198L582.259 314.806L582.163 323.169L582.099 331.532L597.352 331.659C613.724 331.787 614.012 331.819 617.433 333.511C619.48 334.532 621.494 336.862 622.166 338.905C622.933 341.235 622.869 344.81 622.038 347.013C620.887 350.173 618.297 352.215 613.916 353.492C612.189 354.003 609.727 354.067 587.151 354.162L562.273 354.258V366.036V377.846H588.015C604.579 377.846 614.907 377.719 617.017 377.495C626.355 376.506 634.253 373.027 639.721 367.6C646.084 361.248 649.282 351.832 648.834 340.98C648.61 335.841 647.875 332.777 645.765 328.531C641.096 319.083 631.919 313.242 619.32 311.678L616.282 311.295L629.872 298.687L643.462 286.079V275.928L643.494 265.81H606.721H569.948L569.66 266.512Z" fill="black"/>
<path d="M160.326 287.866C152.747 288.856 144.209 293.356 140.148 298.463C139.381 299.453 138.645 300.251 138.517 300.251C138.358 300.283 138.262 297.825 138.262 294.857V289.43H125.471H112.68V347.683V405.935H125.791H138.901V387.39V368.813L140.596 370.409C146.384 375.867 154.314 378.868 164.163 379.315C176.218 379.889 187.026 375.644 195.18 367.122C204.038 357.865 208.451 345.512 207.875 331.436C206.788 304.081 185.523 284.611 160.326 287.866ZM164.483 311.582C172.86 313.37 179.064 319.179 181.27 327.255C182.517 331.851 182.166 338.139 180.439 342.512C177.145 350.875 169.151 356.173 159.846 356.173C147.183 356.173 137.942 346.661 137.942 333.638C137.942 325.435 141.619 318.413 148.047 314.327C152.427 311.582 159.142 310.433 164.483 311.582Z" fill="black"/>
<path d="M260.253 287.707C243.785 289.462 229.715 298.687 222.552 312.444C218.907 319.371 217.436 325.499 217.468 333.638C217.468 339.575 218.012 343.15 219.674 348.13C224.887 363.802 237.965 375.133 255.105 378.868C257.887 379.474 259.326 379.57 265.369 379.57C271.445 379.57 272.852 379.474 275.634 378.868C285.578 376.697 293.253 372.58 300.064 365.749C306.939 358.855 311.064 351.002 312.727 341.618C313.462 337.341 313.462 329.968 312.727 325.659C309.433 306.794 294.788 292.303 275.186 288.473C271.86 287.802 263.387 287.387 260.253 287.707ZM270.933 312.093C279.855 314.232 286.026 321.286 287.305 330.766C288.009 336.064 286.602 342.033 283.628 346.534C276.401 357.386 260.349 359.206 250.34 350.3C245.32 345.863 242.442 337.756 243.401 330.861C244.872 320.52 251.203 313.817 261.532 311.646C263.419 311.263 268.439 311.518 270.933 312.093Z" fill="black"/>
<path d="M48.1831 289.781C46.5843 289.941 43.9302 290.42 42.2675 290.835C31.2035 293.644 23.9448 300.155 21.1628 309.763C20.5233 311.933 20.4273 312.955 20.4273 317.679C20.4593 323.967 20.875 326.137 22.8256 330.127C26.3111 337.341 33.8895 341.874 46.0087 344.012C47.9273 344.363 54.4506 345.161 60.4622 345.768C66.4738 346.374 72.0058 347.108 72.7413 347.364C75.1715 348.225 76.5465 350.077 76.5465 352.471V353.588H90.0407H103.503L103.279 349.821C103.023 345.065 102.128 341.395 100.465 337.947C99.3779 335.745 98.5785 334.692 96.2122 332.362C93.8459 330 92.7587 329.202 90.1047 327.829C83.4855 324.382 79.2326 323.456 62.093 321.669C48.439 320.264 47.4797 320.041 46.6163 317.966C45.593 315.476 46.9361 313.434 50.0058 312.763C51.0611 312.54 57.6483 312.412 68.8401 312.412H86.0116L90.8081 301.208C93.4302 295.016 95.6366 289.845 95.6686 289.718C95.8285 289.335 52.0523 289.43 48.1831 289.781Z" fill="black"/>
<path d="M323.407 333.638V377.846H336.517H349.596L349.692 354.769C349.788 332.17 349.82 331.659 350.491 329.234C352.922 320.647 358.933 315.572 368.75 313.848C370.093 313.593 373.259 313.402 375.785 313.37H380.326V301.368V289.335L375.977 289.558C364.945 290.133 358.997 292.271 353.625 297.57C352.218 298.974 350.587 300.698 350.044 301.4L349.02 302.677V296.038L348.988 289.43H336.198H323.407V333.638Z" fill="black"/>
<path d="M449.395 289.526C449.395 289.59 457.645 309.476 467.75 333.67L486.105 377.687L498.831 377.751L511.59 377.846L530.073 334.309C540.241 310.337 548.651 290.452 548.747 290.101L548.907 289.43H533.878H518.849L516.642 295.399C515.427 298.719 511.047 310.561 506.922 321.764C501.997 335.202 499.343 341.969 499.151 341.682C499.023 341.459 494.674 329.648 489.558 315.444L480.253 289.59L464.808 289.494C456.334 289.462 449.395 289.462 449.395 289.526Z" fill="black"/>
<path d="M25.1919 366.068C22.5698 372.261 20.3634 377.432 20.3314 377.559C20.2674 377.719 30.0523 377.815 42.811 377.783L65.4186 377.687L70.1831 366.515C72.8052 360.355 74.9477 355.248 74.9477 355.088C74.9477 354.96 64.843 354.865 52.468 354.865H29.9884L25.1919 366.068Z" fill="black"/>
</svg>
