<svg width="100" height="100" viewBox="0 0 667 667" fill="none" xmlns="http://www.w3.org/2000/svg">
<g clip-path="url(#clip0_1_2)">
<path d="M16.1993 356.337L4 385.006H60.2705L72.4403 356.337H16.1993Z" fill="black"/>
<path d="M305.941 357.755C300.424 357.808 295.017 356.221 290.403 353.194C285.79 350.168 282.178 345.839 280.026 340.756C277.875 335.673 277.28 330.066 278.317 324.644C279.355 319.223 281.978 314.232 285.854 310.304C289.729 306.376 294.684 303.688 300.088 302.581C305.493 301.474 311.104 301.997 316.211 304.085C321.318 306.173 325.69 309.731 328.773 314.308C331.856 318.885 333.512 324.276 333.53 329.796C333.655 333.471 333.03 337.134 331.692 340.559C330.355 343.985 328.333 347.101 325.751 349.718C323.168 352.335 320.08 354.398 316.674 355.78C313.267 357.162 309.615 357.834 305.941 357.755ZM305.941 272.25C272.444 272.25 246.096 297.343 246.096 329.796C246.096 362.248 272.444 387.518 305.941 387.518C339.437 387.518 365.785 362.218 365.785 329.796C365.785 297.373 339.437 272.25 305.941 272.25Z" fill="black"/>
<path d="M174.436 358.11C158.663 358.11 147.025 346.11 147.025 329.796C147.025 322.474 149.931 315.453 155.105 310.276C160.279 305.099 167.296 302.191 174.613 302.191C181.93 302.191 188.948 305.099 194.122 310.276C199.296 315.453 202.202 322.474 202.202 329.796C202.331 333.504 201.705 337.199 200.362 340.657C199.019 344.116 196.987 347.265 194.39 349.913C191.793 352.561 188.685 354.654 185.255 356.063C181.824 357.472 178.144 358.168 174.436 358.11ZM181.762 272.25C175.178 272.03 168.639 273.416 162.711 276.29C156.782 279.163 151.642 283.437 147.733 288.743V274.763H115.862V419.97H148.354V373.538C155.679 382.139 168.233 386.986 182.382 386.986C212.304 386.986 234.34 361.686 234.34 329.973C234.34 297.166 211.389 272.25 181.643 272.25" fill="black"/>
<path d="M625.368 274.763L600.999 340.909L577.191 274.763H538.821L584.694 385.006H616.241L663 274.763H625.368Z" fill="black"/>
<path d="M414.494 385.006V333.727C414.494 315.254 425.246 304.348 446.986 304.348H452.539V274.792H449.586C431.863 274.792 421.288 279.817 413.578 291.639V274.792H381.677V385.036L414.494 385.006Z" fill="black"/>
<path d="M107.561 354.504V352.051C107.561 328.939 92.7922 318.712 66.7098 316.023L43.9654 313.658C38.4122 313.126 36.4331 311.501 36.4331 308.456C36.4331 305.412 38.7666 303.432 43.7586 303.432H85.8507L98.0501 274.733H45.2059C20.3051 274.733 3.85229 288.713 3.85229 309.343C3.85229 329.973 14.7815 340.909 44.5266 343.953L65.4988 346.11C71.052 346.642 74.0944 348.8 74.0944 353.647V354.534L107.561 354.504Z" fill="black"/>
<path d="M529.516 385.006V355.45H516.076C502.636 355.45 496.492 349.362 496.492 336.091V304.319H521.216L533.77 274.763H496.552V245H464.059V341.086C464.059 369.962 480.187 385.006 513.507 385.006H529.516Z" fill="black"/>
</g>
<defs>
<clipPath id="clip0_1_2">
<rect width="659" height="175" fill="white" transform="translate(4 245)"/>
</clipPath>
</defs>
</svg>
