<svg width="100" height="100" viewBox="0 0 667 667" fill="none" xmlns="http://www.w3.org/2000/svg">
    <g clip-path="url(#clip0_1_2)">
        <g clip-path="url(#clip1_1_2)">
            <path
                d="M395.441 301.391C395.441 338.582 395.581 345.922 396.561 350.536C399.22 363.399 407.269 371.718 420.847 375.633C423.227 376.332 429.106 376.821 437.994 377.031L451.432 377.381V364.797V352.214L442.894 351.934C432.185 351.655 428.686 350.256 425.676 345.223L423.786 341.937L423.577 324.95L423.297 308.032H434.145H444.923L450.173 295.589L455.352 283.215L439.394 283.006L423.437 282.866V270.282V257.699H409.439H395.441V301.391Z"
                fill="black" />
            <path
                d="M586.722 258.887C586.512 259.587 584.272 264.83 581.753 270.632C579.303 276.364 577.133 281.468 576.924 281.957C576.644 282.586 582.663 282.866 602.75 283.006C627.386 283.215 628.996 283.285 631.235 284.613C636.835 287.899 638.164 293.771 634.595 299.783C633.475 301.671 622.277 312.856 605.479 328.935L578.113 354.94V366.056V377.241H622.207H666.3V364.657V352.074L642.714 351.934L619.127 351.725L633.055 339.071C659.931 314.744 664.62 308.312 665.39 294.051C666.44 276.155 658.041 264.41 640.614 259.307C637.254 258.328 632.425 258.119 611.848 257.839C588.542 257.629 587.212 257.699 586.722 258.887Z"
                fill="black" />
            <path
                d="M146.838 281.887C141.099 283.215 134.87 286.571 130.88 290.416L127.381 293.771V288.319V282.866H113.383H99.3851V345.083V407.301H113.383H127.381V387.727V368.083L131.09 370.879C138.999 376.751 145.788 378.849 156.776 378.919C168.885 378.919 178.543 375.004 186.942 366.755C197.3 356.548 202.27 342.706 201.36 326.907C200.87 318.379 199.54 313.415 195.551 305.376C186.662 287.27 165.875 277.273 146.838 281.887ZM156.776 307.054C163.635 309.081 168.815 313.485 171.754 319.847C173.924 324.531 173.854 335.646 171.684 340.33C164.965 354.8 145.788 358.785 134.24 348.019C132.42 346.342 130.041 343.126 128.991 340.959C127.241 337.463 127.031 336.275 127.031 330.053C127.031 323.831 127.241 322.643 128.991 319.078C134.03 308.871 145.788 303.768 156.776 307.054Z"
                fill="black" />
            <path
                d="M251.892 281.747C241.674 283.914 232.995 288.598 225.716 295.799C217.597 303.978 213.398 312.576 211.928 324.461C210.458 335.786 213.188 347.181 219.697 357.107C225.646 366.195 234.885 373.186 246.013 376.961C254.062 379.687 267.29 380.177 275.759 378.01C297.945 372.557 313.063 354.521 314.043 332.5C314.463 322.923 313.203 316.701 308.934 308.032C306.274 302.65 304.594 300.343 299.975 295.729C295.286 291.115 293.046 289.507 287.657 286.85C284.017 285.033 279.118 283.075 276.808 282.446C270.929 280.908 257.631 280.559 251.892 281.747ZM274.079 309.081C287.307 315.512 290.596 334.947 280.378 346.272C272.819 354.591 260.361 356.408 250.492 350.466C235.025 341.238 236.075 316.561 252.242 308.801C258.681 305.656 267.29 305.795 274.079 309.081Z"
                fill="black" />
            <path
                d="M26.806 283.635C19.3171 284.893 12.3181 288.598 7.48885 293.981C2.37961 299.644 0.279929 306.355 0.909835 315.303C1.39976 322.713 2.93953 326.837 6.64897 330.962C12.948 337.953 21.2768 340.749 42.4836 342.986C49.8325 343.755 56.6915 344.734 57.6013 345.153C59.3511 345.922 60.8908 348.439 60.8908 350.326C60.8908 351.235 63.2005 351.375 75.3087 351.375H89.7965L89.3766 345.712C88.6767 336.485 85.1772 330.263 77.8983 325.369C71.8792 321.245 64.9502 319.427 48.7827 317.75C30.3054 315.862 27.8558 314.953 28.9056 310.689C29.6755 307.683 32.1951 307.333 52.4921 307.333H71.1793L76.2185 295.449C78.9481 288.948 81.1878 283.425 81.1878 283.215C81.1878 282.656 30.7254 283.006 26.806 283.635Z"
                fill="black" />
            <path
                d="M324.751 330.053V377.241H338.679H352.607L352.887 352.214C353.167 328.445 353.237 327.047 354.707 323.342C358.346 314.184 365.205 309.78 377.873 308.522L385.642 307.753V295.309V282.866H382.003C371.224 282.866 361.496 286.571 355.967 292.723L352.747 296.288V289.577V282.866H338.749H324.751V330.053Z"
                fill="black" />
            <path
                d="M459.831 283.145C459.831 283.285 468.58 304.467 479.358 330.123L498.815 376.891H512.673H526.531L546.338 330.193C557.256 304.467 566.215 283.285 566.215 283.145C566.215 283.006 558.936 282.936 550.048 283.006L533.81 283.215L523.592 310.969C517.992 326.208 513.233 338.512 513.023 338.302C512.813 338.162 508.194 325.649 502.805 310.619L492.866 283.215L476.349 283.006C467.25 282.936 459.831 282.936 459.831 283.145Z"
                fill="black" />
            <path
                d="M9.72852 356.059C8.88865 357.946 7.69883 360.812 6.99893 362.56C6.29904 364.308 4.61929 368.293 3.2195 371.508L0.769867 377.241L24.9862 377.101L49.2026 376.891L51.3023 371.998C52.4221 369.271 54.7318 363.888 56.4115 359.904L59.4211 352.773H35.2747H11.1283L9.72852 356.059Z"
                fill="black" />
        </g>
    </g>
    <defs>
        <clipPath id="clip0_1_2">
            <rect width="666.667" height="666.667" fill="white" />
        </clipPath>
        <clipPath id="clip1_1_2">
            <rect width="667" height="151" fill="white" transform="translate(0 257)" />
        </clipPath>
    </defs>
</svg>