<svg width="100" height="100" viewBox="0 0 667 667" fill="none" xmlns="http://www.w3.org/2000/svg">
    <path fill-rule="evenodd" clip-rule="evenodd"
        d="M195.6 230.749H34V269.106H90.3231V431.33H137.872V269.106H195.6V230.749ZM578.01 230.749L526.158 354.905L474.599 230.749H419.029V431.33H463.714V306.037L515.56 431.329H536.471L588.028 306.037V431.329H633V230.749H578.01ZM403.147 290.56L402.604 288.926C389.124 248.272 349.716 222 302.208 222C269.739 222 241.898 232.647 221.69 252.789C201.536 272.884 190.881 300.516 190.881 332.699C190.881 400.312 234.452 444 301.881 444C325.901 444 348.283 437.102 366.604 424.051C383.664 412.107 396.228 394.811 402.295 374.918L402.762 373.323L383.908 368.136C378.632 385.25 368.904 399.683 356.373 408.891C341.02 420.01 322.489 425.905 303.518 425.705C248.487 425.705 212.929 388.994 212.929 332.179C212.929 305.213 221.627 282.018 238.082 265.103C254.603 248.119 277.318 239.142 303.767 239.142C340.947 239.142 373.48 261.735 385.223 295.505L403.147 290.56ZM302.063 263.49C328.475 263.49 348.624 277.931 355.957 302.119L356.403 303.586L378.127 297.548C367.276 266.957 337.562 246.501 303.728 246.501C279.33 246.501 258.445 254.712 243.331 270.248C228.217 285.784 220.244 307.188 220.244 332.18C220.244 384.524 252.916 418.344 303.48 418.344C320.884 418.54 337.889 413.143 351.981 402.951C363.168 394.738 371.958 381.677 376.837 366.1L357.311 360.666L356.878 362.151C349.427 387.794 329.448 402.503 302.066 402.503C264.315 402.503 239.925 374.882 239.925 332.122C239.925 311.539 245.729 294.232 256.72 282.079C267.712 269.926 283.387 263.49 302.063 263.49Z"
        fill="black" />
</svg>