<svg width="100" height="100" viewBox="0 0 667 667" fill="none" xmlns="http://www.w3.org/2000/svg">
    <g clip-path="url(#clip0_1_2)">
        <path
            d="M65.979 293.584H39.0489C36.291 293.584 35 291.98 35 289.437V269.634C35 267.303 36.3465 265.754 39.0059 265.754H122.767C125.825 265.754 126.869 267.591 126.869 270.169V289.437C126.869 292.675 124.825 293.584 122.733 293.584H95.8896V394.605C95.8896 396.582 94.7241 398.619 91.8838 398.619H69.9896C67.3901 398.619 65.979 397.203 65.979 394.839V293.584Z"
            fill="black" />
        <path
            d="M196.829 402C159.145 402 128.46 371.658 128.46 333.219C128.46 294.598 159.448 264 197.032 264C219.163 264 233.706 273.057 242.506 281.676C243.448 282.434 244.073 283.087 244.073 284.612C244.073 285.636 243.792 286.379 243.04 287.028L228.089 302.819C227.598 303.295 226.801 303.739 225.836 303.739C224.256 303.739 223.602 303.011 222.939 302.294C218.001 297.717 208.143 292.958 197.976 292.958C176.647 292.958 160.716 310.742 160.716 332.411C160.716 354.61 177.42 371.297 198.116 371.297C209.837 371.297 219.809 365.623 223.261 362.194C223.804 361.653 224.67 361.274 225.919 361.274C227.469 361.274 228.009 361.842 228.816 362.755L242.992 377.987C243.647 378.652 244.053 379.357 244.053 380.568C244.053 381.778 243.648 382.846 242.742 383.662C231.048 394.789 215.767 402 196.829 402Z"
            fill="black" />
        <path
            d="M309.106 304.1C297.619 304.1 293.002 310.641 293.002 310.641V305.685H276.494V382.616H293.002V355.572C293.002 355.572 297.326 362.157 309.129 362.157C325.224 362.157 334.946 347.703 334.946 333.247C334.946 317.245 323.615 304.1 309.106 304.1ZM305.748 319.784C313.039 319.784 318.686 324.733 318.686 333.099C318.686 342.097 312.364 346.65 305.748 346.65C297.496 346.65 292.904 340.607 292.904 333.287C292.904 325.826 297.27 319.784 305.748 319.784Z"
            fill="black" />
        <path d="M346.295 305.587H363.29V360.666H346.295V305.587Z" fill="black" />
        <path
            d="M354.771 300.848C360.38 300.848 364.927 296.398 364.927 290.909C364.927 285.419 360.38 280.97 354.771 280.97C349.162 280.97 344.615 285.419 344.615 290.909C344.615 296.398 349.162 300.848 354.771 300.848Z"
            fill="black" />
        <path
            d="M596.624 304.19C582.678 304.19 569.545 315.945 569.545 333.342C569.545 349.305 581.586 362.152 597 362.152C609.038 362.152 613.919 355.273 613.919 355.273V360.518H631V305.583H613.919V311.104C613.919 311.104 609.754 304.19 596.624 304.19ZM600.262 319.73C608.307 319.73 613.811 325.009 613.811 333.063C613.811 342.056 607.776 346.449 599.948 346.449C592.203 346.449 586.66 341.102 586.66 333.29C586.66 324.294 593.104 319.73 600.262 319.73Z"
            fill="black" />
        <path
            d="M541.187 362.163C525.151 362.163 511.86 350.673 511.86 332.991C511.86 315.355 525.191 304.201 541.044 304.201C553.201 304.201 561.617 310.644 566.215 318.129L551.549 326.614C549.973 323.215 546.742 320.482 540.768 320.482C533.096 320.482 528.359 326.479 528.359 333.115C528.359 341.409 534.522 345.891 541.078 345.891C546.151 345.891 549.983 343.508 551.628 339.712L566.221 348.009C562.527 354.325 554.191 362.163 541.187 362.163Z"
            fill="black" />
        <path
            d="M474.049 304.166C457.866 304.166 444.439 316.436 444.439 333.373C444.439 348.343 456.093 362.113 474.363 362.113C489.931 362.113 504.053 350.739 504.053 333.127C504.053 316.66 490.992 304.166 474.049 304.166ZM474.135 320.199C481.454 320.199 487.096 325.062 487.096 333.127C487.096 341.442 480.996 346.066 474.271 346.066C466.379 346.066 461.345 340.338 461.345 333.237C461.345 325.331 467.144 320.199 474.135 320.199Z"
            fill="black" />
        <path
            d="M410.303 304.1C398.817 304.1 394.2 310.641 394.2 310.641V305.685H377.692V382.616H394.2V355.572C394.2 355.572 398.524 362.157 410.327 362.157C426.422 362.157 436.144 347.703 436.144 333.247C436.144 317.245 424.813 304.1 410.303 304.1ZM406.946 319.784C414.236 319.784 419.884 324.733 419.884 333.099C419.884 342.097 413.562 346.65 406.946 346.65C398.693 346.65 394.102 340.607 394.102 333.287C394.102 325.826 398.467 319.784 406.946 319.784Z"
            fill="black" />
    </g>
    <defs>
        <clipPath id="clip0_1_2">
            <rect width="596" height="138" fill="white" transform="translate(35 264)" />
        </clipPath>
    </defs>
</svg>