<svg width="100" height="100" viewBox="0 0 667 667" fill="none" xmlns="http://www.w3.org/2000/svg">
<path d="M48.0298 288.385H17.5783C14.4598 288.385 13 286.574 13 283.704V261.358C13 258.727 14.5226 256.979 17.5297 256.979H112.243C115.701 256.979 116.881 259.052 116.881 261.961V283.704C116.881 287.359 114.571 288.385 112.205 288.385H81.8516V402.382C81.8516 404.614 80.5337 406.912 77.3219 406.912H52.5649C49.6254 406.912 48.0298 405.314 48.0298 402.647V288.385Z" fill="black"/>
<path d="M195.989 410.727C153.378 410.727 118.68 376.487 118.68 333.111C118.68 289.528 153.721 255 196.219 255C221.244 255 237.688 265.221 247.639 274.947C248.705 275.802 249.412 276.539 249.412 278.26C249.412 279.415 249.094 280.254 248.243 280.986L231.337 298.806C230.782 299.343 229.88 299.844 228.789 299.844C227.003 299.844 226.263 299.023 225.513 298.213C219.931 293.049 208.783 287.678 197.287 287.678C173.168 287.678 155.155 307.747 155.155 332.199C155.155 357.25 174.043 376.081 197.445 376.081C210.698 376.081 221.975 369.677 225.877 365.808C226.492 365.198 227.471 364.77 228.884 364.77C230.637 364.77 231.246 365.411 232.16 366.441L248.189 383.63C248.93 384.38 249.389 385.176 249.389 386.542C249.389 387.908 248.931 389.112 247.906 390.034C234.684 402.59 217.404 410.727 195.989 410.727Z" fill="black"/>
<path d="M311.776 301.279C296.487 301.279 282.088 314.14 282.088 333.173C282.088 350.638 295.289 364.694 312.188 364.694C325.385 364.694 330.736 357.168 330.736 357.168V362.906H349.462V302.803H330.736V308.843C330.736 308.843 326.17 301.279 311.776 301.279ZM315.763 318.281C324.583 318.281 330.617 324.056 330.617 332.869C330.617 342.707 324.001 347.513 315.42 347.513C306.929 347.513 300.852 341.663 300.852 333.116C300.852 323.274 307.916 318.281 315.763 318.281Z" fill="black"/>
<path d="M397.018 364.705C379.438 364.705 364.867 352.134 364.867 332.79C364.867 313.494 379.482 301.291 396.861 301.291C410.189 301.291 419.416 308.34 424.456 316.529L408.378 325.812C406.65 322.094 403.108 319.104 396.559 319.104C388.148 319.104 382.955 325.664 382.955 332.925C382.955 341.999 389.711 346.903 396.899 346.903C402.46 346.903 406.661 344.295 408.464 340.143L424.463 349.22C420.413 356.13 411.275 364.705 397.018 364.705Z" fill="black"/>
<path d="M439.768 320.622H430.103V302.954H439.768V291.326L458.041 285.889V302.954H470.575V320.622H458.041V341.16C458.041 348.263 462.49 347.724 470.575 347.503V364.139C470.575 364.139 467.274 364.705 462.466 364.705C448.546 364.705 439.768 360.805 439.768 342.368V320.622Z" fill="black"/>
<path d="M482.052 364.718V302.199H501.382V364.718H482.052Z" fill="black"/>
<path d="M547.149 301.253C529.406 301.253 514.687 314.677 514.687 333.208C514.687 349.586 527.463 364.651 547.493 364.651C564.559 364.651 580.041 352.207 580.041 332.938C580.041 314.922 565.723 301.253 547.149 301.253ZM547.243 318.794C555.267 318.794 561.452 324.114 561.452 332.938C561.452 342.035 554.764 347.095 547.392 347.095C538.739 347.095 533.221 340.827 533.221 333.058C533.221 324.409 539.579 318.794 547.243 318.794Z" fill="black"/>
<path d="M593.5 362.604V302.803H612.226V308.541C612.226 308.541 616.401 301.263 629.61 301.263C643.389 301.263 653 310.864 653 325.455V362.604H634.576V328.777C634.576 321.401 629.738 317.833 623.613 317.833C615.13 317.833 612.226 323.81 612.226 329.381V362.604H593.5Z" fill="black"/>
<path d="M491.624 296.752C497.972 296.752 503.119 291.726 503.119 285.528C503.119 279.329 497.972 274.304 491.624 274.304C485.276 274.304 480.129 279.329 480.129 285.528C480.129 291.726 485.276 296.752 491.624 296.752Z" fill="black"/>
</svg>
