<svg width="100" height="100" viewBox="0 0 667 667" fill="none" xmlns="http://www.w3.org/2000/svg">
<path d="M248.811 261.682H295.707C305.47 260.636 314.884 265.866 319.242 274.757L367.185 350.244H368.754V261.682H560.872C521.472 135.811 387.408 65.5536 261.537 104.954C186.747 128.315 128.344 186.892 104.809 261.682H248.811Z" fill="black"/>
<path d="M516.416 296.549V437.587H468.823V296.549H414.43V437.587H382.701C372.938 438.633 363.524 433.403 359.165 424.512L297.625 332.288H296.579V437.587H250.379V296.549H196.161V437.587H147.87V296.549H96.7894C94.8717 308.578 94 320.956 94 333.16C94 465.132 200.868 572 332.84 572C464.813 572 571.681 465.132 571.681 333.16C571.681 320.956 570.809 308.752 568.892 296.549H516.416Z" fill="black"/>
</svg>
