<svg width="100" height="100" viewBox="0 0 667 667" fill="none" xmlns="http://www.w3.org/2000/svg">
    <path
        d="M634.521 273.878C631.459 281.519 615.559 305.438 598.682 329.567C582.444 352.782 565.304 376.192 557.822 385.486C567.02 329.671 560.788 261.307 524.269 219C548.501 219.833 568.415 225.082 584.416 232.249C612.141 244.673 628.13 262.87 634.521 273.878Z"
        fill="black" />
    <path
        d="M557.822 385.485C557.112 382.218 545.18 343.467 535.896 326.763C526.145 309.216 504.999 286.688 469.777 278.34C473.484 273.384 481.678 260.723 494.006 247.275C504.916 235.374 515.692 225.788 524.268 219C560.789 261.307 567.021 329.67 557.822 385.485Z"
        fill="black" />
    <path
        d="M63.5572 379.431H75.9144L81.2564 398.967C82.3421 403.057 83.4287 407.401 84.5134 411.742H84.8474C85.8496 407.401 86.9353 403.057 88.0191 398.967L93.4475 379.431H105.218L91.6946 420.841H77.4992L63.5572 379.431Z"
        fill="black" />
    <path
        d="M55.2937 412.242C52.0434 412.242 49.9536 410.323 49.9536 405.644V389.029H61.5927L58.3568 379.428H49.9536V368.415H39.7659L38.3519 379.428L32 379.934V389.029H37.6819V405.816C37.6819 415.417 41.6905 421.843 51.9541 421.843C55.9628 421.843 58.9673 421.01 61.1397 420.341L59.2207 411.408C58.1351 411.824 56.6318 412.242 55.2937 412.242Z"
        fill="black" />
    <path
        d="M164.803 428.218C177.235 428.218 183.76 423.557 183.76 414.389C183.76 405.531 177.389 401.646 164.803 401.646H152.06V428.218H164.803ZM162.627 385.485C173.816 385.485 178.788 380.67 178.788 373.055C178.788 365.443 173.504 362.333 162.938 362.333H152.06V385.485H162.627ZM129.063 344.62H163.715C184.849 344.62 201.164 350.368 201.164 369.792C201.164 378.805 195.88 388.595 184.071 391.703V392.323C198.522 394.964 206.137 402.58 206.137 416.098C206.137 436.765 188.733 445.933 166.668 445.933H129.063V344.62Z"
        fill="black" />
    <path
        d="M221.205 368.859H239.851L241.404 382.379H242.026C247.62 371.968 256.011 366.995 263.937 366.995C268.287 366.995 270.929 367.616 273.105 368.55L269.375 388.283C266.578 387.507 264.247 387.039 260.984 387.039C255.234 387.039 248.087 390.77 244.047 401.181V445.934H221.205V368.859Z"
        fill="black" />
    <path
        d="M306.357 430.084C311.64 430.084 315.057 427.599 319.098 423.557V410.038C302.783 412.214 297.498 416.875 297.498 422.781C297.498 427.751 300.917 430.084 306.357 430.084ZM319.098 396.364C318.632 389.526 315.215 385.177 306.978 385.177C300.452 385.177 293.926 387.817 286.467 392.168L278.386 377.096C288.176 371.191 299.209 366.994 311.33 366.994C331.062 366.994 341.941 378.184 341.941 401.801V445.933H323.295L321.586 438.008H321.118C314.592 443.759 307.289 447.797 298.588 447.797C284.602 447.797 275.744 437.543 275.744 424.489C275.744 408.329 288.642 399.472 319.098 396.364Z"
        fill="black" />
    <path
        d="M364.935 422.78C371.928 428.063 378.299 430.861 384.825 430.861C391.662 430.861 394.615 428.375 394.615 424.335C394.615 419.205 386.844 416.876 378.92 413.767C369.597 410.195 358.564 403.823 358.564 391.081C358.564 376.785 370.217 366.995 388.089 366.995C399.897 366.995 408.599 371.813 415.282 376.785L405.026 390.459C399.433 386.418 394.147 383.933 388.71 383.933C382.805 383.933 380.007 386.109 380.007 389.994C380.007 394.965 387.154 396.829 395.082 399.782C404.871 403.357 415.905 408.795 415.905 422.936C415.905 436.921 404.871 447.797 384.203 447.797C374.102 447.797 362.449 443.447 354.679 437.077L364.935 422.78Z"
        fill="black" />
    <path
        d="M430.351 368.86H453.193V445.934H430.351V368.86ZM428.487 345.551C428.487 338.559 434.081 333.74 441.695 333.74C449.463 333.74 454.903 338.559 454.903 345.551C454.903 352.544 449.463 357.516 441.695 357.516C434.081 357.516 428.487 352.544 428.487 345.551Z"
        fill="black" />
    <path
        d="M473.234 337.004H496.076V422.936C496.076 427.752 498.251 429.306 500.117 429.306C501.05 429.306 501.671 429.306 502.915 428.995L505.711 445.933C503.226 447.021 499.339 447.797 494.213 447.797C478.517 447.797 473.234 437.542 473.234 422.003V337.004Z"
        fill="black" />
</svg>