<svg width="100" height="100" viewBox="0 0 667 667" fill="none" xmlns="http://www.w3.org/2000/svg">
    <path
        d="M535.782 155.35C522.755 158.856 511.055 162.171 509.729 162.787C506.839 164.114 502.86 167.998 501.534 170.793C500.918 172.119 498.36 184.293 494.381 204.851C491.018 222.425 480.454 277.137 470.933 326.448C461.412 375.712 453.596 416.592 453.596 417.302C453.596 418.108 454.164 419.15 455.207 420.192C457.717 422.703 459.28 422.513 477.849 417.539C495.707 412.755 495.897 412.708 497.934 411.144C500.634 409.06 501.249 406.976 504.944 386.465C506.886 375.807 508.686 366.523 508.971 365.812C509.681 363.87 512.571 360.933 514.56 360.08C516.266 359.322 558.377 347.906 559.419 347.906C559.703 347.906 562.024 356.812 564.63 367.707C567.188 378.554 569.461 387.934 569.698 388.502C570.267 390.065 572.303 391.155 574.53 391.155C576.898 391.155 608.304 382.818 610.815 381.539C611.809 381.065 613.373 379.786 614.32 378.744C617.683 375.049 617.873 376.896 610.152 340.706C584.051 218.778 570.503 155.634 570.077 154.308C569.13 151.276 565.151 148.908 561.124 149.003C560.224 149.003 548.808 151.845 535.782 155.35ZM546.629 268.8C552.74 305.369 557.666 335.401 557.619 335.496C557.477 335.638 527.634 325.501 521.429 323.18C518.539 322.09 516.644 319.911 516.266 317.259C516.123 316.122 519.534 293.905 525.313 258.568C530.429 227.257 534.597 201.346 534.645 201.014C534.74 198.409 536.824 210.014 546.629 268.8Z"
        fill="black" />
    <path
        d="M456.912 176.287C454.922 176.666 424.559 184.861 423.043 185.43C420.627 186.33 418.732 188.13 417.643 190.404C416.885 192.014 412.811 214.278 402.153 275.1C394.242 320.48 386.758 363.017 385.621 369.649C384.437 376.281 383.489 381.965 383.489 382.202C383.395 384.428 380.647 371.307 365.726 298.406C356.442 252.789 348.483 214.372 348.105 212.951C347.205 209.493 344.931 207.22 342.515 207.22C340.336 207.22 309.688 215.414 307.32 216.646C304.193 218.257 301.54 221.904 301.54 224.557C301.54 225.267 312.009 275.005 324.751 335.022C342.941 420.429 348.199 444.492 349.005 445.629C350.378 447.571 353.599 448.898 356.915 448.898C360.184 448.898 405.232 437.008 408.785 435.208C411.721 433.74 415.179 430.234 416.553 427.487C417.501 425.497 421.053 407.402 458.617 212.951C461.838 196.135 464.491 181.924 464.491 181.309C464.491 177.898 460.938 175.577 456.912 176.287Z"
        fill="black" />
    <path
        d="M256.54 230.004C242.092 233.936 239.439 234.978 237.402 237.678C234.56 241.42 234.75 231.899 234.75 359.37C234.75 471.493 234.797 476.135 235.602 477.651C236.597 479.546 239.06 481.014 241.145 481.014C242.945 481.014 270.182 473.767 272.029 472.772C273.877 471.825 276.103 469.361 277.43 466.803L278.566 464.672L278.708 348.617C278.851 220.294 279.04 229.815 275.866 227.541C273.308 225.694 271.508 225.93 256.54 230.004Z"
        fill="black" />
    <path
        d="M201.828 244.405C200.549 244.736 192.97 246.773 185.059 248.905C177.149 250.989 169.901 253.12 168.954 253.594C166.775 254.731 165.875 255.773 164.691 258.378C164.075 259.8 158.154 292.532 147.401 354.064C130.158 452.545 130.537 450.366 130.3 450.129C130.206 450.035 122.437 412.376 113.058 366.38C103.632 320.385 95.6261 281.684 95.1998 280.31C94.2051 276.805 92.2156 274.958 89.5629 274.958C87.2891 274.958 57.4465 282.821 54.6517 284.147C52.2359 285.284 49.6779 288.221 49.0621 290.59C48.5884 292.39 50.3411 301.106 71.5625 400.865C84.2101 460.456 94.7735 509.957 95.0103 510.857C95.9104 514.173 99.6999 516.541 104.105 516.541C105.811 516.541 114.242 514.504 130.537 510.146C156.259 503.23 157.775 502.709 161.185 498.778C162.085 497.736 163.27 496.078 163.743 495.083C164.785 493.141 211.539 252.268 211.539 248.999C211.539 246.773 210.497 245.21 208.412 244.357C206.47 243.552 204.907 243.552 201.828 244.405Z"
        fill="black" />
</svg>