<svg width="100" height="100" viewBox="0 0 667 667" fill="none" xmlns="http://www.w3.org/2000/svg">
<path d="M295.381 591.575C258.357 572.911 230.79 556.022 205.044 536.23C173.13 511.697 139.354 473.957 112.077 432.352C76.7457 378.463 59.8416 326.451 54.3611 254.768C52.7054 233.111 52.5051 169.49 54.0649 160.697L55.0791 154.979L80.1793 149.583C93.9844 146.615 106.047 143.894 106.986 143.537C107.925 143.179 109.444 139.069 110.362 134.403C111.28 129.737 112.45 125.301 112.962 124.546C113.473 123.79 124.363 120.676 137.161 117.626L160.429 112.08L162.64 102.36C163.856 97.0137 164.851 91.6228 164.851 90.3801C164.851 89.1374 166.304 87.5067 168.081 86.7563C169.857 86.0059 204.377 80.1287 244.792 73.696L318.273 62L391.894 74.46C432.385 81.313 465.852 87.2497 466.265 87.6528C466.678 88.0558 468.34 93.6615 469.958 100.11L472.901 111.834L495.757 116.899L518.614 121.963L523.024 133.352L527.433 144.74L551.374 149.835C564.541 152.638 575.911 155.577 576.64 156.367C580.983 161.072 583.917 221.666 581.261 251.825C579.056 276.865 575.887 298.553 572.418 312.353C570.896 318.406 569.652 323.897 569.654 324.555C569.655 325.213 572.516 327.558 576.012 329.766C585.941 336.039 598.982 350.972 604.727 362.648C621.482 396.694 615.225 434.699 588.442 461.568C576.1 473.949 562.846 481.534 547.033 485.262C533.38 488.481 511.898 487.281 499.086 482.584L489.528 479.079L480.425 489.8C451.087 524.352 401.597 560.861 343.469 590.834L318.969 603.466L295.381 591.575ZM330.161 581.173C361.865 567.629 396.581 544.759 430.411 515.131C448.337 499.432 475.328 471.949 474.663 470.072C473.969 468.109 452.973 444.163 452.031 444.259C451.588 444.304 447.996 448.623 444.048 453.857C434.509 466.504 405.419 495.643 390.219 507.779C365.098 527.835 342.961 541.317 325.019 547.49L316.545 550.406L293.023 538.192C256.174 519.059 237.098 505.347 209.551 478.194C162.425 431.742 130.848 377.383 116.827 318.574C109.389 287.374 106.976 265.204 106.841 226.832L106.715 191.073L110.304 189.969C112.277 189.361 121.541 187.1 130.889 184.943C140.237 182.786 148.737 180.17 149.778 179.13C150.819 178.089 152.119 174.58 152.668 171.332C153.235 167.977 152.344 165.016 155.378 163.305C158.801 161.375 166.805 160.757 179.702 157.732C193.525 154.491 196.926 153.184 197.878 150.749C198.523 149.102 200.444 144.111 202.149 139.659L205.248 131.565L215.553 130.015C221.221 129.163 246.021 124.836 266.943 121.64C288.431 118.357 297.653 116.343 307.962 115.54C311.699 115.248 315.619 114.101 319.005 114.125C330.528 114.207 341.745 118.128 364.38 121.719C386.881 125.289 409.989 129.027 415.731 130.026L426.171 131.842L428.247 138.834C429.389 142.68 430.723 147.957 431.212 150.562L432.101 155.298L449.558 158.494C459.16 160.252 468.96 162.596 470.715 163.702C472.653 164.923 474.264 168.685 475.598 173.274L477.795 180.834L491.067 184.277C498.366 186.171 509.299 189.236 515.362 191.087L526.387 194.453L527.387 202.461C527.937 206.866 528.026 224.78 527.583 242.272C526.803 273.104 525.222 285.315 518.696 310.93C517.766 314.578 518.03 314.812 523.947 315.588C527.373 316.037 535.331 316.57 541.631 316.772L553.087 317.138L556.982 297.76C562.32 271.202 563.813 258.139 564.858 228.857C565.901 199.633 564.509 173.679 561.752 170.922C560.72 169.89 547.873 165.934 533.203 162.13L506.53 155.213L503.281 145.067L500.031 134.922L477.277 129.589C464.762 126.656 454.303 124.035 454.033 123.766C453.764 123.497 451.968 117.819 450.042 111.15C448.117 104.48 445.657 98.5361 444.577 97.9414C443.497 97.3467 414.645 92.4191 380.461 86.9912L318.31 77.1221L274.237 83.9758C217.062 92.867 186.523 97.9745 185.034 98.8947C184.377 99.3006 182.709 104 181.327 109.339C179.944 114.677 179.186 120.581 176.766 122.346C175.243 123.457 163.695 126.084 151.462 129.101L129.22 134.584L128.272 141.169C127.334 147.677 127.92 151.239 124.982 153.305C121.764 155.567 114.419 156.137 98.6653 159.268C83.7022 162.242 71.0444 165.348 70.5367 166.169C68.1746 169.991 66.911 217.563 68.5094 242.494C71.6794 291.937 79.6 329.172 95.2327 368.123C112.634 411.48 136.925 448.461 171.69 484.519C204.39 518.436 238.055 543.341 286.978 569.808C298.364 575.967 309.617 582.184 311.986 583.623C314.354 585.062 316.72 586.25 317.242 586.263C317.764 586.275 323.577 583.986 330.161 581.173ZM352.721 515.377C382.462 495.671 406.026 474.235 431.737 443.499C444.815 427.865 444.902 427.707 443.762 421.967C443.13 418.787 442.617 409.079 442.622 400.395C442.636 375.399 450.154 356.892 467.225 339.82L473.934 333.112L469.778 325.176C467.493 320.811 462.014 313.551 457.602 309.042L449.581 300.845L461.85 291.766C481.306 277.37 491.514 267.078 496.615 256.716C505.79 238.08 501.782 225.194 480.107 203.636C451.135 174.822 411.278 154.759 359.04 142.694C338.787 138.017 334.207 137.591 331.652 140.146C330.329 141.469 329.929 186.817 329.929 335.522C329.929 513.814 330.114 529.105 332.265 528.279C333.55 527.786 342.755 521.98 352.721 515.377ZM306.962 334.466C306.962 160.956 306.734 141.272 304.706 139.244C300.238 134.776 273.308 137.631 264.294 143.529L261.102 145.618L261.874 264.393C262.364 339.862 262.147 382.384 261.278 381.016C259.243 377.81 247.832 341.441 246.193 324.808C243.441 296.897 238.822 275.743 237.388 212.124C236.614 177.781 237.656 156.673 237.222 155.293C235.908 151.117 230.038 150.744 220.415 154.227C207.06 159.061 198.164 163.895 196.335 167.313C193.791 172.066 195.386 264.905 198.567 297.267L201.129 323.33L196.761 330.895L192.393 338.461L186.621 320.406C175.378 285.238 171.973 263.626 169.355 210.814C168.726 198.127 167.74 186.984 167.164 186.052C166.588 185.12 165.097 184.358 163.85 184.358C161.271 184.358 141.115 197.618 132.698 204.851L127.101 209.661L128.734 232.537C132.983 292.099 143.373 335.306 161.923 370.554C168.628 383.295 183.966 405.933 188.37 409.587C190.172 411.083 192.294 408.681 202.107 394.033C208.491 384.505 213.972 376.71 214.287 376.71C214.603 376.71 215.97 380.101 217.324 384.246C220.703 394.585 232.407 423.796 238.748 437.717C251.246 465.155 259.044 478.157 274.175 496.789C282.448 506.975 303.557 527.433 305.795 527.433C306.437 527.433 306.962 440.598 306.962 334.466ZM506.491 413.236V386.601L513.203 387.038L519.916 387.476L530.62 413.673L541.325 439.87H550.877H560.429L564.151 428.745C566.198 422.627 571.776 406.478 576.546 392.859L585.22 368.097H572.658H560.096L555.206 385.222C552.436 394.924 549.851 401.612 549.241 400.653C548.649 399.721 545.84 392.016 542.999 383.528L537.834 368.097H503.501H469.169V378.145V388.194H476.346H483.524V414.032V439.87H495.007H506.491V413.236Z" fill="black" stroke="black" stroke-width="1.21429"/>
<path d="M374.428 241.959V187.4L384.118 190.714C417.478 202.125 444.902 219.809 449.137 232.642C453.467 245.761 439.766 262.737 411.548 279.217C401.553 285.054 383.95 293.511 377.658 295.498L374.428 296.518V241.959Z" fill="black" stroke="black" stroke-width="1.21429"/>
<path d="M375.923 391.557L375.864 339.656L386.989 334.934C406.241 326.762 420.131 328.644 426.105 340.235C429.831 347.463 428.693 361.41 423.334 374.181C415.991 391.683 397.26 419.935 381.306 437.573L375.982 443.459L375.923 391.557Z" fill="black" stroke="black" stroke-width="1.21429"/>
</svg>
